%TF.GenerationSoftware,Altium Limited,Altium Designer,25.4.2 (15)*%
G04 Layer_Color=2752767*
%FSLAX45Y45*%
%MOMM*%
%TF.SameCoordinates,67C836F6-C9C3-4B7B-B257-39D1A88473F1*%
%TF.FilePolarity,Positive*%
%TF.FileFunction,Drawing*%
%TF.Part,Single*%
G01*
G75*
%TA.AperFunction,NonConductor*%
%ADD83C,0.12700*%
%ADD84C,0.16933*%
D83*
X8427100Y8424600D02*
Y8399200D01*
X8477900D01*
Y8424600D01*
X8503300D01*
Y8475400D01*
X8477900D01*
Y8500800D01*
X8427100D01*
Y8475400D01*
X8401700D01*
Y8424600D01*
X8427100D01*
X11232100Y5999600D02*
Y5974200D01*
X11282900D01*
Y5999600D01*
X11308300D01*
Y6050400D01*
X11282900D01*
Y6075800D01*
X11232100D01*
Y6050400D01*
X11206700D01*
Y5999600D01*
X11232100D01*
X11229600Y8419600D02*
Y8394200D01*
X11280400D01*
Y8419600D01*
X11305800D01*
Y8470400D01*
X11280400D01*
Y8495800D01*
X11229600D01*
Y8470400D01*
X11204200D01*
Y8419600D01*
X11229600D01*
X8439600Y5987100D02*
Y5961700D01*
X8490400D01*
Y5987100D01*
X8515800D01*
Y6037900D01*
X8490400D01*
Y6063300D01*
X8439600D01*
Y6037900D01*
X8414200D01*
Y5987100D01*
X8439600D01*
X10078200Y8157300D02*
Y8258900D01*
X10179800D01*
Y8157300D01*
X10078200D01*
Y7954100D02*
Y8055700D01*
X10179800D01*
Y7954100D01*
X10078200D01*
X10586200Y8055700D02*
Y8157300D01*
X10687800D01*
Y8055700D01*
X10586200D01*
X10017500Y7781700D02*
X10042900Y7807100D01*
X10068300D01*
X10042900Y7832500D01*
X10068300Y7857900D01*
X10042900D01*
X10017500Y7883300D01*
X9992100Y7857900D01*
X9966700D01*
X9992100Y7832500D01*
X9966700Y7807100D01*
X9992100D01*
X10017500Y7781700D01*
X9945000Y8056700D02*
X9970400Y8082100D01*
X9995800D01*
X9970400Y8107500D01*
X9995800Y8132900D01*
X9970400D01*
X9945000Y8158300D01*
X9919600Y8132900D01*
X9894200D01*
X9919600Y8107500D01*
X9894200Y8082100D01*
X9919600D01*
X9945000Y8056700D01*
X9732344Y8126396D02*
X9757744Y8151796D01*
X9783144D01*
X9757744Y8177196D01*
X9783144Y8202596D01*
X9757744D01*
X9732344Y8227996D01*
X9706944Y8202596D01*
X9681544D01*
X9706944Y8177196D01*
X9681544Y8151796D01*
X9706944D01*
X9732344Y8126396D01*
X9009018Y7643327D02*
X9034418Y7668727D01*
X9059818D01*
X9034418Y7694127D01*
X9059818Y7719527D01*
X9034418D01*
X9009018Y7744927D01*
X8983618Y7719527D01*
X8958218D01*
X8983618Y7694127D01*
X8958218Y7668727D01*
X8983618D01*
X9009018Y7643327D01*
X9184748Y7459200D02*
X9210148Y7484600D01*
X9235548D01*
X9210148Y7510000D01*
X9235548Y7535400D01*
X9210148D01*
X9184748Y7560800D01*
X9159348Y7535400D01*
X9133948D01*
X9159348Y7510000D01*
X9133948Y7484600D01*
X9159348D01*
X9184748Y7459200D01*
X9037500Y7464200D02*
X9062900Y7489600D01*
X9088300D01*
X9062900Y7515000D01*
X9088300Y7540400D01*
X9062900D01*
X9037500Y7565800D01*
X9012100Y7540400D01*
X8986700D01*
X9012100Y7515000D01*
X8986700Y7489600D01*
X9012100D01*
X9037500Y7464200D01*
X10109018Y7020827D02*
X10134418Y7046227D01*
X10159818D01*
X10134418Y7071627D01*
X10159818Y7097027D01*
X10134418D01*
X10109018Y7122427D01*
X10083618Y7097027D01*
X10058218D01*
X10083618Y7071627D01*
X10058218Y7046227D01*
X10083618D01*
X10109018Y7020827D01*
X9881518Y6940827D02*
X9906918Y6966227D01*
X9932318D01*
X9906918Y6991627D01*
X9932318Y7017027D01*
X9906918D01*
X9881518Y7042427D01*
X9856118Y7017027D01*
X9830718D01*
X9856118Y6991627D01*
X9830718Y6966227D01*
X9856118D01*
X9881518Y6940827D01*
X10640000Y7126700D02*
X10665400Y7152100D01*
X10690800D01*
X10665400Y7177500D01*
X10690800Y7202900D01*
X10665400D01*
X10640000Y7228300D01*
X10614600Y7202900D01*
X10589200D01*
X10614600Y7177500D01*
X10589200Y7152100D01*
X10614600D01*
X10640000Y7126700D01*
X10739018Y7118327D02*
X10764418Y7143727D01*
X10789818D01*
X10764418Y7169127D01*
X10789818Y7194527D01*
X10764418D01*
X10739018Y7219927D01*
X10713618Y7194527D01*
X10688218D01*
X10713618Y7169127D01*
X10688218Y7143727D01*
X10713618D01*
X10739018Y7118327D01*
X11156518Y6710827D02*
X11181918Y6736227D01*
X11207318D01*
X11181918Y6761627D01*
X11207318Y6787027D01*
X11181918D01*
X11156518Y6812427D01*
X11131118Y6787027D01*
X11105718D01*
X11131118Y6761627D01*
X11105718Y6736227D01*
X11131118D01*
X11156518Y6710827D01*
X11036518D02*
X11061918Y6736227D01*
X11087318D01*
X11061918Y6761627D01*
X11087318Y6787027D01*
X11061918D01*
X11036518Y6812427D01*
X11011118Y6787027D01*
X10985718D01*
X11011118Y6761627D01*
X10985718Y6736227D01*
X11011118D01*
X11036518Y6710827D01*
X10921518Y6768327D02*
X10946918Y6793727D01*
X10972318D01*
X10946918Y6819127D01*
X10972318Y6844527D01*
X10946918D01*
X10921518Y6869927D01*
X10896118Y6844527D01*
X10870718D01*
X10896118Y6819127D01*
X10870718Y6793727D01*
X10896118D01*
X10921518Y6768327D01*
X10940000Y6954200D02*
X10965400Y6979600D01*
X10990800D01*
X10965400Y7005000D01*
X10990800Y7030400D01*
X10965400D01*
X10940000Y7055800D01*
X10914600Y7030400D01*
X10889200D01*
X10914600Y7005000D01*
X10889200Y6979600D01*
X10914600D01*
X10940000Y6954200D01*
X8495000Y8029200D02*
X8520400Y8054600D01*
X8545800D01*
X8520400Y8080000D01*
X8545800Y8105400D01*
X8520400D01*
X8495000Y8130800D01*
X8469600Y8105400D01*
X8444200D01*
X8469600Y8080000D01*
X8444200Y8054600D01*
X8469600D01*
X8495000Y8029200D01*
X8492500Y7944200D02*
X8517900Y7969600D01*
X8543300D01*
X8517900Y7995000D01*
X8543300Y8020400D01*
X8517900D01*
X8492500Y8045800D01*
X8467100Y8020400D01*
X8441700D01*
X8467100Y7995000D01*
X8441700Y7969600D01*
X8467100D01*
X8492500Y7944200D01*
X9680000Y6579200D02*
X9705400Y6604600D01*
X9730800D01*
X9705400Y6630000D01*
X9730800Y6655400D01*
X9705400D01*
X9680000Y6680800D01*
X9654600Y6655400D01*
X9629200D01*
X9654600Y6630000D01*
X9629200Y6604600D01*
X9654600D01*
X9680000Y6579200D01*
X9640000Y6869200D02*
X9665400Y6894600D01*
X9690800D01*
X9665400Y6920000D01*
X9690800Y6945400D01*
X9665400D01*
X9640000Y6970800D01*
X9614600Y6945400D01*
X9589200D01*
X9614600Y6920000D01*
X9589200Y6894600D01*
X9614600D01*
X9640000Y6869200D01*
X10240000Y7689200D02*
X10265400Y7714600D01*
X10290800D01*
X10265400Y7740000D01*
X10290800Y7765400D01*
X10265400D01*
X10240000Y7790800D01*
X10214600Y7765400D01*
X10189200D01*
X10214600Y7740000D01*
X10189200Y7714600D01*
X10214600D01*
X10240000Y7689200D01*
X10830000Y7699200D02*
X10855400Y7724600D01*
X10880800D01*
X10855400Y7750000D01*
X10880800Y7775400D01*
X10855400D01*
X10830000Y7800800D01*
X10804600Y7775400D01*
X10779200D01*
X10804600Y7750000D01*
X10779200Y7724600D01*
X10804600D01*
X10830000Y7699200D01*
X9430000Y7969200D02*
X9455400Y7994600D01*
X9480800D01*
X9455400Y8020000D01*
X9480800Y8045400D01*
X9455400D01*
X9430000Y8070800D01*
X9404600Y8045400D01*
X9379200D01*
X9404600Y8020000D01*
X9379200Y7994600D01*
X9404600D01*
X9430000Y7969200D01*
X9390000Y8089200D02*
X9415400Y8114600D01*
X9440800D01*
X9415400Y8140000D01*
X9440800Y8165400D01*
X9415400D01*
X9390000Y8190800D01*
X9364600Y8165400D01*
X9339200D01*
X9364600Y8140000D01*
X9339200Y8114600D01*
X9364600D01*
X9390000Y8089200D01*
X9480525Y8082027D02*
X9505925Y8107427D01*
X9531325D01*
X9505925Y8132827D01*
X9531325Y8158227D01*
X9505925D01*
X9480525Y8183627D01*
X9455125Y8158227D01*
X9429725D01*
X9455125Y8132827D01*
X9429725Y8107427D01*
X9455125D01*
X9480525Y8082027D01*
X9183551Y7898480D02*
X9208951Y7923880D01*
X9234351D01*
X9208951Y7949280D01*
X9234351Y7974680D01*
X9208951D01*
X9183551Y8000080D01*
X9158151Y7974680D01*
X9132751D01*
X9158151Y7949280D01*
X9132751Y7923880D01*
X9158151D01*
X9183551Y7898480D01*
X9460000Y8229200D02*
X9485400Y8254600D01*
X9510800D01*
X9485400Y8280000D01*
X9510800Y8305400D01*
X9485400D01*
X9460000Y8330800D01*
X9434600Y8305400D01*
X9409200D01*
X9434600Y8280000D01*
X9409200Y8254600D01*
X9434600D01*
X9460000Y8229200D01*
Y8369200D02*
X9485400Y8394600D01*
X9510800D01*
X9485400Y8420000D01*
X9510800Y8445400D01*
X9485400D01*
X9460000Y8470800D01*
X9434600Y8445400D01*
X9409200D01*
X9434600Y8420000D01*
X9409200Y8394600D01*
X9434600D01*
X9460000Y8369200D01*
X9224380Y8164020D02*
X9249780Y8214820D01*
X9224380Y8265620D01*
X9275180Y8240220D01*
X9325980Y8265620D01*
X9300580Y8214820D01*
X9325980Y8164020D01*
X9275180Y8189420D01*
X9224380Y8164020D01*
X9939200Y8299200D02*
X9964600Y8350000D01*
X9939200Y8400800D01*
X9990000Y8375400D01*
X10040800Y8400800D01*
X10015400Y8350000D01*
X10040800Y8299200D01*
X9990000Y8324600D01*
X9939200Y8299200D01*
X10220000Y8199200D02*
X10245400Y8224600D01*
X10270800D01*
X10245400Y8250000D01*
X10270800Y8275400D01*
X10245400D01*
X10220000Y8300800D01*
X10194600Y8275400D01*
X10169200D01*
X10194600Y8250000D01*
X10169200Y8224600D01*
X10194600D01*
X10220000Y8199200D01*
X9080000Y7049200D02*
X9105400Y7074600D01*
X9130800D01*
X9105400Y7100000D01*
X9130800Y7125400D01*
X9105400D01*
X9080000Y7150800D01*
X9054600Y7125400D01*
X9029200D01*
X9054600Y7100000D01*
X9029200Y7074600D01*
X9054600D01*
X9080000Y7049200D01*
X8680000Y7359200D02*
X8705400Y7384600D01*
X8730800D01*
X8705400Y7410000D01*
X8730800Y7435400D01*
X8705400D01*
X8680000Y7460800D01*
X8654600Y7435400D01*
X8629200D01*
X8654600Y7410000D01*
X8629200Y7384600D01*
X8654600D01*
X8680000Y7359200D01*
X10290000Y8419200D02*
X10315400Y8444600D01*
X10340800D01*
X10315400Y8470000D01*
X10340800Y8495400D01*
X10315400D01*
X10290000Y8520800D01*
X10264600Y8495400D01*
X10239200D01*
X10264600Y8470000D01*
X10239200Y8444600D01*
X10264600D01*
X10290000Y8419200D01*
X9069104Y8370606D02*
X9094504Y8396006D01*
X9119904D01*
X9094504Y8421406D01*
X9119904Y8446806D01*
X9094504D01*
X9069104Y8472206D01*
X9043704Y8446806D01*
X9018304D01*
X9043704Y8421406D01*
X9018304Y8396006D01*
X9043704D01*
X9069104Y8370606D01*
X8729980Y7840980D02*
X8755380Y7866380D01*
X8780780D01*
X8755380Y7891780D01*
X8780780Y7917180D01*
X8755380D01*
X8729980Y7942580D01*
X8704580Y7917180D01*
X8679180D01*
X8704580Y7891780D01*
X8679180Y7866380D01*
X8704580D01*
X8729980Y7840980D01*
D84*
X9920800Y7280000D02*
G03*
X9920800Y7280000I-50800J0D01*
G01*
X9810800D02*
G03*
X9810800Y7280000I-50800J0D01*
G01*
X9700800D02*
G03*
X9700800Y7280000I-50800J0D01*
G01*
X9590800D02*
G03*
X9590800Y7280000I-50800J0D01*
G01*
X9480800D02*
G03*
X9480800Y7280000I-50800J0D01*
G01*
X9920800Y7390000D02*
G03*
X9920800Y7390000I-50800J0D01*
G01*
X9810800D02*
G03*
X9810800Y7390000I-50800J0D01*
G01*
X9700800D02*
G03*
X9700800Y7390000I-50800J0D01*
G01*
X9590800D02*
G03*
X9590800Y7390000I-50800J0D01*
G01*
X9480800D02*
G03*
X9480800Y7390000I-50800J0D01*
G01*
X9920800Y7500000D02*
G03*
X9920800Y7500000I-50800J0D01*
G01*
X9810800D02*
G03*
X9810800Y7500000I-50800J0D01*
G01*
X9700800D02*
G03*
X9700800Y7500000I-50800J0D01*
G01*
X9590800D02*
G03*
X9590800Y7500000I-50800J0D01*
G01*
X9480800D02*
G03*
X9480800Y7500000I-50800J0D01*
G01*
X9920800Y7610000D02*
G03*
X9920800Y7610000I-50800J0D01*
G01*
X9810800D02*
G03*
X9810800Y7610000I-50800J0D01*
G01*
X9700800D02*
G03*
X9700800Y7610000I-50800J0D01*
G01*
X9590800D02*
G03*
X9590800Y7610000I-50800J0D01*
G01*
X9480800D02*
G03*
X9480800Y7610000I-50800J0D01*
G01*
X9920800Y7720000D02*
G03*
X9920800Y7720000I-50800J0D01*
G01*
X9810800D02*
G03*
X9810800Y7720000I-50800J0D01*
G01*
X9700800D02*
G03*
X9700800Y7720000I-50800J0D01*
G01*
X9590800D02*
G03*
X9590800Y7720000I-50800J0D01*
G01*
X9480800D02*
G03*
X9480800Y7720000I-50800J0D01*
G01*
X9047480Y8194820D02*
G03*
X9047480Y8194820I-50800J0D01*
G01*
Y8084820D02*
G03*
X9047480Y8084820I-50800J0D01*
G01*
X8937480D02*
G03*
X8937480Y8084820I-50800J0D01*
G01*
Y8194820D02*
G03*
X8937480Y8194820I-50800J0D01*
G01*
%TF.MD5,b934d9a092a245b1fe86073e4929546f*%
M02*
