%TF.GenerationSoftware,Altium Limited,Altium Designer,25.4.2 (15)*%
G04 Layer_Physical_Order=2*
G04 Layer_Color=36540*
%FSLAX45Y45*%
%MOMM*%
%TF.SameCoordinates,67C836F6-C9C3-4B7B-B257-39D1A88473F1*%
%TF.FilePolarity,Positive*%
%TF.FileFunction,Copper,L2,Inr,Signal*%
%TF.Part,Single*%
G01*
G75*
%TA.AperFunction,WasherPad*%
%ADD39C,1.52400*%
%TA.AperFunction,ComponentPad*%
%ADD40C,1.06700*%
%TA.AperFunction,ViaPad*%
%ADD41C,0.60000*%
%ADD42C,0.50000*%
%ADD43C,0.70000*%
%ADD44C,0.55000*%
%TA.AperFunction,Conductor*%
%ADD45C,0.25400*%
G36*
X11164027Y8566043D02*
X11164539Y8559600D01*
X11138971Y8534032D01*
X11119882Y8500968D01*
X11110000Y8464089D01*
Y8425910D01*
X11119882Y8389032D01*
X11138971Y8355968D01*
X11165968Y8328971D01*
X11199032Y8309882D01*
X11235910Y8300000D01*
X11274090D01*
X11310968Y8309882D01*
X11344032Y8328971D01*
X11371029Y8355968D01*
X11379600Y8370813D01*
X11405000Y8364007D01*
Y6110322D01*
X11379600Y6103517D01*
X11373529Y6114032D01*
X11346532Y6141029D01*
X11313468Y6160118D01*
X11276590Y6170000D01*
X11238410D01*
X11201532Y6160118D01*
X11168468Y6141029D01*
X11141471Y6114032D01*
X11122382Y6080968D01*
X11112500Y6044090D01*
Y6005910D01*
X11122382Y5969032D01*
X11141471Y5935968D01*
X11168468Y5908971D01*
X11178983Y5902900D01*
X11172177Y5877500D01*
X8569553D01*
X8560461Y5902900D01*
X8581029Y5923468D01*
X8600118Y5956532D01*
X8610000Y5993410D01*
Y6031590D01*
X8600118Y6068468D01*
X8581029Y6101532D01*
X8554032Y6128529D01*
X8520968Y6147618D01*
X8484090Y6157500D01*
X8445910D01*
X8409032Y6147618D01*
X8375968Y6128529D01*
X8360400Y6112961D01*
X8335000Y6123482D01*
Y8326518D01*
X8360400Y8337039D01*
X8363468Y8333971D01*
X8396532Y8314882D01*
X8433410Y8305000D01*
X8471590D01*
X8508468Y8314882D01*
X8541532Y8333971D01*
X8568529Y8360968D01*
X8587618Y8394032D01*
X8597500Y8430910D01*
Y8469090D01*
X8587618Y8505968D01*
X8568529Y8539032D01*
X8547961Y8559600D01*
X8557053Y8585000D01*
X11156687D01*
X11164027Y8566043D01*
D02*
G37*
%LPC*%
G36*
X9469945Y8470000D02*
X9450054D01*
X9431677Y8462388D01*
X9417612Y8448323D01*
X9410000Y8429946D01*
Y8410054D01*
X9417612Y8391677D01*
X9431677Y8377612D01*
X9450054Y8370000D01*
X9469945D01*
X9488323Y8377612D01*
X9502388Y8391677D01*
X9510000Y8410054D01*
Y8429946D01*
X9502388Y8448323D01*
X9488323Y8462388D01*
X9469945Y8470000D01*
D02*
G37*
G36*
X10000940Y8405000D02*
X9979060D01*
X9958845Y8396627D01*
X9943374Y8381155D01*
X9935000Y8360940D01*
Y8339060D01*
X9943374Y8318845D01*
X9958845Y8303374D01*
X9979060Y8295000D01*
X10000940D01*
X10021155Y8303374D01*
X10036627Y8318845D01*
X10045000Y8339060D01*
Y8360940D01*
X10036627Y8381155D01*
X10021155Y8396627D01*
X10000940Y8405000D01*
D02*
G37*
G36*
X9469945Y8330000D02*
X9450054D01*
X9431677Y8322388D01*
X9417612Y8308323D01*
X9410000Y8289946D01*
Y8270054D01*
X9417612Y8251677D01*
X9431677Y8237612D01*
X9450054Y8230000D01*
X9469945D01*
X9488323Y8237612D01*
X9502388Y8251677D01*
X9510000Y8270054D01*
Y8289946D01*
X9502388Y8308323D01*
X9488323Y8322388D01*
X9469945Y8330000D01*
D02*
G37*
G36*
X9286120Y8269820D02*
X9264240D01*
X9244025Y8261447D01*
X9228554Y8245975D01*
X9220180Y8225760D01*
Y8203880D01*
X9228554Y8183665D01*
X9244025Y8168193D01*
X9264240Y8159820D01*
X9286120D01*
X9306335Y8168193D01*
X9321807Y8183665D01*
X9330180Y8203880D01*
Y8225760D01*
X9321807Y8245975D01*
X9306335Y8261447D01*
X9286120Y8269820D01*
D02*
G37*
G36*
X10138657Y8281450D02*
X10119343D01*
X10100688Y8276451D01*
X10083962Y8266794D01*
X10070305Y8253138D01*
X10060649Y8236412D01*
X10055650Y8217756D01*
Y8198443D01*
X10060649Y8179788D01*
X10070305Y8163062D01*
X10083962Y8149405D01*
X10100688Y8139749D01*
X10119343Y8134750D01*
X10138657D01*
X10157312Y8139749D01*
X10174038Y8149405D01*
X10187695Y8163062D01*
X10197351Y8179788D01*
X10202350Y8198443D01*
Y8217756D01*
X10197351Y8236412D01*
X10187695Y8253138D01*
X10174038Y8266794D01*
X10157312Y8276451D01*
X10138657Y8281450D01*
D02*
G37*
G36*
X9742289Y8227196D02*
X9722398D01*
X9704021Y8219584D01*
X9689956Y8205519D01*
X9682344Y8187142D01*
Y8167251D01*
X9689956Y8148873D01*
X9704021Y8134808D01*
X9722398Y8127196D01*
X9742289D01*
X9760667Y8134808D01*
X9774732Y8148873D01*
X9782344Y8167251D01*
Y8187142D01*
X9774732Y8205519D01*
X9760667Y8219584D01*
X9742289Y8227196D01*
D02*
G37*
G36*
X9399946Y8190000D02*
X9380054D01*
X9361677Y8182388D01*
X9347612Y8168323D01*
X9340000Y8149946D01*
Y8130054D01*
X9347612Y8111677D01*
X9361677Y8097612D01*
X9380054Y8090000D01*
X9399946D01*
X9418323Y8097612D01*
X9432388Y8111677D01*
X9440000Y8130054D01*
Y8149946D01*
X9432388Y8168323D01*
X9418323Y8182388D01*
X9399946Y8190000D01*
D02*
G37*
G36*
X9954946Y8157500D02*
X9935054D01*
X9916677Y8149888D01*
X9902612Y8135823D01*
X9895000Y8117446D01*
Y8097554D01*
X9902612Y8079177D01*
X9916677Y8065112D01*
X9935054Y8057500D01*
X9954946D01*
X9973323Y8065112D01*
X9987388Y8079177D01*
X9995000Y8097554D01*
Y8117446D01*
X9987388Y8135823D01*
X9973323Y8149888D01*
X9954946Y8157500D01*
D02*
G37*
G36*
X10646657Y8179850D02*
X10627343D01*
X10608688Y8174851D01*
X10591962Y8165194D01*
X10578305Y8151538D01*
X10568649Y8134812D01*
X10563650Y8116156D01*
Y8096843D01*
X10568649Y8078188D01*
X10578305Y8061462D01*
X10591962Y8047805D01*
X10608688Y8038149D01*
X10627343Y8033150D01*
X10646657D01*
X10665312Y8038149D01*
X10682038Y8047805D01*
X10695695Y8061462D01*
X10705351Y8078188D01*
X10710350Y8096843D01*
Y8116156D01*
X10705351Y8134812D01*
X10695695Y8151538D01*
X10682038Y8165194D01*
X10665312Y8174851D01*
X10646657Y8179850D01*
D02*
G37*
G36*
X10138657Y8078250D02*
X10119343D01*
X10100688Y8073251D01*
X10083962Y8063594D01*
X10070305Y8049938D01*
X10060649Y8033212D01*
X10055650Y8014556D01*
Y7995243D01*
X10060649Y7976588D01*
X10070305Y7959862D01*
X10083962Y7946205D01*
X10100688Y7936549D01*
X10119343Y7931550D01*
X10138657D01*
X10157312Y7936549D01*
X10174038Y7946205D01*
X10187695Y7959862D01*
X10197351Y7976588D01*
X10202350Y7995243D01*
Y8014556D01*
X10197351Y8033212D01*
X10187695Y8049938D01*
X10174038Y8063594D01*
X10157312Y8073251D01*
X10138657Y8078250D01*
D02*
G37*
G36*
X8739428Y7939280D02*
X8720532D01*
X8703074Y7932048D01*
X8689712Y7918686D01*
X8682480Y7901228D01*
Y7882332D01*
X8689712Y7864874D01*
X8703074Y7851512D01*
X8720532Y7844280D01*
X8739428D01*
X8756886Y7851512D01*
X8770248Y7864874D01*
X8777480Y7882332D01*
Y7901228D01*
X8770248Y7918686D01*
X8756886Y7932048D01*
X8739428Y7939280D01*
D02*
G37*
G36*
X10027446Y7882500D02*
X10007554D01*
X9989177Y7874888D01*
X9975112Y7860823D01*
X9967500Y7842446D01*
Y7822554D01*
X9975112Y7804177D01*
X9989177Y7790112D01*
X10007554Y7782500D01*
X10027446D01*
X10045823Y7790112D01*
X10059888Y7804177D01*
X10067500Y7822554D01*
Y7842446D01*
X10059888Y7860823D01*
X10045823Y7874888D01*
X10027446Y7882500D01*
D02*
G37*
G36*
X9194694Y7560000D02*
X9174803D01*
X9156425Y7552388D01*
X9142360Y7538323D01*
X9134748Y7519946D01*
Y7500055D01*
X9142360Y7481677D01*
X9156425Y7467612D01*
X9174803Y7460000D01*
X9194694D01*
X9213071Y7467612D01*
X9227136Y7481677D01*
X9234748Y7500055D01*
Y7519946D01*
X9227136Y7538323D01*
X9213071Y7552388D01*
X9194694Y7560000D01*
D02*
G37*
G36*
X10947500Y7065841D02*
X10934741Y7063303D01*
X10923925Y7056075D01*
X10903925Y7036075D01*
X10896698Y7025259D01*
X10894160Y7012500D01*
Y7007500D01*
X10896698Y6994741D01*
X10903925Y6983925D01*
X10914741Y6976698D01*
X10927500Y6974160D01*
X10940259Y6976698D01*
X10951075Y6983925D01*
X10958303Y6994741D01*
X10958653Y6996502D01*
X10971075Y7008925D01*
X10978303Y7019741D01*
X10980841Y7032500D01*
X10978303Y7045259D01*
X10971075Y7056075D01*
X10960259Y7063303D01*
X10947500Y7065841D01*
D02*
G37*
%LPD*%
D39*
X8452500Y8450000D02*
D03*
X11257500Y6025000D02*
D03*
X11255000Y8445000D02*
D03*
X8465000Y6012500D02*
D03*
D40*
X10129000Y8208100D02*
D03*
Y8004900D02*
D03*
X10637000Y8106500D02*
D03*
D41*
X10017500Y7832500D02*
D03*
X9945000Y8107500D02*
D03*
X9732344Y8177196D02*
D03*
X9184748Y7510000D02*
D03*
X8495000Y8080000D02*
D03*
X8492500Y7995000D02*
D03*
X9680000Y6630000D02*
D03*
X9640000Y6920000D02*
D03*
X10240000Y7740000D02*
D03*
X10830000Y7750000D02*
D03*
X9390000Y8140000D02*
D03*
X9460000Y8280000D02*
D03*
Y8420000D02*
D03*
D42*
X9009018Y7694127D02*
D03*
X9037500Y7515000D02*
D03*
X10109018Y7071627D02*
D03*
X9881518Y6991627D02*
D03*
X10640000Y7177500D02*
D03*
X10739018Y7169127D02*
D03*
X11156518Y6761627D02*
D03*
X11036518D02*
D03*
X10921518Y6819127D02*
D03*
X10940000Y7005000D02*
D03*
X9430000Y8020000D02*
D03*
X9480525Y8132827D02*
D03*
X9183551Y7949280D02*
D03*
X10220000Y8250000D02*
D03*
X9080000Y7100000D02*
D03*
X8680000Y7410000D02*
D03*
X10290000Y8470000D02*
D03*
X9069104Y8421406D02*
D03*
X9870000Y7280000D02*
D03*
X9760000D02*
D03*
X9650000D02*
D03*
X9540000D02*
D03*
X9430000D02*
D03*
X9870000Y7390000D02*
D03*
X9760000D02*
D03*
X9650000D02*
D03*
X9540000D02*
D03*
X9430000D02*
D03*
X9870000Y7500000D02*
D03*
X9760000D02*
D03*
X9650000D02*
D03*
X9540000D02*
D03*
X9430000D02*
D03*
X9870000Y7610000D02*
D03*
X9760000D02*
D03*
X9650000D02*
D03*
X9540000D02*
D03*
X9430000D02*
D03*
X9870000Y7720000D02*
D03*
X9760000D02*
D03*
X9650000D02*
D03*
X9540000D02*
D03*
X9430000D02*
D03*
X8996680Y8194820D02*
D03*
Y8084820D02*
D03*
X8886680D02*
D03*
Y8194820D02*
D03*
D43*
X9275180Y8214820D02*
D03*
X9990000Y8350000D02*
D03*
D44*
X8729980Y7891780D02*
D03*
D45*
X10927500Y7012500D02*
X10947500Y7032500D01*
X10927500Y7007500D02*
Y7012500D01*
%TF.MD5,3431e7a3f7cdd5e9503cf765313fa16a*%
M02*
