%TF.GenerationSoftware,Altium Limited,Altium Designer,25.4.2 (15)*%
G04 Layer_Color=128*
%FSLAX45Y45*%
%MOMM*%
%TF.SameCoordinates,67C836F6-C9C3-4B7B-B257-39D1A88473F1*%
%TF.FilePolarity,Positive*%
%TF.FileFunction,Drillmap*%
%TF.Part,Single*%
G01*
G75*
%TA.AperFunction,NonConductor*%
%ADD83C,0.12700*%
D83*
X8327500Y8450000D02*
X8577500D01*
X8452500Y8325000D02*
Y8575000D01*
X11132500Y6025000D02*
X11382500D01*
X11257500Y5900000D02*
Y6150000D01*
X11130000Y8445000D02*
X11380000D01*
X11255000Y8320000D02*
Y8570000D01*
X8340000Y6012500D02*
X8590000D01*
X8465000Y5887500D02*
Y6137500D01*
X10075650Y8208100D02*
X10182350D01*
X10129000Y8154750D02*
Y8261450D01*
X10075650Y8004900D02*
X10182350D01*
X10129000Y7951550D02*
Y8058250D01*
X10583650Y8106500D02*
X10690350D01*
X10637000Y8053150D02*
Y8159850D01*
X10005000Y7832500D02*
X10030000D01*
X10017500Y7820000D02*
Y7845000D01*
X9932500Y8107500D02*
X9957500D01*
X9945000Y8095000D02*
Y8120000D01*
X9719844Y8177196D02*
X9744844D01*
X9732344Y8164696D02*
Y8189696D01*
X8996518Y7694127D02*
X9021517D01*
X9009018Y7681628D02*
Y7706627D01*
X9172248Y7510000D02*
X9197248D01*
X9184748Y7497500D02*
Y7522500D01*
X9025000Y7515000D02*
X9050000D01*
X9037500Y7502500D02*
Y7527500D01*
X10096518Y7071627D02*
X10121517D01*
X10109018Y7059127D02*
Y7084127D01*
X9869018Y6991627D02*
X9894018D01*
X9881518Y6979128D02*
Y7004127D01*
X10627500Y7177500D02*
X10652500D01*
X10640000Y7165000D02*
Y7190000D01*
X10726518Y7169127D02*
X10751517D01*
X10739018Y7156628D02*
Y7181627D01*
X11144018Y6761627D02*
X11169018D01*
X11156518Y6749127D02*
Y6774127D01*
X11024018Y6761627D02*
X11049018D01*
X11036518Y6749127D02*
Y6774127D01*
X10909018Y6819127D02*
X10934018D01*
X10921518Y6806627D02*
Y6831627D01*
X10927500Y7005000D02*
X10952500D01*
X10940000Y6992500D02*
Y7017500D01*
X8482500Y8080000D02*
X8507500D01*
X8495000Y8067500D02*
Y8092500D01*
X8480000Y7995000D02*
X8505000D01*
X8492500Y7982500D02*
Y8007500D01*
X9667500Y6630000D02*
X9692500D01*
X9680000Y6617500D02*
Y6642500D01*
X9627500Y6920000D02*
X9652500D01*
X9640000Y6907500D02*
Y6932500D01*
X10227500Y7740000D02*
X10252500D01*
X10240000Y7727500D02*
Y7752500D01*
X10817500Y7750000D02*
X10842500D01*
X10830000Y7737500D02*
Y7762500D01*
X9417500Y8020000D02*
X9442500D01*
X9430000Y8007500D02*
Y8032500D01*
X9377500Y8140000D02*
X9402500D01*
X9390000Y8127500D02*
Y8152500D01*
X9468025Y8132827D02*
X9493025D01*
X9480525Y8120327D02*
Y8145327D01*
X9171052Y7949280D02*
X9196051D01*
X9183551Y7936780D02*
Y7961780D01*
X9447500Y8280000D02*
X9472500D01*
X9460000Y8267500D02*
Y8292500D01*
X9447500Y8420000D02*
X9472500D01*
X9460000Y8407500D02*
Y8432500D01*
X9260180Y8214820D02*
X9290180D01*
X9275180Y8199820D02*
Y8229820D01*
X9975000Y8350000D02*
X10005000D01*
X9990000Y8335000D02*
Y8365000D01*
X10207500Y8250000D02*
X10232500D01*
X10220000Y8237500D02*
Y8262500D01*
X9067500Y7100000D02*
X9092500D01*
X9080000Y7087500D02*
Y7112500D01*
X8667500Y7410000D02*
X8692500D01*
X8680000Y7397500D02*
Y7422500D01*
X10277500Y8470000D02*
X10302500D01*
X10290000Y8457500D02*
Y8482500D01*
X9056604Y8421406D02*
X9081604D01*
X9069104Y8408906D02*
Y8433905D01*
X8717480Y7891780D02*
X8742480D01*
X8729980Y7879280D02*
Y7904280D01*
X9860000Y7280000D02*
X9880000D01*
X9870000Y7270000D02*
Y7290000D01*
X9750000Y7280000D02*
X9770000D01*
X9760000Y7270000D02*
Y7290000D01*
X9640000Y7280000D02*
X9660000D01*
X9650000Y7270000D02*
Y7290000D01*
X9530000Y7280000D02*
X9550000D01*
X9540000Y7270000D02*
Y7290000D01*
X9420000Y7280000D02*
X9440000D01*
X9430000Y7270000D02*
Y7290000D01*
X9860000Y7390000D02*
X9880000D01*
X9870000Y7380000D02*
Y7400000D01*
X9750000Y7390000D02*
X9770000D01*
X9760000Y7380000D02*
Y7400000D01*
X9640000Y7390000D02*
X9660000D01*
X9650000Y7380000D02*
Y7400000D01*
X9530000Y7390000D02*
X9550000D01*
X9540000Y7380000D02*
Y7400000D01*
X9420000Y7390000D02*
X9440000D01*
X9430000Y7380000D02*
Y7400000D01*
X9860000Y7500000D02*
X9880000D01*
X9870000Y7490000D02*
Y7510000D01*
X9750000Y7500000D02*
X9770000D01*
X9760000Y7490000D02*
Y7510000D01*
X9640000Y7500000D02*
X9660000D01*
X9650000Y7490000D02*
Y7510000D01*
X9530000Y7500000D02*
X9550000D01*
X9540000Y7490000D02*
Y7510000D01*
X9420000Y7500000D02*
X9440000D01*
X9430000Y7490000D02*
Y7510000D01*
X9860000Y7610000D02*
X9880000D01*
X9870000Y7600000D02*
Y7620000D01*
X9750000Y7610000D02*
X9770000D01*
X9760000Y7600000D02*
Y7620000D01*
X9640000Y7610000D02*
X9660000D01*
X9650000Y7600000D02*
Y7620000D01*
X9530000Y7610000D02*
X9550000D01*
X9540000Y7600000D02*
Y7620000D01*
X9420000Y7610000D02*
X9440000D01*
X9430000Y7600000D02*
Y7620000D01*
X9860000Y7720000D02*
X9880000D01*
X9870000Y7710000D02*
Y7730000D01*
X9750000Y7720000D02*
X9770000D01*
X9760000Y7710000D02*
Y7730000D01*
X9640000Y7720000D02*
X9660000D01*
X9650000Y7710000D02*
Y7730000D01*
X9530000Y7720000D02*
X9550000D01*
X9540000Y7710000D02*
Y7730000D01*
X9420000Y7720000D02*
X9440000D01*
X9430000Y7710000D02*
Y7730000D01*
X8986680Y8194820D02*
X9006680D01*
X8996680Y8184820D02*
Y8204820D01*
X8986680Y8084820D02*
X9006680D01*
X8996680Y8074820D02*
Y8094820D01*
X8876680Y8084820D02*
X8896680D01*
X8886680Y8074820D02*
Y8094820D01*
X8876680Y8194820D02*
X8896680D01*
X8886680Y8184820D02*
Y8204820D01*
%TF.MD5,01141070f3019fae59f58d9c864c9247*%
M02*
