%TF.GenerationSoftware,Altium Limited,Altium Designer,25.4.2 (15)*%
G04 Layer_Physical_Order=4*
G04 Layer_Color=16711680*
%FSLAX45Y45*%
%MOMM*%
%TF.SameCoordinates,67C836F6-C9C3-4B7B-B257-39D1A88473F1*%
%TF.FilePolarity,Positive*%
%TF.FileFunction,Copper,L4,Bot,Signal*%
%TF.Part,Single*%
G01*
G75*
%TA.AperFunction,Conductor*%
%ADD34C,0.20000*%
%ADD35C,0.25000*%
%TA.AperFunction,WasherPad*%
%ADD39C,1.52400*%
%TA.AperFunction,ComponentPad*%
%ADD40C,1.06700*%
%TA.AperFunction,ViaPad*%
%ADD41C,0.60000*%
%ADD42C,0.50000*%
%ADD43C,0.70000*%
%ADD44C,0.55000*%
D34*
X10017500Y7832500D02*
Y8035000D01*
X9945000Y8107500D02*
X10017500Y8035000D01*
X9605736Y7965736D02*
X9990000Y8350000D01*
X9492276Y7965736D02*
X9605736D01*
X9184748Y7658208D02*
X9492276Y7965736D01*
X9184748Y7510000D02*
Y7658208D01*
X9460000Y8280000D02*
Y8420000D01*
D35*
X9678451Y8183893D02*
X9725647D01*
X9732344Y8177196D01*
X9652343Y8210000D02*
X9678451Y8183893D01*
X9280000Y8210000D02*
X9652343D01*
X9220200Y7891780D02*
X9390000Y8061580D01*
Y8140000D01*
X9275180Y8214820D02*
X9280000Y8210000D01*
X8729980Y7891780D02*
X9220200D01*
D39*
X8452500Y8450000D02*
D03*
X11257500Y6025000D02*
D03*
X11255000Y8445000D02*
D03*
X8465000Y6012500D02*
D03*
D40*
X10129000Y8208100D02*
D03*
Y8004900D02*
D03*
X10637000Y8106500D02*
D03*
D41*
X10017500Y7832500D02*
D03*
X9945000Y8107500D02*
D03*
X9732344Y8177196D02*
D03*
X9184748Y7510000D02*
D03*
X8495000Y8080000D02*
D03*
X8492500Y7995000D02*
D03*
X9680000Y6630000D02*
D03*
X9640000Y6920000D02*
D03*
X10240000Y7740000D02*
D03*
X10830000Y7750000D02*
D03*
X9390000Y8140000D02*
D03*
X9460000Y8280000D02*
D03*
Y8420000D02*
D03*
D42*
X9009018Y7694127D02*
D03*
X9037500Y7515000D02*
D03*
X10109018Y7071627D02*
D03*
X9881518Y6991627D02*
D03*
X10640000Y7177500D02*
D03*
X10739018Y7169127D02*
D03*
X11156518Y6761627D02*
D03*
X11036518D02*
D03*
X10921518Y6819127D02*
D03*
X10940000Y7005000D02*
D03*
X9430000Y8020000D02*
D03*
X9480525Y8132827D02*
D03*
X9183551Y7949280D02*
D03*
X10220000Y8250000D02*
D03*
X9080000Y7100000D02*
D03*
X8680000Y7410000D02*
D03*
X10290000Y8470000D02*
D03*
X9069104Y8421406D02*
D03*
X9870000Y7280000D02*
D03*
X9760000D02*
D03*
X9650000D02*
D03*
X9540000D02*
D03*
X9430000D02*
D03*
X9870000Y7390000D02*
D03*
X9760000D02*
D03*
X9650000D02*
D03*
X9540000D02*
D03*
X9430000D02*
D03*
X9870000Y7500000D02*
D03*
X9760000D02*
D03*
X9650000D02*
D03*
X9540000D02*
D03*
X9430000D02*
D03*
X9870000Y7610000D02*
D03*
X9760000D02*
D03*
X9650000D02*
D03*
X9540000D02*
D03*
X9430000D02*
D03*
X9870000Y7720000D02*
D03*
X9760000D02*
D03*
X9650000D02*
D03*
X9540000D02*
D03*
X9430000D02*
D03*
X8996680Y8194820D02*
D03*
Y8084820D02*
D03*
X8886680D02*
D03*
Y8194820D02*
D03*
D43*
X9275180Y8214820D02*
D03*
X9990000Y8350000D02*
D03*
D44*
X8729980Y7891780D02*
D03*
%TF.MD5,21951d0b3b4d946d36e3124340af0e80*%
M02*
