%TF.GenerationSoftware,Altium Limited,Altium Designer,25.4.2 (15)*%
G04 Layer_Color=8388736*
%FSLAX45Y45*%
%MOMM*%
%TF.SameCoordinates,67C836F6-C9C3-4B7B-B257-39D1A88473F1*%
%TF.FilePolarity,Negative*%
%TF.FileFunction,Soldermask,Top*%
%TF.Part,Single*%
G01*
G75*
%TA.AperFunction,SMDPad,CuDef*%
%ADD12R,3.50000X1.25000*%
%ADD13R,1.25000X1.25000*%
%TA.AperFunction,ConnectorPad*%
%ADD17R,1.38000X0.45000*%
%ADD18R,1.55000X1.42500*%
%ADD19R,1.90000X1.00000*%
%ADD20R,1.90000X1.80000*%
%ADD21R,1.30000X1.65000*%
%TA.AperFunction,SMDPad,CuDef*%
%ADD51R,0.85320X1.90320*%
%ADD52R,1.20320X3.10320*%
%ADD53R,5.80320X5.80320*%
%ADD54O,0.45320X1.00320*%
%ADD55O,1.00320X0.45320*%
%ADD56R,2.80320X2.90320*%
%ADD57R,0.55320X1.00320*%
%ADD58R,1.05320X0.55320*%
G04:AMPARAMS|DCode=59|XSize=0.8032mm|YSize=0.9032mm|CornerRadius=0.1766mm|HoleSize=0mm|Usage=FLASHONLY|Rotation=270.000|XOffset=0mm|YOffset=0mm|HoleType=Round|Shape=RoundedRectangle|*
%AMROUNDEDRECTD59*
21,1,0.80320,0.55000,0,0,270.0*
21,1,0.45000,0.90320,0,0,270.0*
1,1,0.35320,-0.27500,-0.22500*
1,1,0.35320,-0.27500,0.22500*
1,1,0.35320,0.27500,0.22500*
1,1,0.35320,0.27500,-0.22500*
%
%ADD59ROUNDEDRECTD59*%
G04:AMPARAMS|DCode=60|XSize=1.6032mm|YSize=1.9032mm|CornerRadius=0.2766mm|HoleSize=0mm|Usage=FLASHONLY|Rotation=180.000|XOffset=0mm|YOffset=0mm|HoleType=Round|Shape=RoundedRectangle|*
%AMROUNDEDRECTD60*
21,1,1.60320,1.35000,0,0,180.0*
21,1,1.05000,1.90320,0,0,180.0*
1,1,0.55320,-0.52500,0.67500*
1,1,0.55320,0.52500,0.67500*
1,1,0.55320,0.52500,-0.67500*
1,1,0.55320,-0.52500,-0.67500*
%
%ADD60ROUNDEDRECTD60*%
G04:AMPARAMS|DCode=61|XSize=1.0032mm|YSize=1.2032mm|CornerRadius=0.2016mm|HoleSize=0mm|Usage=FLASHONLY|Rotation=0.000|XOffset=0mm|YOffset=0mm|HoleType=Round|Shape=RoundedRectangle|*
%AMROUNDEDRECTD61*
21,1,1.00320,0.80000,0,0,0.0*
21,1,0.60000,1.20320,0,0,0.0*
1,1,0.40320,0.30000,-0.40000*
1,1,0.40320,-0.30000,-0.40000*
1,1,0.40320,-0.30000,0.40000*
1,1,0.40320,0.30000,0.40000*
%
%ADD61ROUNDEDRECTD61*%
G04:AMPARAMS|DCode=62|XSize=1.0032mm|YSize=1.2032mm|CornerRadius=0.2016mm|HoleSize=0mm|Usage=FLASHONLY|Rotation=90.000|XOffset=0mm|YOffset=0mm|HoleType=Round|Shape=RoundedRectangle|*
%AMROUNDEDRECTD62*
21,1,1.00320,0.80000,0,0,90.0*
21,1,0.60000,1.20320,0,0,90.0*
1,1,0.40320,0.40000,0.30000*
1,1,0.40320,0.40000,-0.30000*
1,1,0.40320,-0.40000,-0.30000*
1,1,0.40320,-0.40000,0.30000*
%
%ADD62ROUNDEDRECTD62*%
G04:AMPARAMS|DCode=63|XSize=1.6032mm|YSize=1.9032mm|CornerRadius=0.2766mm|HoleSize=0mm|Usage=FLASHONLY|Rotation=270.000|XOffset=0mm|YOffset=0mm|HoleType=Round|Shape=RoundedRectangle|*
%AMROUNDEDRECTD63*
21,1,1.60320,1.35000,0,0,270.0*
21,1,1.05000,1.90320,0,0,270.0*
1,1,0.55320,-0.67500,-0.52500*
1,1,0.55320,-0.67500,0.52500*
1,1,0.55320,0.67500,0.52500*
1,1,0.55320,0.67500,-0.52500*
%
%ADD63ROUNDEDRECTD63*%
G04:AMPARAMS|DCode=64|XSize=0.8032mm|YSize=0.9032mm|CornerRadius=0.1766mm|HoleSize=0mm|Usage=FLASHONLY|Rotation=0.000|XOffset=0mm|YOffset=0mm|HoleType=Round|Shape=RoundedRectangle|*
%AMROUNDEDRECTD64*
21,1,0.80320,0.55000,0,0,0.0*
21,1,0.45000,0.90320,0,0,0.0*
1,1,0.35320,0.22500,-0.27500*
1,1,0.35320,-0.22500,-0.27500*
1,1,0.35320,-0.22500,0.27500*
1,1,0.35320,0.22500,0.27500*
%
%ADD64ROUNDEDRECTD64*%
%TA.AperFunction,BGAPad,CuDef*%
%ADD65C,1.06620*%
%TA.AperFunction,SMDPad,CuDef*%
G04:AMPARAMS|DCode=66|XSize=1.5032mm|YSize=1.3032mm|CornerRadius=0.1566mm|HoleSize=0mm|Usage=FLASHONLY|Rotation=0.000|XOffset=0mm|YOffset=0mm|HoleType=Round|Shape=RoundedRectangle|*
%AMROUNDEDRECTD66*
21,1,1.50320,0.99000,0,0,0.0*
21,1,1.19000,1.30320,0,0,0.0*
1,1,0.31320,0.59500,-0.49500*
1,1,0.31320,-0.59500,-0.49500*
1,1,0.31320,-0.59500,0.49500*
1,1,0.31320,0.59500,0.49500*
%
%ADD66ROUNDEDRECTD66*%
%TA.AperFunction,WasherPad*%
%ADD67C,1.72720*%
%TA.AperFunction,ComponentPad*%
%ADD68C,1.27020*%
%TA.AperFunction,ViaPad*%
%ADD69C,0.80320*%
%ADD70C,0.70320*%
%ADD71C,0.90320*%
%ADD72C,0.75320*%
D12*
X10580000Y6140500D02*
D03*
D13*
X10351000Y6799500D02*
D03*
X10580000D02*
D03*
X10809000D02*
D03*
D17*
X11009000Y7760000D02*
D03*
Y7695000D02*
D03*
Y7630000D02*
D03*
Y7565000D02*
D03*
Y7500000D02*
D03*
D18*
X11017500Y7878750D02*
D03*
Y7381250D02*
D03*
D19*
X11275000Y7785000D02*
D03*
D20*
Y7515000D02*
D03*
D21*
Y7967500D02*
D03*
Y7292500D02*
D03*
D51*
X9047500Y6500000D02*
D03*
X9172500D02*
D03*
X9422500D02*
D03*
X9547500D02*
D03*
X9297500D02*
D03*
X9672500D02*
D03*
D52*
X8862500Y6220000D02*
D03*
X9857500D02*
D03*
D53*
X9650000Y7500000D02*
D03*
D54*
X9375000Y7840000D02*
D03*
X9425000D02*
D03*
X9475000D02*
D03*
X9525000D02*
D03*
X9575000D02*
D03*
X9625000D02*
D03*
X9675000D02*
D03*
X9725000D02*
D03*
X9775000D02*
D03*
X9825000D02*
D03*
X9875000D02*
D03*
X9925000D02*
D03*
Y7160000D02*
D03*
X9875000D02*
D03*
X9825000D02*
D03*
X9775000D02*
D03*
X9725000D02*
D03*
X9675000D02*
D03*
X9625000D02*
D03*
X9575000D02*
D03*
X9525000D02*
D03*
X9475000D02*
D03*
X9425000D02*
D03*
X9375000D02*
D03*
D55*
X9990000Y7775000D02*
D03*
Y7725000D02*
D03*
Y7675000D02*
D03*
Y7625000D02*
D03*
Y7575000D02*
D03*
Y7525000D02*
D03*
Y7475000D02*
D03*
Y7425000D02*
D03*
Y7375000D02*
D03*
Y7325000D02*
D03*
Y7275000D02*
D03*
Y7225000D02*
D03*
X9310000D02*
D03*
Y7275000D02*
D03*
Y7325000D02*
D03*
Y7375000D02*
D03*
Y7425000D02*
D03*
Y7475000D02*
D03*
Y7525000D02*
D03*
Y7575000D02*
D03*
Y7625000D02*
D03*
Y7675000D02*
D03*
Y7725000D02*
D03*
Y7775000D02*
D03*
D56*
X8941680Y8139820D02*
D03*
D57*
X8816680Y7939820D02*
D03*
X8866680D02*
D03*
X8916680D02*
D03*
X8966680D02*
D03*
X9016680D02*
D03*
X9066680D02*
D03*
X8816680Y8339820D02*
D03*
X8866680D02*
D03*
X8916680D02*
D03*
X8966680D02*
D03*
X9016680D02*
D03*
X9066680D02*
D03*
D58*
X9139180Y8014820D02*
D03*
Y8064820D02*
D03*
Y8114820D02*
D03*
Y8164820D02*
D03*
Y8214820D02*
D03*
Y8264820D02*
D03*
X8744180Y8014820D02*
D03*
Y8064820D02*
D03*
Y8114820D02*
D03*
Y8164820D02*
D03*
Y8214820D02*
D03*
Y8264820D02*
D03*
D59*
X11230000Y6660000D02*
D03*
Y6760000D02*
D03*
X9210000Y7840000D02*
D03*
Y7740000D02*
D03*
X11230000Y6380000D02*
D03*
Y6480000D02*
D03*
X10574300Y7335560D02*
D03*
Y7235560D02*
D03*
X10734300Y7335560D02*
D03*
Y7235560D02*
D03*
X9261680Y8059820D02*
D03*
Y7959820D02*
D03*
X8620760Y8271980D02*
D03*
Y8171980D02*
D03*
X8590000Y8090000D02*
D03*
Y7990000D02*
D03*
X9080000Y7190000D02*
D03*
Y7290000D02*
D03*
X9570000Y8040000D02*
D03*
Y8140000D02*
D03*
X9190000Y7330000D02*
D03*
Y7430000D02*
D03*
X10150000Y7840000D02*
D03*
Y7740000D02*
D03*
D60*
X10794300Y7010000D02*
D03*
X10565700D02*
D03*
D61*
X9635000Y7040000D02*
D03*
X9785000D02*
D03*
X10579300Y7445560D02*
D03*
X10729300D02*
D03*
D62*
X9090000Y7685000D02*
D03*
Y7835000D02*
D03*
D63*
X11040000Y6654300D02*
D03*
Y6425700D02*
D03*
D64*
X9650000Y8250000D02*
D03*
X9550000D02*
D03*
X9828060Y8176260D02*
D03*
X9928060D02*
D03*
X10210000Y7140000D02*
D03*
X10110000D02*
D03*
X10210000Y7270000D02*
D03*
X10110000D02*
D03*
X8760000Y7430000D02*
D03*
X8860000D02*
D03*
X10580000Y8370000D02*
D03*
X10480000D02*
D03*
X9050000Y7430000D02*
D03*
X8950000D02*
D03*
X10390000Y8370000D02*
D03*
X10290000D02*
D03*
X9980000Y7060000D02*
D03*
X9880000D02*
D03*
X9350000Y7940000D02*
D03*
X9450000D02*
D03*
D65*
X10256000Y8043000D02*
D03*
X10383000D02*
D03*
X10510000D02*
D03*
X10256000Y8170000D02*
D03*
X10383000D02*
D03*
X10510000D02*
D03*
D66*
X8955000Y7115000D02*
D03*
Y7305000D02*
D03*
X8725000Y7115000D02*
D03*
Y7305000D02*
D03*
D67*
X8452500Y8450000D02*
D03*
X11257500Y6025000D02*
D03*
X11255000Y8445000D02*
D03*
X8465000Y6012500D02*
D03*
D68*
X10129000Y8208100D02*
D03*
Y8004900D02*
D03*
X10637000Y8106500D02*
D03*
D69*
X10017500Y7832500D02*
D03*
X9945000Y8107500D02*
D03*
X9732344Y8177196D02*
D03*
X9184748Y7510000D02*
D03*
X8495000Y8080000D02*
D03*
X8492500Y7995000D02*
D03*
X9680000Y6630000D02*
D03*
X9640000Y6920000D02*
D03*
X10240000Y7740000D02*
D03*
X10830000Y7750000D02*
D03*
X9390000Y8140000D02*
D03*
X9460000Y8280000D02*
D03*
Y8420000D02*
D03*
D70*
X9009018Y7694127D02*
D03*
X9037500Y7515000D02*
D03*
X10109018Y7071627D02*
D03*
X9881518Y6991627D02*
D03*
X10640000Y7177500D02*
D03*
X10739018Y7169127D02*
D03*
X11156518Y6761627D02*
D03*
X11036518D02*
D03*
X10921518Y6819127D02*
D03*
X10940000Y7005000D02*
D03*
X9430000Y8020000D02*
D03*
X9480525Y8132827D02*
D03*
X9183551Y7949280D02*
D03*
X10220000Y8250000D02*
D03*
X9080000Y7100000D02*
D03*
X8680000Y7410000D02*
D03*
X10290000Y8470000D02*
D03*
X9069104Y8421406D02*
D03*
X9870000Y7280000D02*
D03*
X9760000D02*
D03*
X9650000D02*
D03*
X9540000D02*
D03*
X9430000D02*
D03*
X9870000Y7390000D02*
D03*
X9760000D02*
D03*
X9650000D02*
D03*
X9540000D02*
D03*
X9430000D02*
D03*
X9870000Y7500000D02*
D03*
X9760000D02*
D03*
X9650000D02*
D03*
X9540000D02*
D03*
X9430000D02*
D03*
X9870000Y7610000D02*
D03*
X9760000D02*
D03*
X9650000D02*
D03*
X9540000D02*
D03*
X9430000D02*
D03*
X9870000Y7720000D02*
D03*
X9760000D02*
D03*
X9650000D02*
D03*
X9540000D02*
D03*
X9430000D02*
D03*
X8996680Y8194820D02*
D03*
Y8084820D02*
D03*
X8886680D02*
D03*
Y8194820D02*
D03*
D71*
X9275180Y8214820D02*
D03*
X9990000Y8350000D02*
D03*
D72*
X8729980Y7891780D02*
D03*
%TF.MD5,216f9e8c8f2ad82c50d5eec6bb49c407*%
M02*
