%TF.GenerationSoftware,Altium Limited,Altium Designer,25.4.2 (15)*%
G04 Layer_Physical_Order=1*
G04 Layer_Color=255*
%FSLAX45Y45*%
%MOMM*%
%TF.SameCoordinates,67C836F6-C9C3-4B7B-B257-39D1A88473F1*%
%TF.FilePolarity,Positive*%
%TF.FileFunction,Copper,L1,Top,Signal*%
%TF.Part,Single*%
G01*
G75*
%TA.AperFunction,SMDPad,CuDef*%
%ADD10R,0.65000X1.70000*%
%ADD11R,1.00000X2.90000*%
%ADD12R,3.50000X1.25000*%
%ADD13R,1.25000X1.25000*%
%ADD14R,5.60000X5.60000*%
%ADD15O,0.25000X0.80000*%
%ADD16O,0.80000X0.25000*%
%TA.AperFunction,ConnectorPad*%
%ADD17R,1.38000X0.45000*%
%ADD18R,1.55000X1.42500*%
%ADD19R,1.90000X1.00000*%
%ADD20R,1.90000X1.80000*%
%ADD21R,1.30000X1.65000*%
%TA.AperFunction,SMDPad,CuDef*%
%ADD22R,2.60000X2.70000*%
%ADD23R,0.35000X0.80000*%
%ADD24R,0.85000X0.35000*%
G04:AMPARAMS|DCode=25|XSize=0.6mm|YSize=0.7mm|CornerRadius=0.075mm|HoleSize=0mm|Usage=FLASHONLY|Rotation=270.000|XOffset=0mm|YOffset=0mm|HoleType=Round|Shape=RoundedRectangle|*
%AMROUNDEDRECTD25*
21,1,0.60000,0.55000,0,0,270.0*
21,1,0.45000,0.70000,0,0,270.0*
1,1,0.15000,-0.27500,-0.22500*
1,1,0.15000,-0.27500,0.22500*
1,1,0.15000,0.27500,0.22500*
1,1,0.15000,0.27500,-0.22500*
%
%ADD25ROUNDEDRECTD25*%
G04:AMPARAMS|DCode=26|XSize=1.4mm|YSize=1.7mm|CornerRadius=0.175mm|HoleSize=0mm|Usage=FLASHONLY|Rotation=180.000|XOffset=0mm|YOffset=0mm|HoleType=Round|Shape=RoundedRectangle|*
%AMROUNDEDRECTD26*
21,1,1.40000,1.35000,0,0,180.0*
21,1,1.05000,1.70000,0,0,180.0*
1,1,0.35000,-0.52500,0.67500*
1,1,0.35000,0.52500,0.67500*
1,1,0.35000,0.52500,-0.67500*
1,1,0.35000,-0.52500,-0.67500*
%
%ADD26ROUNDEDRECTD26*%
G04:AMPARAMS|DCode=27|XSize=0.8mm|YSize=1mm|CornerRadius=0.1mm|HoleSize=0mm|Usage=FLASHONLY|Rotation=0.000|XOffset=0mm|YOffset=0mm|HoleType=Round|Shape=RoundedRectangle|*
%AMROUNDEDRECTD27*
21,1,0.80000,0.80000,0,0,0.0*
21,1,0.60000,1.00000,0,0,0.0*
1,1,0.20000,0.30000,-0.40000*
1,1,0.20000,-0.30000,-0.40000*
1,1,0.20000,-0.30000,0.40000*
1,1,0.20000,0.30000,0.40000*
%
%ADD27ROUNDEDRECTD27*%
G04:AMPARAMS|DCode=28|XSize=0.8mm|YSize=1mm|CornerRadius=0.1mm|HoleSize=0mm|Usage=FLASHONLY|Rotation=90.000|XOffset=0mm|YOffset=0mm|HoleType=Round|Shape=RoundedRectangle|*
%AMROUNDEDRECTD28*
21,1,0.80000,0.80000,0,0,90.0*
21,1,0.60000,1.00000,0,0,90.0*
1,1,0.20000,0.40000,0.30000*
1,1,0.20000,0.40000,-0.30000*
1,1,0.20000,-0.40000,-0.30000*
1,1,0.20000,-0.40000,0.30000*
%
%ADD28ROUNDEDRECTD28*%
G04:AMPARAMS|DCode=29|XSize=1.4mm|YSize=1.7mm|CornerRadius=0.175mm|HoleSize=0mm|Usage=FLASHONLY|Rotation=270.000|XOffset=0mm|YOffset=0mm|HoleType=Round|Shape=RoundedRectangle|*
%AMROUNDEDRECTD29*
21,1,1.40000,1.35000,0,0,270.0*
21,1,1.05000,1.70000,0,0,270.0*
1,1,0.35000,-0.67500,-0.52500*
1,1,0.35000,-0.67500,0.52500*
1,1,0.35000,0.67500,0.52500*
1,1,0.35000,0.67500,-0.52500*
%
%ADD29ROUNDEDRECTD29*%
G04:AMPARAMS|DCode=30|XSize=0.6mm|YSize=0.7mm|CornerRadius=0.075mm|HoleSize=0mm|Usage=FLASHONLY|Rotation=0.000|XOffset=0mm|YOffset=0mm|HoleType=Round|Shape=RoundedRectangle|*
%AMROUNDEDRECTD30*
21,1,0.60000,0.55000,0,0,0.0*
21,1,0.45000,0.70000,0,0,0.0*
1,1,0.15000,0.22500,-0.27500*
1,1,0.15000,-0.22500,-0.27500*
1,1,0.15000,-0.22500,0.27500*
1,1,0.15000,0.22500,0.27500*
%
%ADD30ROUNDEDRECTD30*%
%TA.AperFunction,BGAPad,CuDef*%
%ADD31C,0.86300*%
%TA.AperFunction,SMDPad,CuDef*%
G04:AMPARAMS|DCode=32|XSize=1.3mm|YSize=1.1mm|CornerRadius=0.055mm|HoleSize=0mm|Usage=FLASHONLY|Rotation=0.000|XOffset=0mm|YOffset=0mm|HoleType=Round|Shape=RoundedRectangle|*
%AMROUNDEDRECTD32*
21,1,1.30000,0.99000,0,0,0.0*
21,1,1.19000,1.10000,0,0,0.0*
1,1,0.11000,0.59500,-0.49500*
1,1,0.11000,-0.59500,-0.49500*
1,1,0.11000,-0.59500,0.49500*
1,1,0.11000,0.59500,0.49500*
%
%ADD32ROUNDEDRECTD32*%
%TA.AperFunction,Conductor*%
%ADD33C,0.40000*%
%ADD34C,0.20000*%
%ADD35C,0.25000*%
%ADD36C,0.50000*%
%ADD37C,0.30000*%
%ADD38C,0.26017*%
%TA.AperFunction,WasherPad*%
%ADD39C,1.52400*%
%TA.AperFunction,ComponentPad*%
%ADD40C,1.06700*%
%TA.AperFunction,ViaPad*%
%ADD41C,0.60000*%
%ADD42C,0.50000*%
%ADD43C,0.70000*%
%ADD44C,0.55000*%
G36*
X10920000Y7522500D02*
X11083000D01*
X11084560Y7520940D01*
Y7477760D01*
X11079300Y7472500D01*
X10920000D01*
Y7470140D01*
X10797540D01*
X10782300Y7454900D01*
Y7292340D01*
X10670540D01*
Y7528560D01*
X10920000D01*
Y7522500D01*
D02*
G37*
G36*
X11287500Y6787500D02*
Y6725000D01*
X11275000Y6712500D01*
X11252503D01*
X11247342Y6732500D01*
X11253431Y6736569D01*
X11260614Y6747319D01*
X11263136Y6760000D01*
X11260614Y6772681D01*
X11253431Y6783431D01*
X11238214Y6798648D01*
X11227464Y6805831D01*
X11214783Y6808353D01*
X11202102Y6805831D01*
X11191352Y6798648D01*
X11186511Y6791401D01*
X11160608D01*
X11156518Y6792215D01*
X11144812Y6789887D01*
X11134889Y6783256D01*
X11128258Y6773333D01*
X11125930Y6761627D01*
X11128258Y6749922D01*
X11134889Y6739998D01*
X11135702Y6739186D01*
X11135702Y6739185D01*
X11145626Y6732554D01*
X11148670Y6731949D01*
X11150000Y6712500D01*
X11150000Y6711292D01*
Y6597500D01*
X11117500Y6565000D01*
X10957500D01*
X10937500Y6585000D01*
Y6737500D01*
X10740000D01*
Y6887500D01*
X10707500Y6920000D01*
Y7100000D01*
X10670053Y7137446D01*
X10665899Y7146533D01*
X10665336Y7161419D01*
X10668259Y7165795D01*
X10670588Y7177500D01*
X10668259Y7189205D01*
X10661629Y7199129D01*
X10653674Y7204444D01*
X10610618Y7247500D01*
X10618902Y7267500D01*
X10695507D01*
X10706198Y7247500D01*
X10706041Y7247265D01*
X10703712Y7235560D01*
X10706041Y7223854D01*
X10706071Y7223809D01*
Y7171488D01*
X10706071Y7171486D01*
X10708399Y7159781D01*
X10715030Y7149857D01*
X10717389Y7147499D01*
X10727312Y7140868D01*
X10739018Y7138539D01*
X10750723Y7140868D01*
X10760646Y7147499D01*
X10767277Y7157422D01*
X10769606Y7169127D01*
X10767277Y7180833D01*
X10767246Y7180878D01*
Y7233201D01*
X10764918Y7244907D01*
X10763185Y7247500D01*
X10764326Y7252604D01*
X10772171Y7266754D01*
X10773039Y7267500D01*
X10807499D01*
X11287500Y6787500D01*
D02*
G37*
G36*
X10632440Y7505700D02*
Y7302500D01*
X10619740Y7289800D01*
X10452100D01*
Y7127240D01*
X10629900D01*
X10662920Y7094220D01*
Y6903720D01*
X10429240D01*
X10426700Y6906260D01*
Y6720840D01*
X10289540D01*
X10274300Y6736080D01*
Y7340600D01*
X10294620Y7358380D01*
X10520680D01*
Y7508240D01*
X10530840Y7518400D01*
X10619740D01*
X10632440Y7505700D01*
D02*
G37*
G36*
X10652760Y6860540D02*
Y6542540D01*
X10652759Y6535419D01*
X10662920Y6525259D01*
X10665460Y6527799D01*
X10669604Y6527800D01*
X11109960D01*
X11145520Y6492240D01*
Y6428740D01*
X11148060Y6426200D01*
X11269980D01*
X11285220Y6410960D01*
Y6350000D01*
X11272520Y6337300D01*
X10668000D01*
Y6306820D01*
X10769600Y6205220D01*
Y6080760D01*
X10751704Y6075680D01*
X10665882D01*
Y6103000D01*
X10662389Y6120558D01*
X10652443Y6135443D01*
X10614943Y6172943D01*
X10600058Y6182889D01*
X10582500Y6186382D01*
X10580000D01*
X10562442Y6182889D01*
X10547557Y6172943D01*
X10537611Y6158058D01*
X10534118Y6140500D01*
X10537611Y6122942D01*
X10547557Y6108057D01*
X10555091Y6103023D01*
X10562434Y6095680D01*
X10554149Y6075680D01*
X10393680D01*
Y6202680D01*
X10500360Y6309360D01*
Y6852920D01*
X10528300Y6880860D01*
X10632440D01*
X10652760Y6860540D01*
D02*
G37*
%LPC*%
G36*
X10794300Y7040588D02*
X10782595Y7038259D01*
X10772671Y7031629D01*
X10766041Y7021705D01*
X10763712Y7010000D01*
X10766041Y6998295D01*
X10772671Y6988371D01*
X10777671Y6983372D01*
X10777671Y6983371D01*
X10787595Y6976741D01*
X10799300Y6974412D01*
X10799301Y6974412D01*
X10940000D01*
X10951705Y6976741D01*
X10961629Y6983371D01*
X10968259Y6993295D01*
X10970588Y7005000D01*
X10968259Y7016705D01*
X10961629Y7026629D01*
X10951705Y7033259D01*
X10940000Y7035588D01*
X10810004D01*
X10806005Y7038259D01*
X10794300Y7040588D01*
D02*
G37*
G36*
X10828627Y6849715D02*
X10816922Y6847387D01*
X10806998Y6840756D01*
X10806998Y6840755D01*
X10796866Y6830623D01*
X10796819Y6830614D01*
X10786069Y6823431D01*
X10785569Y6822931D01*
X10778386Y6812181D01*
X10775864Y6799500D01*
X10778386Y6786819D01*
X10785569Y6776069D01*
X10796319Y6768886D01*
X10809000Y6766364D01*
X10821681Y6768886D01*
X10822003Y6769101D01*
X10822706Y6769241D01*
X10832629Y6775871D01*
X10839259Y6785794D01*
X10839329Y6786144D01*
X10840114Y6787319D01*
X10840123Y6787366D01*
X10841297Y6788540D01*
X10921518D01*
X10933223Y6790868D01*
X10943147Y6797498D01*
X10949777Y6807422D01*
X10952105Y6819127D01*
X10949777Y6830833D01*
X10943147Y6840756D01*
X10933223Y6847387D01*
X10921518Y6849715D01*
X10828629D01*
X10828627Y6849715D01*
D02*
G37*
G36*
X11036518Y6792215D02*
X11024812Y6789887D01*
X11014889Y6783256D01*
X11008258Y6773333D01*
X11005930Y6761627D01*
Y6657783D01*
X11005930Y6657782D01*
X11008258Y6646077D01*
X11014889Y6636153D01*
X11018371Y6632671D01*
X11028295Y6626041D01*
X11040000Y6623712D01*
X11051705Y6626041D01*
X11061629Y6632671D01*
X11068259Y6642595D01*
X11070588Y6654300D01*
X11068259Y6666005D01*
X11067105Y6667732D01*
Y6761627D01*
X11064777Y6773333D01*
X11058147Y6783256D01*
X11048223Y6789887D01*
X11036518Y6792215D01*
D02*
G37*
%LPD*%
D10*
X9047500Y6500000D02*
D03*
X9172500D02*
D03*
X9422500D02*
D03*
X9547500D02*
D03*
X9297500D02*
D03*
X9672500D02*
D03*
D11*
X8862500Y6220000D02*
D03*
X9857500D02*
D03*
D12*
X10580000Y6140500D02*
D03*
D13*
X10351000Y6799500D02*
D03*
X10580000D02*
D03*
X10809000D02*
D03*
D14*
X9650000Y7500000D02*
D03*
D15*
X9375000Y7840000D02*
D03*
X9425000D02*
D03*
X9475000D02*
D03*
X9525000D02*
D03*
X9575000D02*
D03*
X9625000D02*
D03*
X9675000D02*
D03*
X9725000D02*
D03*
X9775000D02*
D03*
X9825000D02*
D03*
X9875000D02*
D03*
X9925000D02*
D03*
Y7160000D02*
D03*
X9875000D02*
D03*
X9825000D02*
D03*
X9775000D02*
D03*
X9725000D02*
D03*
X9675000D02*
D03*
X9625000D02*
D03*
X9575000D02*
D03*
X9525000D02*
D03*
X9475000D02*
D03*
X9425000D02*
D03*
X9375000D02*
D03*
D16*
X9990000Y7775000D02*
D03*
Y7725000D02*
D03*
Y7675000D02*
D03*
Y7625000D02*
D03*
Y7575000D02*
D03*
Y7525000D02*
D03*
Y7475000D02*
D03*
Y7425000D02*
D03*
Y7375000D02*
D03*
Y7325000D02*
D03*
Y7275000D02*
D03*
Y7225000D02*
D03*
X9310000D02*
D03*
Y7275000D02*
D03*
Y7325000D02*
D03*
Y7375000D02*
D03*
Y7425000D02*
D03*
Y7475000D02*
D03*
Y7525000D02*
D03*
Y7575000D02*
D03*
Y7625000D02*
D03*
Y7675000D02*
D03*
Y7725000D02*
D03*
Y7775000D02*
D03*
D17*
X11009000Y7760000D02*
D03*
Y7695000D02*
D03*
Y7630000D02*
D03*
Y7565000D02*
D03*
Y7500000D02*
D03*
D18*
X11017500Y7878750D02*
D03*
Y7381250D02*
D03*
D19*
X11275000Y7785000D02*
D03*
D20*
Y7515000D02*
D03*
D21*
Y7967500D02*
D03*
Y7292500D02*
D03*
D22*
X8941680Y8139820D02*
D03*
D23*
X8816680Y7939820D02*
D03*
X8866680D02*
D03*
X8916680D02*
D03*
X8966680D02*
D03*
X9016680D02*
D03*
X9066680D02*
D03*
X8816680Y8339820D02*
D03*
X8866680D02*
D03*
X8916680D02*
D03*
X8966680D02*
D03*
X9016680D02*
D03*
X9066680D02*
D03*
D24*
X9139180Y8014820D02*
D03*
Y8064820D02*
D03*
Y8114820D02*
D03*
Y8164820D02*
D03*
Y8214820D02*
D03*
Y8264820D02*
D03*
X8744180Y8014820D02*
D03*
Y8064820D02*
D03*
Y8114820D02*
D03*
Y8164820D02*
D03*
Y8214820D02*
D03*
Y8264820D02*
D03*
D25*
X11230000Y6660000D02*
D03*
Y6760000D02*
D03*
X9210000Y7840000D02*
D03*
Y7740000D02*
D03*
X11230000Y6380000D02*
D03*
Y6480000D02*
D03*
X10574300Y7335560D02*
D03*
Y7235560D02*
D03*
X10734300Y7335560D02*
D03*
Y7235560D02*
D03*
X9261680Y8059820D02*
D03*
Y7959820D02*
D03*
X8620760Y8271980D02*
D03*
Y8171980D02*
D03*
X8590000Y8090000D02*
D03*
Y7990000D02*
D03*
X9080000Y7190000D02*
D03*
Y7290000D02*
D03*
X9570000Y8040000D02*
D03*
Y8140000D02*
D03*
X9190000Y7330000D02*
D03*
Y7430000D02*
D03*
X10150000Y7840000D02*
D03*
Y7740000D02*
D03*
D26*
X10794300Y7010000D02*
D03*
X10565700D02*
D03*
D27*
X9635000Y7040000D02*
D03*
X9785000D02*
D03*
X10579300Y7445560D02*
D03*
X10729300D02*
D03*
D28*
X9090000Y7685000D02*
D03*
Y7835000D02*
D03*
D29*
X11040000Y6654300D02*
D03*
Y6425700D02*
D03*
D30*
X9650000Y8250000D02*
D03*
X9550000D02*
D03*
X9828060Y8176260D02*
D03*
X9928060D02*
D03*
X10210000Y7140000D02*
D03*
X10110000D02*
D03*
X10210000Y7270000D02*
D03*
X10110000D02*
D03*
X8760000Y7430000D02*
D03*
X8860000D02*
D03*
X10580000Y8370000D02*
D03*
X10480000D02*
D03*
X9050000Y7430000D02*
D03*
X8950000D02*
D03*
X10390000Y8370000D02*
D03*
X10290000D02*
D03*
X9980000Y7060000D02*
D03*
X9880000D02*
D03*
X9350000Y7940000D02*
D03*
X9450000D02*
D03*
D31*
X10256000Y8043000D02*
D03*
X10383000D02*
D03*
X10510000D02*
D03*
X10256000Y8170000D02*
D03*
X10383000D02*
D03*
X10510000D02*
D03*
D32*
X8955000Y7115000D02*
D03*
Y7305000D02*
D03*
X8725000Y7115000D02*
D03*
Y7305000D02*
D03*
D33*
X10370500Y6590000D02*
X10580000Y6799500D01*
X10070000Y6590000D02*
X10370500D01*
X9460000Y8420000D02*
Y8500000D01*
X9670000D01*
X10580000Y8370000D02*
Y8511568D01*
X10556569Y8535000D02*
X10580000Y8511568D01*
X10010962Y8535000D02*
X10556569D01*
X9975962Y8500000D02*
X10010962Y8535000D01*
X9670000Y8500000D02*
X9975962D01*
X9920000Y8184320D02*
X9928060Y8176260D01*
X9920000Y8184320D02*
Y8250000D01*
X9670000Y8500000D02*
X9920000Y8250000D01*
X8643432Y8500000D02*
X9460000D01*
X8620000Y8476569D02*
X8643432Y8500000D01*
X8620000Y8350000D02*
Y8476569D01*
X8570000Y6619290D02*
X8689289Y6500000D01*
X8570000Y6619290D02*
Y7666569D01*
X8593431Y7690000D01*
X8742500D01*
X8887500Y7835000D01*
X9090000D01*
X9980000Y6680000D02*
X10070000Y6590000D01*
X9980000Y6680000D02*
Y6960000D01*
X9090000Y7835000D02*
X9092500Y7837500D01*
X9207500D01*
X9210000Y7840000D01*
X9301480Y7782500D02*
Y7797800D01*
X9280340Y7818940D02*
X9301480Y7797800D01*
X9280340Y7818940D02*
Y7830000D01*
X9220000D02*
X9280340D01*
X9210000Y7840000D02*
X9220000Y7830000D01*
X10140000D02*
X10150000Y7840000D01*
X10080000Y7810000D02*
X10100000Y7830000D01*
X10140000D01*
D34*
X10146250Y7836250D02*
X10150000Y7840000D01*
X10021250Y7836250D02*
X10146250D01*
X10017500Y7832500D02*
X10021250Y7836250D01*
X9937346Y8115153D02*
X9945000Y8107500D01*
X9937346Y8115153D02*
Y8166974D01*
X9928060Y8176260D02*
X9937346Y8166974D01*
X9009018Y7694127D02*
X9080873D01*
X9090000Y7685000D01*
X10109018Y7071627D02*
X10109509Y7072118D01*
Y7139509D01*
X10110000Y7140000D01*
X9880759Y6992386D02*
X9881518Y6991627D01*
X9880759Y6992386D02*
Y7059241D01*
X9880000Y7060000D02*
X9880759Y7059241D01*
X11214783Y6770597D02*
Y6775217D01*
X11205000Y6760814D02*
X11214783Y6770597D01*
X11157331Y6760814D02*
X11205000D01*
X11156518Y6761627D02*
X11157331Y6760814D01*
X11036518Y6657782D02*
X11040000Y6654300D01*
X11036518Y6657782D02*
Y6761627D01*
X10809000Y6799500D02*
X10828627Y6819127D01*
X10921518D01*
X10799300Y7005000D02*
X10940000D01*
X10794300Y7010000D02*
X10799300Y7005000D01*
X10736659Y7171486D02*
X10739018Y7169127D01*
X10736659Y7171486D02*
Y7233201D01*
X10734300Y7235560D02*
X10736659Y7233201D01*
X10637360Y7177500D02*
X10640000D01*
X10579300Y7235560D02*
X10637360Y7177500D01*
X9037500Y7515000D02*
X9043240Y7509260D01*
X9091358D01*
X9150618Y7450000D01*
X9170000D01*
X9190000Y7430000D01*
X9184748Y7510000D02*
X9192402Y7502347D01*
X9220686D02*
X9248032Y7475000D01*
X9192402Y7502347D02*
X9220686D01*
X9248032Y7475000D02*
X9310000D01*
X9209601Y7570000D02*
X9253644Y7525957D01*
X8860000Y7598284D02*
X8871716Y7610000D01*
X9237396D02*
X9264896Y7582500D01*
X8981716Y7570000D02*
X9209601D01*
X8871716Y7610000D02*
X9237396D01*
X8970000Y7558284D02*
X8981716Y7570000D01*
X10794300Y7010000D02*
X10796800Y7007500D01*
X8492500Y7995000D02*
X8495000Y7992500D01*
X8587500D01*
X8590000Y7990000D01*
X10809000Y6799500D02*
X10811000Y6797500D01*
X9680000Y6507500D02*
Y6630000D01*
X9672500Y6500000D02*
X9680000Y6507500D01*
X9640000Y6920000D02*
Y7035000D01*
X9635000Y7040000D02*
X9640000Y7035000D01*
X10150000Y7740000D02*
X10240000D01*
X10574300Y7235560D02*
X10579300D01*
X10830000Y7750000D02*
X10835000Y7755000D01*
X11004000D01*
X11009000Y7760000D01*
X9425000Y7840000D02*
Y7868853D01*
X9431147Y7875000D01*
Y7921147D01*
X9450000Y7940000D01*
X9430000Y8014426D02*
Y8020000D01*
Y8014426D02*
X9450000Y7994426D01*
Y7940000D02*
Y7994426D01*
X9066680Y8339820D02*
X9067892Y8341032D01*
Y8420194D01*
X9069104Y8421406D01*
X9490193Y8250000D02*
X9550000D01*
X9460193Y8280000D02*
X9490193Y8250000D01*
X9460000Y8280000D02*
X9460193D01*
X9990000Y8350000D02*
X10206967D01*
X10251967Y8305000D02*
X10306200D01*
X10206967Y8350000D02*
X10251967Y8305000D01*
X10306200D02*
X10318100Y8293100D01*
X8669820Y8064820D02*
X8744180D01*
X8595000Y7990000D02*
X8669820Y8064820D01*
X8590000Y8090000D02*
X8603188Y8103188D01*
X8655000D01*
X8666633Y8114820D01*
X8744180D01*
X10318100Y8234900D02*
X10383000Y8170000D01*
X10318100Y8234900D02*
Y8293100D01*
X8860000Y7430000D02*
X8860000Y7430000D01*
Y7598284D01*
X10383000Y8170000D02*
X10386500Y8173500D01*
Y8366500D01*
X10390000Y8370000D01*
X10480000D01*
X9547500Y6500000D02*
X9565000Y6517500D01*
Y7096568D01*
X9574043Y7105612D01*
Y7159044D01*
X9575000Y7160000D01*
X9420000Y6502500D02*
X9422500Y6500000D01*
X9420000Y6502500D02*
Y6840000D01*
X9525000Y6945000D01*
Y7160000D01*
X9297500Y6500000D02*
Y6857500D01*
X9475000Y7035000D01*
Y7160000D01*
X9297500Y6500000D02*
X9300000Y6502500D01*
X9425000Y7086716D02*
Y7160000D01*
X9250000Y7070000D02*
X9408284D01*
X9425000Y7086716D01*
X9172500Y6992500D02*
X9250000Y7070000D01*
X9172500Y6500000D02*
Y6992500D01*
X8970000Y7430000D02*
Y7558284D01*
X9264896Y7582500D02*
X9273647D01*
X9281147Y7575000D02*
X9310000D01*
X9273647Y7582500D02*
X9281147Y7575000D01*
X9253644Y7525957D02*
X9309043D01*
X9310000Y7525000D01*
X8725000Y7115000D02*
X8735000D01*
X8860000Y7240000D01*
Y7430000D01*
D35*
X9925000Y7840000D02*
Y7867500D01*
X9976550Y7919050D01*
X10259050D01*
X9732812Y8176728D02*
X9827592D01*
X9828060Y8176260D01*
X9732344Y8177196D02*
X9732812Y8176728D01*
X8392500Y7890931D02*
Y8069761D01*
X8557219Y8234480D01*
X8495000Y8089471D02*
X8522500Y8116971D01*
Y8129068D02*
X8548260Y8154828D01*
X8495000Y8080000D02*
Y8089471D01*
X8522500Y8116971D02*
Y8129068D01*
X9183551Y7959820D02*
X9189308Y7954063D01*
X9071680Y7949280D02*
X9183551D01*
X9390000Y8140000D02*
X9392035D01*
X9502500Y8029535D01*
X9255924Y7954063D02*
X9261680Y7959820D01*
X9189308Y7954063D02*
X9255924D01*
X9484112Y8136413D02*
X9566413D01*
X9066680Y7944280D02*
X9071680Y7949280D01*
X9480525Y8132827D02*
X9484112Y8136413D01*
X9566413D02*
X9570000Y8140000D01*
X9066680Y7939820D02*
Y7944280D01*
X9502500Y8000932D02*
Y8029535D01*
X9525000Y7840000D02*
Y7978431D01*
X9502500Y8000932D02*
X9525000Y7978431D01*
X9504808Y8323580D02*
X9635355D01*
X9415192D02*
X9434112Y8342500D01*
X9485888D02*
X9504808Y8323580D01*
X9222940D02*
X9415192D01*
X9434112Y8342500D02*
X9485888D01*
X9164180Y8264820D02*
X9222940Y8323580D01*
X9635355D02*
X9650000Y8308935D01*
X9139180Y8214820D02*
X9275180D01*
X8620000Y8350000D02*
X8620760Y8349240D01*
Y8271980D02*
Y8349240D01*
X9139180Y8264820D02*
X9164180D01*
X10220000Y8250000D02*
X10224783Y8245217D01*
Y8217804D02*
Y8245217D01*
Y8217804D02*
X10256000Y8186588D01*
Y8170000D02*
Y8186588D01*
X10290000Y8370000D02*
Y8470000D01*
X11214783Y6775217D02*
X11230000Y6760000D01*
X10809000Y6799500D02*
X10809500Y6800000D01*
X8548260Y8154828D02*
X8603608D01*
X8620760Y8171980D01*
X8557219Y8234480D02*
X8578260D01*
X8615760Y8271980D01*
X8620760D02*
X8638260Y8254480D01*
X8615760Y8271980D02*
X8620760D01*
X8392500Y7890931D02*
X8593431Y7690000D01*
X9375000Y7840000D02*
Y7867500D01*
X9364645D02*
X9375000D01*
X9350000Y7882145D02*
X9364645Y7867500D01*
X9350000Y7882145D02*
Y7940000D01*
X9375000Y7830000D02*
Y7840000D01*
X9280340Y7830000D02*
X9375000D01*
X8680000Y7347500D02*
Y7410000D01*
Y7347500D02*
X8722500Y7305000D01*
X8725000D01*
X8680000Y7410000D02*
X8686193D01*
X8706193Y7430000D01*
X8760000D01*
X8955000Y7115000D02*
X8970000Y7100000D01*
X9080000D01*
Y7190000D01*
X11230000Y6480000D02*
Y6660000D01*
X9785000Y7040000D02*
X9812500Y7067500D01*
Y7106361D01*
X9825000Y7118861D01*
Y7160000D01*
X10034610Y8090750D02*
X10191662D01*
X9825000Y7881140D02*
X10034610Y8090750D01*
X10191662D02*
X10239412Y8043000D01*
X9675000Y7884792D02*
X9828060Y8037852D01*
X9047379Y6622843D02*
X9047500Y6622722D01*
Y6500000D02*
Y6622722D01*
X8734980Y8014820D02*
X8744180D01*
X8729980Y8009820D02*
X8734980Y8014820D01*
X8729980Y7891780D02*
Y8009820D01*
X9640000Y7998639D02*
Y8240000D01*
X9828060Y8037852D02*
Y8176260D01*
X9650000Y8250000D02*
Y8308935D01*
X9640000Y8240000D02*
X9650000Y8250000D01*
X9625000Y7983639D02*
X9640000Y7998639D01*
X9675000Y7840000D02*
Y7884792D01*
X8620760Y8171980D02*
X8627920Y8164820D01*
X8744180D01*
X8638260Y8254480D02*
X8644828D01*
X8684489Y8214820D01*
X8744180D01*
X8744180Y8214820D01*
X9100000Y7685000D02*
X9127500Y7712500D01*
Y7722500D01*
X9145000Y7740000D01*
X9210000D01*
X9139180Y8064820D02*
X9139180Y8064820D01*
X9195142D01*
X9200142Y8059820D01*
X9261680D01*
X10210000Y7140000D02*
Y7270000D01*
X10105000Y7275000D02*
X10110000Y7270000D01*
X9990000Y7275000D02*
X10105000D01*
X9570000Y8040000D02*
X9575000Y8035000D01*
Y7840000D02*
Y8035000D01*
X9625000Y7840000D02*
Y7983639D01*
X10239412Y8043000D02*
X10256000D01*
X9825000Y7840000D02*
Y7881140D01*
X10259050Y7919050D02*
X10383000Y8043000D01*
X10500000Y8033000D02*
X10510000Y8043000D01*
X10500000Y7770000D02*
Y8033000D01*
X10405000Y7675000D02*
X10500000Y7770000D01*
X9990000Y7675000D02*
X10405000D01*
X9990000Y7725000D02*
X10135000D01*
X10150000Y7740000D01*
X9990000Y7775000D02*
X10045000D01*
X10050000Y7780000D01*
X9190000Y7430000D02*
X9195000Y7425000D01*
X9310000D01*
X9245000Y7375000D02*
X9310000D01*
X9237500Y7367500D02*
X9245000Y7375000D01*
X9232500Y7367500D02*
X9237500D01*
X9195000Y7330000D02*
X9232500Y7367500D01*
X9875000Y7115000D02*
X9880000Y7110000D01*
X9875000Y7115000D02*
Y7160000D01*
X9925000Y7160000D02*
X9960000D01*
X9925000D02*
Y7160000D01*
D36*
X8689289Y6500000D02*
X9047500D01*
X8660000Y6470710D02*
X8689289Y6500000D01*
X8660000Y6080000D02*
Y6470710D01*
Y6080000D02*
X8830000Y5910000D01*
X10590711D01*
X10620000Y5939290D01*
Y6103000D01*
X10582500Y6140500D02*
X10620000Y6103000D01*
X10580000Y6140500D02*
X10582500D01*
D37*
X9980000Y6960000D02*
Y7060000D01*
X10510000Y8170000D02*
X10580000Y8240000D01*
Y8370000D01*
X9050000Y7425000D02*
Y7430000D01*
Y7425000D02*
X9080000Y7395000D01*
Y7290000D02*
Y7395000D01*
X8955000Y7305000D02*
X8970000Y7290000D01*
X9080000D01*
X9180000Y7330000D02*
X9190000Y7320000D01*
Y7073639D02*
Y7320000D01*
X9047379Y6931019D02*
X9190000Y7073639D01*
X9047379Y6622843D02*
Y6931019D01*
X10050000Y7780000D02*
X10080000Y7810000D01*
X9880000Y7060000D02*
Y7110000D01*
X9980000Y7060000D02*
Y7140000D01*
X9960000Y7160000D02*
X9980000Y7140000D01*
D38*
X10018314Y7623169D02*
X10493503D01*
X10016483Y7625000D02*
X10018314Y7623169D01*
X10016483Y7575000D02*
X10018314Y7576832D01*
X10474309D01*
X9990000Y7575000D02*
X10016483D01*
X10999668Y7574332D02*
X11009000Y7565000D01*
X10476809Y7574332D02*
X10999668D01*
X10474309Y7576832D02*
X10476809Y7574332D01*
X9990000Y7625000D02*
X10016483D01*
X10496003Y7620669D02*
X10999669D01*
X10493503Y7623169D02*
X10496003Y7620669D01*
X10999669D02*
X11009000Y7630000D01*
D39*
X8452500Y8450000D02*
D03*
X11257500Y6025000D02*
D03*
X11255000Y8445000D02*
D03*
X8465000Y6012500D02*
D03*
D40*
X10129000Y8208100D02*
D03*
Y8004900D02*
D03*
X10637000Y8106500D02*
D03*
D41*
X10017500Y7832500D02*
D03*
X9945000Y8107500D02*
D03*
X9732344Y8177196D02*
D03*
X9184748Y7510000D02*
D03*
X8495000Y8080000D02*
D03*
X8492500Y7995000D02*
D03*
X9680000Y6630000D02*
D03*
X9640000Y6920000D02*
D03*
X10240000Y7740000D02*
D03*
X10830000Y7750000D02*
D03*
X9390000Y8140000D02*
D03*
X9460000Y8280000D02*
D03*
Y8420000D02*
D03*
D42*
X9009018Y7694127D02*
D03*
X9037500Y7515000D02*
D03*
X10109018Y7071627D02*
D03*
X9881518Y6991627D02*
D03*
X10640000Y7177500D02*
D03*
X10739018Y7169127D02*
D03*
X11156518Y6761627D02*
D03*
X11036518D02*
D03*
X10921518Y6819127D02*
D03*
X10940000Y7005000D02*
D03*
X9430000Y8020000D02*
D03*
X9480525Y8132827D02*
D03*
X9183551Y7949280D02*
D03*
X10220000Y8250000D02*
D03*
X9080000Y7100000D02*
D03*
X8680000Y7410000D02*
D03*
X10290000Y8470000D02*
D03*
X9069104Y8421406D02*
D03*
X9870000Y7280000D02*
D03*
X9760000D02*
D03*
X9650000D02*
D03*
X9540000D02*
D03*
X9430000D02*
D03*
X9870000Y7390000D02*
D03*
X9760000D02*
D03*
X9650000D02*
D03*
X9540000D02*
D03*
X9430000D02*
D03*
X9870000Y7500000D02*
D03*
X9760000D02*
D03*
X9650000D02*
D03*
X9540000D02*
D03*
X9430000D02*
D03*
X9870000Y7610000D02*
D03*
X9760000D02*
D03*
X9650000D02*
D03*
X9540000D02*
D03*
X9430000D02*
D03*
X9870000Y7720000D02*
D03*
X9760000D02*
D03*
X9650000D02*
D03*
X9540000D02*
D03*
X9430000D02*
D03*
X8996680Y8194820D02*
D03*
Y8084820D02*
D03*
X8886680D02*
D03*
Y8194820D02*
D03*
D43*
X9275180Y8214820D02*
D03*
X9990000Y8350000D02*
D03*
D44*
X8729980Y7891780D02*
D03*
%TF.MD5,8fbe0ed7ca7b590dcb6026130c546719*%
M02*
