%TF.GenerationSoftware,Altium Limited,Altium Designer,25.4.2 (15)*%
G04 Layer_Color=8421504*
%FSLAX45Y45*%
%MOMM*%
%TF.SameCoordinates,67C836F6-C9C3-4B7B-B257-39D1A88473F1*%
%TF.FilePolarity,Positive*%
%TF.FileFunction,Paste,Top*%
%TF.Part,Single*%
G01*
G75*
%TA.AperFunction,SMDPad,CuDef*%
%ADD10R,0.65000X1.70000*%
%ADD11R,1.00000X2.90000*%
%ADD12R,3.50000X1.25000*%
%ADD13R,1.25000X1.25000*%
%ADD14R,5.60000X5.60000*%
%ADD15O,0.25000X0.80000*%
%ADD16O,0.80000X0.25000*%
%TA.AperFunction,ConnectorPad*%
%ADD17R,1.38000X0.45000*%
%ADD18R,1.55000X1.42500*%
%ADD19R,1.90000X1.00000*%
%ADD20R,1.90000X1.80000*%
%ADD21R,1.30000X1.65000*%
%TA.AperFunction,SMDPad,CuDef*%
%ADD22R,2.60000X2.70000*%
%ADD23R,0.35000X0.80000*%
%ADD24R,0.85000X0.35000*%
G04:AMPARAMS|DCode=25|XSize=0.6mm|YSize=0.7mm|CornerRadius=0.075mm|HoleSize=0mm|Usage=FLASHONLY|Rotation=270.000|XOffset=0mm|YOffset=0mm|HoleType=Round|Shape=RoundedRectangle|*
%AMROUNDEDRECTD25*
21,1,0.60000,0.55000,0,0,270.0*
21,1,0.45000,0.70000,0,0,270.0*
1,1,0.15000,-0.27500,-0.22500*
1,1,0.15000,-0.27500,0.22500*
1,1,0.15000,0.27500,0.22500*
1,1,0.15000,0.27500,-0.22500*
%
%ADD25ROUNDEDRECTD25*%
G04:AMPARAMS|DCode=26|XSize=1.4mm|YSize=1.7mm|CornerRadius=0.175mm|HoleSize=0mm|Usage=FLASHONLY|Rotation=180.000|XOffset=0mm|YOffset=0mm|HoleType=Round|Shape=RoundedRectangle|*
%AMROUNDEDRECTD26*
21,1,1.40000,1.35000,0,0,180.0*
21,1,1.05000,1.70000,0,0,180.0*
1,1,0.35000,-0.52500,0.67500*
1,1,0.35000,0.52500,0.67500*
1,1,0.35000,0.52500,-0.67500*
1,1,0.35000,-0.52500,-0.67500*
%
%ADD26ROUNDEDRECTD26*%
G04:AMPARAMS|DCode=27|XSize=0.8mm|YSize=1mm|CornerRadius=0.1mm|HoleSize=0mm|Usage=FLASHONLY|Rotation=0.000|XOffset=0mm|YOffset=0mm|HoleType=Round|Shape=RoundedRectangle|*
%AMROUNDEDRECTD27*
21,1,0.80000,0.80000,0,0,0.0*
21,1,0.60000,1.00000,0,0,0.0*
1,1,0.20000,0.30000,-0.40000*
1,1,0.20000,-0.30000,-0.40000*
1,1,0.20000,-0.30000,0.40000*
1,1,0.20000,0.30000,0.40000*
%
%ADD27ROUNDEDRECTD27*%
G04:AMPARAMS|DCode=28|XSize=0.8mm|YSize=1mm|CornerRadius=0.1mm|HoleSize=0mm|Usage=FLASHONLY|Rotation=90.000|XOffset=0mm|YOffset=0mm|HoleType=Round|Shape=RoundedRectangle|*
%AMROUNDEDRECTD28*
21,1,0.80000,0.80000,0,0,90.0*
21,1,0.60000,1.00000,0,0,90.0*
1,1,0.20000,0.40000,0.30000*
1,1,0.20000,0.40000,-0.30000*
1,1,0.20000,-0.40000,-0.30000*
1,1,0.20000,-0.40000,0.30000*
%
%ADD28ROUNDEDRECTD28*%
G04:AMPARAMS|DCode=29|XSize=1.4mm|YSize=1.7mm|CornerRadius=0.175mm|HoleSize=0mm|Usage=FLASHONLY|Rotation=270.000|XOffset=0mm|YOffset=0mm|HoleType=Round|Shape=RoundedRectangle|*
%AMROUNDEDRECTD29*
21,1,1.40000,1.35000,0,0,270.0*
21,1,1.05000,1.70000,0,0,270.0*
1,1,0.35000,-0.67500,-0.52500*
1,1,0.35000,-0.67500,0.52500*
1,1,0.35000,0.67500,0.52500*
1,1,0.35000,0.67500,-0.52500*
%
%ADD29ROUNDEDRECTD29*%
G04:AMPARAMS|DCode=30|XSize=0.6mm|YSize=0.7mm|CornerRadius=0.075mm|HoleSize=0mm|Usage=FLASHONLY|Rotation=0.000|XOffset=0mm|YOffset=0mm|HoleType=Round|Shape=RoundedRectangle|*
%AMROUNDEDRECTD30*
21,1,0.60000,0.55000,0,0,0.0*
21,1,0.45000,0.70000,0,0,0.0*
1,1,0.15000,0.22500,-0.27500*
1,1,0.15000,-0.22500,-0.27500*
1,1,0.15000,-0.22500,0.27500*
1,1,0.15000,0.22500,0.27500*
%
%ADD30ROUNDEDRECTD30*%
G04:AMPARAMS|DCode=32|XSize=1.3mm|YSize=1.1mm|CornerRadius=0.055mm|HoleSize=0mm|Usage=FLASHONLY|Rotation=0.000|XOffset=0mm|YOffset=0mm|HoleType=Round|Shape=RoundedRectangle|*
%AMROUNDEDRECTD32*
21,1,1.30000,0.99000,0,0,0.0*
21,1,1.19000,1.10000,0,0,0.0*
1,1,0.11000,0.59500,-0.49500*
1,1,0.11000,-0.59500,-0.49500*
1,1,0.11000,-0.59500,0.49500*
1,1,0.11000,0.59500,0.49500*
%
%ADD32ROUNDEDRECTD32*%
D10*
X9047500Y6500000D02*
D03*
X9172500D02*
D03*
X9422500D02*
D03*
X9547500D02*
D03*
X9297500D02*
D03*
X9672500D02*
D03*
D11*
X8862500Y6220000D02*
D03*
X9857500D02*
D03*
D12*
X10580000Y6140500D02*
D03*
D13*
X10351000Y6799500D02*
D03*
X10580000D02*
D03*
X10809000D02*
D03*
D14*
X9650000Y7500000D02*
D03*
D15*
X9375000Y7840000D02*
D03*
X9425000D02*
D03*
X9475000D02*
D03*
X9525000D02*
D03*
X9575000D02*
D03*
X9625000D02*
D03*
X9675000D02*
D03*
X9725000D02*
D03*
X9775000D02*
D03*
X9825000D02*
D03*
X9875000D02*
D03*
X9925000D02*
D03*
Y7160000D02*
D03*
X9875000D02*
D03*
X9825000D02*
D03*
X9775000D02*
D03*
X9725000D02*
D03*
X9675000D02*
D03*
X9625000D02*
D03*
X9575000D02*
D03*
X9525000D02*
D03*
X9475000D02*
D03*
X9425000D02*
D03*
X9375000D02*
D03*
D16*
X9990000Y7775000D02*
D03*
Y7725000D02*
D03*
Y7675000D02*
D03*
Y7625000D02*
D03*
Y7575000D02*
D03*
Y7525000D02*
D03*
Y7475000D02*
D03*
Y7425000D02*
D03*
Y7375000D02*
D03*
Y7325000D02*
D03*
Y7275000D02*
D03*
Y7225000D02*
D03*
X9310000D02*
D03*
Y7275000D02*
D03*
Y7325000D02*
D03*
Y7375000D02*
D03*
Y7425000D02*
D03*
Y7475000D02*
D03*
Y7525000D02*
D03*
Y7575000D02*
D03*
Y7625000D02*
D03*
Y7675000D02*
D03*
Y7725000D02*
D03*
Y7775000D02*
D03*
D17*
X11009000Y7760000D02*
D03*
Y7695000D02*
D03*
Y7630000D02*
D03*
Y7565000D02*
D03*
Y7500000D02*
D03*
D18*
X11017500Y7878750D02*
D03*
Y7381250D02*
D03*
D19*
X11275000Y7785000D02*
D03*
D20*
Y7515000D02*
D03*
D21*
Y7967500D02*
D03*
Y7292500D02*
D03*
D22*
X8941680Y8139820D02*
D03*
D23*
X8816680Y7939820D02*
D03*
X8866680D02*
D03*
X8916680D02*
D03*
X8966680D02*
D03*
X9016680D02*
D03*
X9066680D02*
D03*
X8816680Y8339820D02*
D03*
X8866680D02*
D03*
X8916680D02*
D03*
X8966680D02*
D03*
X9016680D02*
D03*
X9066680D02*
D03*
D24*
X9139180Y8014820D02*
D03*
Y8064820D02*
D03*
Y8114820D02*
D03*
Y8164820D02*
D03*
Y8214820D02*
D03*
Y8264820D02*
D03*
X8744180Y8014820D02*
D03*
Y8064820D02*
D03*
Y8114820D02*
D03*
Y8164820D02*
D03*
Y8214820D02*
D03*
Y8264820D02*
D03*
D25*
X11230000Y6660000D02*
D03*
Y6760000D02*
D03*
X9210000Y7840000D02*
D03*
Y7740000D02*
D03*
X11230000Y6380000D02*
D03*
Y6480000D02*
D03*
X10574300Y7335560D02*
D03*
Y7235560D02*
D03*
X10734300Y7335560D02*
D03*
Y7235560D02*
D03*
X9261680Y8059820D02*
D03*
Y7959820D02*
D03*
X8620760Y8271980D02*
D03*
Y8171980D02*
D03*
X8590000Y8090000D02*
D03*
Y7990000D02*
D03*
X9080000Y7190000D02*
D03*
Y7290000D02*
D03*
X9570000Y8040000D02*
D03*
Y8140000D02*
D03*
X9190000Y7330000D02*
D03*
Y7430000D02*
D03*
X10150000Y7840000D02*
D03*
Y7740000D02*
D03*
D26*
X10794300Y7010000D02*
D03*
X10565700D02*
D03*
D27*
X9635000Y7040000D02*
D03*
X9785000D02*
D03*
X10579300Y7445560D02*
D03*
X10729300D02*
D03*
D28*
X9090000Y7685000D02*
D03*
Y7835000D02*
D03*
D29*
X11040000Y6654300D02*
D03*
Y6425700D02*
D03*
D30*
X9650000Y8250000D02*
D03*
X9550000D02*
D03*
X9828060Y8176260D02*
D03*
X9928060D02*
D03*
X10210000Y7140000D02*
D03*
X10110000D02*
D03*
X10210000Y7270000D02*
D03*
X10110000D02*
D03*
X8760000Y7430000D02*
D03*
X8860000D02*
D03*
X10580000Y8370000D02*
D03*
X10480000D02*
D03*
X9050000Y7430000D02*
D03*
X8950000D02*
D03*
X10390000Y8370000D02*
D03*
X10290000D02*
D03*
X9980000Y7060000D02*
D03*
X9880000D02*
D03*
X9350000Y7940000D02*
D03*
X9450000D02*
D03*
D32*
X8955000Y7115000D02*
D03*
Y7305000D02*
D03*
X8725000Y7115000D02*
D03*
Y7305000D02*
D03*
%TF.MD5,abb586f67d68e54ad80fe17175782885*%
M02*
