%TF.GenerationSoftware,Altium Limited,Altium Designer,25.4.2 (15)*%
G04 Layer_Color=0*
%FSLAX45Y45*%
%MOMM*%
%TF.SameCoordinates,67C836F6-C9C3-4B7B-B257-39D1A88473F1*%
%TF.FilePolarity,Positive*%
%TF.FileFunction,Plated,1,4,PTH,Drill*%
%TF.Part,Single*%
G01*
G75*
%TA.AperFunction,ViaDrill,NotFilled*%
%ADD79C,0.25000*%
%ADD80C,0.30000*%
%ADD81C,0.20000*%
D79*
X10017500Y7832500D02*
D03*
X9945000Y8107500D02*
D03*
X9732344Y8177196D02*
D03*
X9009018Y7694127D02*
D03*
X9184748Y7510000D02*
D03*
X9037500Y7515000D02*
D03*
X10109018Y7071627D02*
D03*
X9881518Y6991627D02*
D03*
X10640000Y7177500D02*
D03*
X10739018Y7169127D02*
D03*
X11156518Y6761627D02*
D03*
X11036518D02*
D03*
X10921518Y6819127D02*
D03*
X10940000Y7005000D02*
D03*
X8495000Y8080000D02*
D03*
X8492500Y7995000D02*
D03*
X9680000Y6630000D02*
D03*
X9640000Y6920000D02*
D03*
X10240000Y7740000D02*
D03*
X10830000Y7750000D02*
D03*
X9430000Y8020000D02*
D03*
X9390000Y8140000D02*
D03*
X9480525Y8132827D02*
D03*
X9183551Y7949280D02*
D03*
X9460000Y8280000D02*
D03*
Y8420000D02*
D03*
X10220000Y8250000D02*
D03*
X9080000Y7100000D02*
D03*
X8680000Y7410000D02*
D03*
X10290000Y8470000D02*
D03*
X9069104Y8421406D02*
D03*
X8729980Y7891780D02*
D03*
D80*
X9275180Y8214820D02*
D03*
X9990000Y8350000D02*
D03*
D81*
X9870000Y7280000D02*
D03*
X9760000D02*
D03*
X9650000D02*
D03*
X9540000D02*
D03*
X9430000D02*
D03*
X9870000Y7390000D02*
D03*
X9760000D02*
D03*
X9650000D02*
D03*
X9540000D02*
D03*
X9430000D02*
D03*
X9870000Y7500000D02*
D03*
X9760000D02*
D03*
X9650000D02*
D03*
X9540000D02*
D03*
X9430000D02*
D03*
X9870000Y7610000D02*
D03*
X9760000D02*
D03*
X9650000D02*
D03*
X9540000D02*
D03*
X9430000D02*
D03*
X9870000Y7720000D02*
D03*
X9760000D02*
D03*
X9650000D02*
D03*
X9540000D02*
D03*
X9430000D02*
D03*
X8996680Y8194820D02*
D03*
Y8084820D02*
D03*
X8886680D02*
D03*
Y8194820D02*
D03*
%TF.MD5,43dfede2cfe6f9af7c5475e126450137*%
M02*
