%TF.GenerationSoftware,Altium Limited,Altium Designer,25.4.2 (15)*%
G04 Layer_Color=65535*
%FSLAX45Y45*%
%MOMM*%
%TF.SameCoordinates,67C836F6-C9C3-4B7B-B257-39D1A88473F1*%
%TF.FilePolarity,Positive*%
%TF.FileFunction,Legend,Top*%
%TF.Part,Single*%
G01*
G75*
%TA.AperFunction,NonConductor*%
%ADD46C,0.25400*%
%ADD47C,0.25000*%
%ADD48C,0.30000*%
%ADD49C,0.20000*%
%ADD50C,0.17500*%
G36*
X8621177Y6966318D02*
X8627919D01*
Y6965869D01*
X8632414D01*
Y6965419D01*
X8636460D01*
Y6964970D01*
X8640056D01*
Y6964520D01*
X8643202D01*
Y6964071D01*
X8645899D01*
Y6963621D01*
X8648596D01*
Y6963172D01*
X8650844D01*
Y6962722D01*
X8653091D01*
Y6962273D01*
X8655339D01*
Y6961823D01*
X8657586D01*
Y6961374D01*
X8659384D01*
Y6960924D01*
X8661182D01*
Y6960475D01*
X8662980D01*
Y6960025D01*
X8664778D01*
Y6959576D01*
X8666576D01*
Y6959126D01*
X8667924D01*
Y6958677D01*
X8669722D01*
Y6958227D01*
X8671071D01*
Y6957778D01*
X8672869D01*
Y6957328D01*
X8674217D01*
Y6956879D01*
X8675566D01*
Y6956429D01*
X8676914D01*
Y6955980D01*
X8678263D01*
Y6955530D01*
X8679611D01*
Y6955081D01*
X8680960D01*
Y6954632D01*
X8682308D01*
Y6954182D01*
X8683657D01*
Y6953732D01*
X8685005D01*
Y6953283D01*
X8685904D01*
Y6952833D01*
X8687253D01*
Y6952384D01*
X8688601D01*
Y6951935D01*
X8689500D01*
Y6951485D01*
X8690849D01*
Y6951035D01*
X8691748D01*
Y6950586D01*
X8692647D01*
Y6950136D01*
X8693995D01*
Y6949687D01*
X8694894D01*
Y6949238D01*
X8696242D01*
Y6948788D01*
X8697142D01*
Y6948338D01*
X8698041D01*
Y6947889D01*
X8698939D01*
Y6947439D01*
X8700288D01*
Y6946990D01*
X8701187D01*
Y6946541D01*
X8702086D01*
Y6946091D01*
X8702985D01*
Y6945641D01*
X8703884D01*
Y6945192D01*
X8704783D01*
Y6944743D01*
X8705682D01*
Y6944293D01*
X8706581D01*
Y6943844D01*
X8707480D01*
Y6943394D01*
X8708379D01*
Y6942944D01*
X8709278D01*
Y6942495D01*
X8710177D01*
Y6942046D01*
X8711076D01*
Y6941596D01*
X8711975D01*
Y6941147D01*
X8712874D01*
Y6940697D01*
X8713773D01*
Y6940247D01*
X8714222D01*
Y6939798D01*
X8715121D01*
Y6939349D01*
X8716020D01*
Y6938899D01*
X8716919D01*
Y6938450D01*
X8717818D01*
Y6938000D01*
X8718268D01*
Y6937551D01*
X8719167D01*
Y6937101D01*
X8720066D01*
Y6936652D01*
X8720515D01*
Y6936202D01*
X8721414D01*
Y6935753D01*
X8722313D01*
Y6935303D01*
X8722763D01*
Y6934854D01*
X8723662D01*
Y6934404D01*
X8724561D01*
Y6933955D01*
X8725010D01*
Y6933505D01*
X8725909D01*
Y6933056D01*
X8726359D01*
Y6932606D01*
X8727258D01*
Y6932157D01*
X8727707D01*
Y6931707D01*
X8728606D01*
Y6931258D01*
X8729056D01*
Y6930808D01*
X8729955D01*
Y6930359D01*
X8730854D01*
Y6929909D01*
X8731303D01*
Y6929460D01*
X8731753D01*
Y6929010D01*
X8732652D01*
Y6928561D01*
X8733101D01*
Y6928111D01*
X8734000D01*
Y6927662D01*
X8734450D01*
Y6927212D01*
X8735349D01*
Y6926763D01*
X8735798D01*
Y6926313D01*
X8736697D01*
Y6925864D01*
X8737147D01*
Y6925414D01*
X8737596D01*
Y6924965D01*
X8738495D01*
Y6924515D01*
X8738945D01*
Y6924066D01*
X8739394D01*
Y6923616D01*
X8740293D01*
Y6923167D01*
X8740742D01*
Y6922717D01*
X8741192D01*
Y6922268D01*
X8742091D01*
Y6921818D01*
X8742541D01*
Y6921369D01*
X8742990D01*
Y6920919D01*
X8743889D01*
Y6920470D01*
X8744339D01*
Y6920020D01*
X8744788D01*
Y6919571D01*
X8745238D01*
Y6919121D01*
X8745687D01*
Y6918672D01*
X8746586D01*
Y6918222D01*
X8747036D01*
Y6917773D01*
X8747485D01*
Y6917323D01*
X8747934D01*
Y6916874D01*
X8748833D01*
Y6916424D01*
X8749283D01*
Y6915975D01*
X8749733D01*
Y6915525D01*
X8750182D01*
Y6915076D01*
X8750631D01*
Y6914626D01*
X8751530D01*
Y6914177D01*
X8751980D01*
Y6913727D01*
X8752430D01*
Y6913278D01*
X8752879D01*
Y6912828D01*
X8753328D01*
Y6912379D01*
X8753778D01*
Y6911929D01*
X8754227D01*
Y6911480D01*
X8754677D01*
Y6911030D01*
X8755576D01*
Y6910581D01*
X8756025D01*
Y6910131D01*
X8756475D01*
Y6909682D01*
X8756924D01*
Y6909232D01*
X8757374D01*
Y6908783D01*
X8757823D01*
Y6908333D01*
X8758273D01*
Y6907884D01*
X8758722D01*
Y6907434D01*
X8759172D01*
Y6906985D01*
X8759621D01*
Y6906535D01*
X8760071D01*
Y6906086D01*
X8760520D01*
Y6905636D01*
X8760970D01*
Y6905187D01*
X8761419D01*
Y6904738D01*
X8761869D01*
Y6904288D01*
X8762318D01*
Y6903838D01*
X8763217D01*
Y6903389D01*
X8763667D01*
Y6902939D01*
X8764116D01*
Y6902490D01*
X8764566D01*
Y6901591D01*
X8765015D01*
Y6901141D01*
X8765465D01*
Y6900692D01*
X8765914D01*
Y6900242D01*
X8766364D01*
Y6899793D01*
X8766813D01*
Y6899344D01*
X8767263D01*
Y6898894D01*
X8767712D01*
Y6898444D01*
X8768162D01*
Y6897995D01*
X8768611D01*
Y6897546D01*
X8769061D01*
Y6897096D01*
X8769510D01*
Y6896647D01*
X8769960D01*
Y6896197D01*
X8770409D01*
Y6895748D01*
X8770859D01*
Y6895298D01*
X8771308D01*
Y6894849D01*
X8771758D01*
Y6893950D01*
X8772207D01*
Y6893500D01*
X8772657D01*
Y6893051D01*
X8773106D01*
Y6892601D01*
X8773556D01*
Y6892152D01*
X8774005D01*
Y6891702D01*
X8774455D01*
Y6891253D01*
X8774904D01*
Y6890354D01*
X8775354D01*
Y6889904D01*
X8775803D01*
Y6889455D01*
X8776253D01*
Y6889005D01*
X8776702D01*
Y6888556D01*
X8777152D01*
Y6888106D01*
X8777601D01*
Y6887207D01*
X8778051D01*
Y6886758D01*
X8778500D01*
Y6886308D01*
X8778950D01*
Y6885859D01*
X8779399D01*
Y6884960D01*
X8779849D01*
Y6884510D01*
X8780298D01*
Y6884061D01*
X8780747D01*
Y6883611D01*
X8781197D01*
Y6882712D01*
X8781647D01*
Y6882263D01*
X8782096D01*
Y6881813D01*
X8782546D01*
Y6880914D01*
X8782995D01*
Y6880465D01*
X8783444D01*
Y6880015D01*
X8783894D01*
Y6879116D01*
X8784344D01*
Y6878667D01*
X8784793D01*
Y6878217D01*
X8785243D01*
Y6877318D01*
X8785692D01*
Y6876869D01*
X8786141D01*
Y6876419D01*
X8786591D01*
Y6875520D01*
X8787041D01*
Y6875071D01*
X8787490D01*
Y6874172D01*
X8787939D01*
Y6873722D01*
X8788389D01*
Y6873273D01*
X8788838D01*
Y6872374D01*
X8789288D01*
Y6871924D01*
X8789738D01*
Y6871025D01*
X8790187D01*
Y6870576D01*
X8790636D01*
Y6869677D01*
X8791086D01*
Y6869227D01*
X8791535D01*
Y6868328D01*
X8791985D01*
Y6867879D01*
X8792435D01*
Y6866980D01*
X8792884D01*
Y6866530D01*
X8793333D01*
Y6865631D01*
X8793783D01*
Y6864733D01*
X8794232D01*
Y6864283D01*
X8794682D01*
Y6863384D01*
X8795132D01*
Y6862934D01*
X8795581D01*
Y6862036D01*
X8796030D01*
Y6861136D01*
X8796480D01*
Y6860687D01*
X8796929D01*
Y6859788D01*
X8797379D01*
Y6858889D01*
X8797828D01*
Y6858439D01*
X8798278D01*
Y6857541D01*
X8798727D01*
Y6856642D01*
X8799177D01*
Y6855742D01*
X8799626D01*
Y6855293D01*
X8800076D01*
Y6854394D01*
X8800525D01*
Y6853495D01*
X8800975D01*
Y6852596D01*
X8801424D01*
Y6851697D01*
X8801874D01*
Y6850798D01*
X8802323D01*
Y6849899D01*
X8802773D01*
Y6849450D01*
X8803222D01*
Y6848551D01*
X8803672D01*
Y6847652D01*
X8804121D01*
Y6846753D01*
X8804571D01*
Y6845854D01*
X8805020D01*
Y6844955D01*
X8805470D01*
Y6844056D01*
X8805919D01*
Y6843157D01*
X8806369D01*
Y6841808D01*
X8806818D01*
Y6840909D01*
X8807268D01*
Y6840010D01*
X8807717D01*
Y6839111D01*
X8808167D01*
Y6838212D01*
X8808616D01*
Y6836864D01*
X8809066D01*
Y6835965D01*
X8809515D01*
Y6835066D01*
X8809965D01*
Y6834167D01*
X8810414D01*
Y6832818D01*
X8810864D01*
Y6831919D01*
X8811313D01*
Y6830571D01*
X8811763D01*
Y6829672D01*
X8812212D01*
Y6828323D01*
X8812662D01*
Y6827424D01*
X8813111D01*
Y6826076D01*
X8813561D01*
Y6824727D01*
X8814010D01*
Y6823828D01*
X8814460D01*
Y6822480D01*
X8814909D01*
Y6821131D01*
X8815359D01*
Y6819783D01*
X8815808D01*
Y6818434D01*
X8816258D01*
Y6817086D01*
X8816707D01*
Y6815737D01*
X8817157D01*
Y6814389D01*
X8817606D01*
Y6813040D01*
X8818056D01*
Y6811692D01*
X8818505D01*
Y6809894D01*
X8818955D01*
Y6808545D01*
X8819404D01*
Y6806748D01*
X8819854D01*
Y6804950D01*
X8820303D01*
Y6803601D01*
X8820753D01*
Y6801803D01*
X8821202D01*
Y6799556D01*
X8821652D01*
Y6797758D01*
X8822101D01*
Y6795960D01*
X8822551D01*
Y6793712D01*
X8823000D01*
Y6791465D01*
X8823450D01*
Y6789217D01*
X8823899D01*
Y6786520D01*
X8824349D01*
Y6783823D01*
X8824798D01*
Y6781126D01*
X8825248D01*
Y6777980D01*
X8825697D01*
Y6773934D01*
X8826147D01*
Y6769889D01*
X8826596D01*
Y6764045D01*
X8827046D01*
Y6754606D01*
X8827495D01*
Y6744268D01*
X8827046D01*
Y6734379D01*
X8826596D01*
Y6728985D01*
X8826147D01*
Y6724490D01*
X8825697D01*
Y6720894D01*
X8825248D01*
Y6717748D01*
X8824798D01*
Y6714601D01*
X8824349D01*
Y6711904D01*
X8823899D01*
Y6709657D01*
X8823450D01*
Y6707409D01*
X8823000D01*
Y6705162D01*
X8822551D01*
Y6702914D01*
X8822101D01*
Y6700667D01*
X8821652D01*
Y6698869D01*
X8821202D01*
Y6697071D01*
X8820753D01*
Y6695273D01*
X8820303D01*
Y6693475D01*
X8819854D01*
Y6692126D01*
X8819404D01*
Y6690328D01*
X8818955D01*
Y6688530D01*
X8818505D01*
Y6687182D01*
X8818056D01*
Y6685833D01*
X8817606D01*
Y6684035D01*
X8817157D01*
Y6682687D01*
X8816707D01*
Y6681338D01*
X8816258D01*
Y6679990D01*
X8815808D01*
Y6678641D01*
X8815359D01*
Y6677743D01*
X8814909D01*
Y6676394D01*
X8814460D01*
Y6675046D01*
X8814010D01*
Y6673697D01*
X8813561D01*
Y6672798D01*
X8813111D01*
Y6671449D01*
X8812662D01*
Y6670101D01*
X8812212D01*
Y6669202D01*
X8811763D01*
Y6667854D01*
X8811313D01*
Y6666955D01*
X8810864D01*
Y6665606D01*
X8810414D01*
Y6664707D01*
X8809965D01*
Y6663808D01*
X8809515D01*
Y6662460D01*
X8809066D01*
Y6661561D01*
X8808616D01*
Y6660662D01*
X8808167D01*
Y6659763D01*
X8807717D01*
Y6658414D01*
X8807268D01*
Y6657515D01*
X8806818D01*
Y6656616D01*
X8806369D01*
Y6655717D01*
X8805919D01*
Y6654818D01*
X8805470D01*
Y6653919D01*
X8805020D01*
Y6653020D01*
X8804571D01*
Y6652121D01*
X8804121D01*
Y6651222D01*
X8803672D01*
Y6650323D01*
X8803222D01*
Y6649424D01*
X8802773D01*
Y6648525D01*
X8802323D01*
Y6647626D01*
X8801874D01*
Y6646727D01*
X8801424D01*
Y6645828D01*
X8800975D01*
Y6645379D01*
X8800525D01*
Y6644480D01*
X8800076D01*
Y6643581D01*
X8799626D01*
Y6642682D01*
X8799177D01*
Y6642232D01*
X8798727D01*
Y6641333D01*
X8798278D01*
Y6640434D01*
X8797828D01*
Y6639535D01*
X8797379D01*
Y6639086D01*
X8796929D01*
Y6638187D01*
X8796480D01*
Y6637288D01*
X8796030D01*
Y6636838D01*
X8795581D01*
Y6635939D01*
X8795132D01*
Y6635040D01*
X8794682D01*
Y6634591D01*
X8794232D01*
Y6633692D01*
X8793783D01*
Y6633243D01*
X8793333D01*
Y6632343D01*
X8792884D01*
Y6631444D01*
X8792435D01*
Y6630995D01*
X8791985D01*
Y6630096D01*
X8791535D01*
Y6629646D01*
X8791086D01*
Y6628747D01*
X8790636D01*
Y6628298D01*
X8790187D01*
Y6627399D01*
X8789738D01*
Y6626949D01*
X8789288D01*
Y6626051D01*
X8788838D01*
Y6625601D01*
X8788389D01*
Y6625152D01*
X8787939D01*
Y6624252D01*
X8787490D01*
Y6623803D01*
X8787041D01*
Y6622904D01*
X8786591D01*
Y6622455D01*
X8786141D01*
Y6622005D01*
X8785692D01*
Y6621106D01*
X8785243D01*
Y6620657D01*
X8784793D01*
Y6619758D01*
X8784344D01*
Y6619308D01*
X8783894D01*
Y6618858D01*
X8783444D01*
Y6617960D01*
X8782995D01*
Y6617510D01*
X8782546D01*
Y6617061D01*
X8782096D01*
Y6616611D01*
X8781647D01*
Y6615712D01*
X8781197D01*
Y6615263D01*
X8780747D01*
Y6614813D01*
X8780298D01*
Y6613914D01*
X8779849D01*
Y6613465D01*
X8779399D01*
Y6613015D01*
X8778950D01*
Y6612566D01*
X8778500D01*
Y6611667D01*
X8778051D01*
Y6611217D01*
X8777601D01*
Y6610768D01*
X8777152D01*
Y6610318D01*
X8776702D01*
Y6609869D01*
X8776253D01*
Y6608970D01*
X8775803D01*
Y6608520D01*
X8775354D01*
Y6608071D01*
X8774904D01*
Y6607621D01*
X8774455D01*
Y6607172D01*
X8774005D01*
Y6606722D01*
X8773556D01*
Y6605823D01*
X8773106D01*
Y6605374D01*
X8772657D01*
Y6604924D01*
X8772207D01*
Y6604475D01*
X8771758D01*
Y6604025D01*
X8771308D01*
Y6603576D01*
X8770859D01*
Y6603126D01*
X8770409D01*
Y6602677D01*
X8769960D01*
Y6602227D01*
X8769510D01*
Y6601778D01*
X8769061D01*
Y6600879D01*
X8768611D01*
Y6600429D01*
X8768162D01*
Y6599980D01*
X8767712D01*
Y6599530D01*
X8767263D01*
Y6599081D01*
X8766813D01*
Y6598631D01*
X8766364D01*
Y6598182D01*
X8765914D01*
Y6597732D01*
X8765465D01*
Y6597283D01*
X8765015D01*
Y6596833D01*
X8764566D01*
Y6596384D01*
X8764116D01*
Y6595934D01*
X8763667D01*
Y6595485D01*
X8763217D01*
Y6595035D01*
X8762768D01*
Y6594586D01*
X8762318D01*
Y6594136D01*
X8761869D01*
Y6593687D01*
X8761419D01*
Y6593238D01*
X8760970D01*
Y6592788D01*
X8760520D01*
Y6592338D01*
X8760071D01*
Y6591889D01*
X8759621D01*
Y6591439D01*
X8759172D01*
Y6590990D01*
X8758722D01*
Y6590541D01*
X8758273D01*
Y6590091D01*
X8757374D01*
Y6589641D01*
X8756924D01*
Y6589192D01*
X8756475D01*
Y6588742D01*
X8756025D01*
Y6588293D01*
X8755576D01*
Y6587844D01*
X8755127D01*
Y6587394D01*
X8754677D01*
Y6586944D01*
X8754227D01*
Y6586495D01*
X8753778D01*
Y6586046D01*
X8753328D01*
Y6585596D01*
X8752430D01*
Y6585147D01*
X8751980D01*
Y6584697D01*
X8751530D01*
Y6584247D01*
X8751081D01*
Y6583798D01*
X8750631D01*
Y6583349D01*
X8750182D01*
Y6582899D01*
X8749283D01*
Y6582450D01*
X8748833D01*
Y6582000D01*
X8748384D01*
Y6581550D01*
X8747934D01*
Y6581101D01*
X8747485D01*
Y6580652D01*
X8746586D01*
Y6580202D01*
X8746136D01*
Y6579753D01*
X8745687D01*
Y6579303D01*
X8745238D01*
Y6578853D01*
X8744339D01*
Y6578404D01*
X8743889D01*
Y6577955D01*
X8743439D01*
Y6577505D01*
X8742541D01*
Y6577056D01*
X8742091D01*
Y6576606D01*
X8741642D01*
Y6576157D01*
X8741192D01*
Y6575707D01*
X8740293D01*
Y6575258D01*
X8739844D01*
Y6574808D01*
X8739394D01*
Y6574359D01*
X8738495D01*
Y6573909D01*
X8738046D01*
Y6573460D01*
X8737147D01*
Y6573010D01*
X8736697D01*
Y6572561D01*
X8736248D01*
Y6572111D01*
X8735349D01*
Y6571662D01*
X8734899D01*
Y6571212D01*
X8734000D01*
Y6570763D01*
X8733551D01*
Y6570313D01*
X8733101D01*
Y6569864D01*
X8732202D01*
Y6569414D01*
X8731753D01*
Y6568965D01*
X8730854D01*
Y6568515D01*
X8730404D01*
Y6568066D01*
X8729505D01*
Y6567616D01*
X8729056D01*
Y6567167D01*
X8728157D01*
Y6566717D01*
X8727707D01*
Y6566268D01*
X8726808D01*
Y6565818D01*
X8725909D01*
Y6565369D01*
X8725460D01*
Y6564919D01*
X8724561D01*
Y6564470D01*
X8724111D01*
Y6564020D01*
X8723212D01*
Y6563571D01*
X8722313D01*
Y6563121D01*
X8721864D01*
Y6562672D01*
X8720965D01*
Y6562222D01*
X8720066D01*
Y6561773D01*
X8719616D01*
Y6561323D01*
X8718717D01*
Y6560874D01*
X8717818D01*
Y6560424D01*
X8717369D01*
Y6559975D01*
X8716470D01*
Y6559525D01*
X8715571D01*
Y6559076D01*
X8714672D01*
Y6558626D01*
X8713773D01*
Y6558177D01*
X8713323D01*
Y6557727D01*
X8712424D01*
Y6557278D01*
X8711525D01*
Y6556828D01*
X8710626D01*
Y6556379D01*
X8709727D01*
Y6555929D01*
X8708828D01*
Y6555480D01*
X8707929D01*
Y6555030D01*
X8707030D01*
Y6554581D01*
X8706131D01*
Y6554131D01*
X8705233D01*
Y6553682D01*
X8704333D01*
Y6553232D01*
X8703434D01*
Y6552783D01*
X8702536D01*
Y6552333D01*
X8701636D01*
Y6551884D01*
X8700737D01*
Y6551434D01*
X8699389D01*
Y6550985D01*
X8698490D01*
Y6550535D01*
X8697591D01*
Y6550086D01*
X8696692D01*
Y6549636D01*
X8695344D01*
Y6549187D01*
X8694445D01*
Y6548737D01*
X8693545D01*
Y6548288D01*
X8692197D01*
Y6547838D01*
X8691298D01*
Y6547389D01*
X8689950D01*
Y6546939D01*
X8689051D01*
Y6546490D01*
X8687702D01*
Y6546041D01*
X8686354D01*
Y6545591D01*
X8685455D01*
Y6545141D01*
X8684106D01*
Y6544692D01*
X8682758D01*
Y6544242D01*
X8681409D01*
Y6543793D01*
X8680510D01*
Y6543344D01*
X8679162D01*
Y6542894D01*
X8677813D01*
Y6542444D01*
X8676465D01*
Y6541995D01*
X8674667D01*
Y6541545D01*
X8673318D01*
Y6541096D01*
X8671970D01*
Y6540647D01*
X8670172D01*
Y6540197D01*
X8668823D01*
Y6539747D01*
X8667025D01*
Y6539298D01*
X8665677D01*
Y6538848D01*
X8663879D01*
Y6538399D01*
X8662081D01*
Y6537950D01*
X8660283D01*
Y6537500D01*
X8658036D01*
Y6537050D01*
X8656237D01*
Y6536601D01*
X8653990D01*
Y6536152D01*
X8651742D01*
Y6535702D01*
X8649495D01*
Y6535253D01*
X8646798D01*
Y6534803D01*
X8644551D01*
Y6534353D01*
X8641404D01*
Y6533904D01*
X8638258D01*
Y6533455D01*
X8634662D01*
Y6533005D01*
X8629717D01*
Y6532556D01*
X8624323D01*
Y6532106D01*
X8613086D01*
Y6531656D01*
X8606793D01*
Y6532106D01*
X8595556D01*
Y6532556D01*
X8589712D01*
Y6533005D01*
X8585667D01*
Y6533455D01*
X8581621D01*
Y6533904D01*
X8578475D01*
Y6534353D01*
X8575328D01*
Y6534803D01*
X8572631D01*
Y6535253D01*
X8570384D01*
Y6535702D01*
X8568137D01*
Y6536152D01*
X8565440D01*
Y6536601D01*
X8563641D01*
Y6537050D01*
X8561394D01*
Y6537500D01*
X8559596D01*
Y6537950D01*
X8557798D01*
Y6538399D01*
X8556000D01*
Y6538848D01*
X8554202D01*
Y6539298D01*
X8552404D01*
Y6539747D01*
X8551056D01*
Y6540197D01*
X8549258D01*
Y6540647D01*
X8547909D01*
Y6541096D01*
X8546111D01*
Y6541545D01*
X8544763D01*
Y6541995D01*
X8543414D01*
Y6542444D01*
X8542066D01*
Y6542894D01*
X8540717D01*
Y6543344D01*
X8539369D01*
Y6543793D01*
X8538020D01*
Y6544242D01*
X8536672D01*
Y6544692D01*
X8535773D01*
Y6545141D01*
X8534424D01*
Y6545591D01*
X8533076D01*
Y6546041D01*
X8532177D01*
Y6546490D01*
X8530828D01*
Y6546939D01*
X8529480D01*
Y6547389D01*
X8528581D01*
Y6547838D01*
X8527682D01*
Y6548288D01*
X8526333D01*
Y6548737D01*
X8525434D01*
Y6549187D01*
X8524086D01*
Y6549636D01*
X8523187D01*
Y6550086D01*
X8522288D01*
Y6550535D01*
X8521389D01*
Y6550985D01*
X8520040D01*
Y6551434D01*
X8519141D01*
Y6551884D01*
X8518243D01*
Y6552333D01*
X8517343D01*
Y6552783D01*
X8516444D01*
Y6553232D01*
X8515546D01*
Y6553682D01*
X8514646D01*
Y6554131D01*
X8513748D01*
Y6554581D01*
X8512849D01*
Y6555030D01*
X8511949D01*
Y6555480D01*
X8511051D01*
Y6555929D01*
X8510152D01*
Y6556379D01*
X8509252D01*
Y6556828D01*
X8508354D01*
Y6557278D01*
X8507455D01*
Y6557727D01*
X8506556D01*
Y6558177D01*
X8505657D01*
Y6558626D01*
X8504758D01*
Y6559076D01*
X8504308D01*
Y6559525D01*
X8503409D01*
Y6559975D01*
X8502510D01*
Y6560424D01*
X8501611D01*
Y6560874D01*
X8501162D01*
Y6561323D01*
X8500263D01*
Y6561773D01*
X8499364D01*
Y6562222D01*
X8498914D01*
Y6562672D01*
X8498015D01*
Y6563121D01*
X8497116D01*
Y6563571D01*
X8496667D01*
Y6564020D01*
X8495768D01*
Y6564470D01*
X8494869D01*
Y6564919D01*
X8494419D01*
Y6565369D01*
X8493520D01*
Y6565818D01*
X8493071D01*
Y6566268D01*
X8492172D01*
Y6566717D01*
X8491722D01*
Y6567167D01*
X8490823D01*
Y6567616D01*
X8489924D01*
Y6568066D01*
X8489475D01*
Y6568515D01*
X8488576D01*
Y6568965D01*
X8488126D01*
Y6569414D01*
X8487677D01*
Y6569864D01*
X8486778D01*
Y6570313D01*
X8486328D01*
Y6570763D01*
X8485429D01*
Y6571212D01*
X8484980D01*
Y6571662D01*
X8484081D01*
Y6572111D01*
X8483631D01*
Y6572561D01*
X8483182D01*
Y6573010D01*
X8482283D01*
Y6573460D01*
X8481833D01*
Y6573909D01*
X8480934D01*
Y6574359D01*
X8480485D01*
Y6574808D01*
X8480035D01*
Y6575258D01*
X8479136D01*
Y6575707D01*
X8478687D01*
Y6576157D01*
X8478237D01*
Y6576606D01*
X8477338D01*
Y6577056D01*
X8476889D01*
Y6577505D01*
X8476439D01*
Y6577955D01*
X8475990D01*
Y6578404D01*
X8475091D01*
Y6578853D01*
X8474641D01*
Y6579303D01*
X8474192D01*
Y6579753D01*
X8473743D01*
Y6580202D01*
X8472843D01*
Y6580652D01*
X8472394D01*
Y6581101D01*
X8471944D01*
Y6581550D01*
X8471495D01*
Y6582000D01*
X8470596D01*
Y6582450D01*
X8470146D01*
Y6582899D01*
X8469697D01*
Y6583349D01*
X8469247D01*
Y6583798D01*
X8468798D01*
Y6584247D01*
X8468349D01*
Y6584697D01*
X8467449D01*
Y6585147D01*
X8467000D01*
Y6585596D01*
X8466551D01*
Y6586046D01*
X8466101D01*
Y6586495D01*
X8465652D01*
Y6586944D01*
X8465202D01*
Y6587394D01*
X8464752D01*
Y6587844D01*
X8463854D01*
Y6588293D01*
X8463404D01*
Y6588742D01*
X8462955D01*
Y6589192D01*
X8462505D01*
Y6589641D01*
X8462055D01*
Y6590091D01*
X8461606D01*
Y6590541D01*
X8461157D01*
Y6590990D01*
X8460707D01*
Y6591439D01*
X8460258D01*
Y6591889D01*
X8459808D01*
Y6592338D01*
X8459359D01*
Y6592788D01*
X8458909D01*
Y6593238D01*
X8458460D01*
Y6593687D01*
X8458010D01*
Y6594136D01*
X8457561D01*
Y6594586D01*
X8457111D01*
Y6595035D01*
X8456662D01*
Y6595485D01*
X8456212D01*
Y6595934D01*
X8455763D01*
Y6596384D01*
X8455313D01*
Y6596833D01*
X8454864D01*
Y6597283D01*
X8454414D01*
Y6597732D01*
X8453965D01*
Y6598182D01*
X8453515D01*
Y6598631D01*
X8453066D01*
Y6599081D01*
X8452616D01*
Y6599530D01*
X8452167D01*
Y6599980D01*
X8451717D01*
Y6600429D01*
X8451268D01*
Y6600879D01*
X8450818D01*
Y6601328D01*
X8450369D01*
Y6601778D01*
X8449919D01*
Y6602227D01*
X8449470D01*
Y6602677D01*
X8449020D01*
Y6603126D01*
X8448571D01*
Y6604025D01*
X8448121D01*
Y6604475D01*
X8447672D01*
Y6604924D01*
X8447222D01*
Y6605374D01*
X8446773D01*
Y6605823D01*
X8446323D01*
Y6606273D01*
X8445874D01*
Y6606722D01*
X8445424D01*
Y6607172D01*
X8444975D01*
Y6608071D01*
X8444525D01*
Y6608520D01*
X8444076D01*
Y6608970D01*
X8443626D01*
Y6609419D01*
X8443177D01*
Y6609869D01*
X8442727D01*
Y6610768D01*
X8442278D01*
Y6611217D01*
X8441828D01*
Y6611667D01*
X8441379D01*
Y6612116D01*
X8440929D01*
Y6612566D01*
X8440480D01*
Y6613465D01*
X8440030D01*
Y6613914D01*
X8439581D01*
Y6614364D01*
X8439131D01*
Y6614813D01*
X8438682D01*
Y6615712D01*
X8438232D01*
Y6616162D01*
X8437783D01*
Y6616611D01*
X8437333D01*
Y6617510D01*
X8436884D01*
Y6617960D01*
X8436434D01*
Y6618409D01*
X8435985D01*
Y6619308D01*
X8435535D01*
Y6619758D01*
X8435086D01*
Y6620207D01*
X8434636D01*
Y6621106D01*
X8434187D01*
Y6621555D01*
X8433738D01*
Y6622005D01*
X8433288D01*
Y6622904D01*
X8432838D01*
Y6623354D01*
X8432389D01*
Y6624252D01*
X8431939D01*
Y6624702D01*
X8431490D01*
Y6625152D01*
X8431041D01*
Y6626051D01*
X8430591D01*
Y6626500D01*
X8430141D01*
Y6627399D01*
X8429692D01*
Y6627849D01*
X8429242D01*
Y6628747D01*
X8428793D01*
Y6629197D01*
X8428344D01*
Y6630096D01*
X8427894D01*
Y6630546D01*
X8427444D01*
Y6631444D01*
X8426995D01*
Y6631894D01*
X8426546D01*
Y6632793D01*
X8426096D01*
Y6633692D01*
X8425647D01*
Y6634141D01*
X8425197D01*
Y6635040D01*
X8424747D01*
Y6635490D01*
X8424298D01*
Y6636389D01*
X8423849D01*
Y6637288D01*
X8423399D01*
Y6637737D01*
X8422950D01*
Y6638636D01*
X8422500D01*
Y6639535D01*
X8422050D01*
Y6639985D01*
X8421601D01*
Y6640884D01*
X8421152D01*
Y6641783D01*
X8420702D01*
Y6642682D01*
X8420253D01*
Y6643131D01*
X8419803D01*
Y6644030D01*
X8419353D01*
Y6644929D01*
X8418904D01*
Y6645828D01*
X8418455D01*
Y6646727D01*
X8418005D01*
Y6647177D01*
X8417556D01*
Y6648076D01*
X8417106D01*
Y6648975D01*
X8416657D01*
Y6649874D01*
X8416207D01*
Y6650773D01*
X8415758D01*
Y6651672D01*
X8415308D01*
Y6652571D01*
X8414859D01*
Y6653470D01*
X8414409D01*
Y6654369D01*
X8413960D01*
Y6655268D01*
X8413510D01*
Y6656167D01*
X8413061D01*
Y6657066D01*
X8412611D01*
Y6658414D01*
X8412162D01*
Y6659313D01*
X8411712D01*
Y6660212D01*
X8411263D01*
Y6661111D01*
X8410813D01*
Y6662010D01*
X8410364D01*
Y6663359D01*
X8409914D01*
Y6664258D01*
X8409465D01*
Y6665157D01*
X8409015D01*
Y6666505D01*
X8408566D01*
Y6667404D01*
X8408116D01*
Y6668752D01*
X8407667D01*
Y6669652D01*
X8407217D01*
Y6671000D01*
X8406768D01*
Y6671899D01*
X8406318D01*
Y6673248D01*
X8405869D01*
Y6674596D01*
X8405419D01*
Y6675495D01*
X8404970D01*
Y6676843D01*
X8404520D01*
Y6678192D01*
X8404071D01*
Y6679540D01*
X8403621D01*
Y6680889D01*
X8403172D01*
Y6682237D01*
X8402722D01*
Y6683586D01*
X8402273D01*
Y6684934D01*
X8401823D01*
Y6686732D01*
X8401374D01*
Y6688081D01*
X8400924D01*
Y6689429D01*
X8400475D01*
Y6691227D01*
X8400025D01*
Y6693025D01*
X8399576D01*
Y6694374D01*
X8399126D01*
Y6696172D01*
X8398677D01*
Y6697970D01*
X8398227D01*
Y6699768D01*
X8397778D01*
Y6702015D01*
X8397328D01*
Y6704263D01*
X8396879D01*
Y6706061D01*
X8396429D01*
Y6708758D01*
X8395980D01*
Y6711005D01*
X8395530D01*
Y6713702D01*
X8395081D01*
Y6716399D01*
X8394631D01*
Y6719546D01*
X8394182D01*
Y6723141D01*
X8393732D01*
Y6726737D01*
X8393283D01*
Y6731682D01*
X8392833D01*
Y6738874D01*
X8392384D01*
Y6760000D01*
X8392833D01*
Y6766742D01*
X8393283D01*
Y6771687D01*
X8393732D01*
Y6775732D01*
X8394182D01*
Y6779328D01*
X8394631D01*
Y6782475D01*
X8395081D01*
Y6785172D01*
X8395530D01*
Y6787869D01*
X8395980D01*
Y6790116D01*
X8396429D01*
Y6792364D01*
X8396879D01*
Y6794611D01*
X8397328D01*
Y6796859D01*
X8397778D01*
Y6798657D01*
X8398227D01*
Y6800455D01*
X8398677D01*
Y6802253D01*
X8399126D01*
Y6804051D01*
X8399576D01*
Y6805848D01*
X8400025D01*
Y6807647D01*
X8400475D01*
Y6808995D01*
X8400924D01*
Y6810793D01*
X8401374D01*
Y6812142D01*
X8401823D01*
Y6813490D01*
X8402273D01*
Y6814839D01*
X8402722D01*
Y6816636D01*
X8403172D01*
Y6817985D01*
X8403621D01*
Y6819333D01*
X8404071D01*
Y6820682D01*
X8404520D01*
Y6821581D01*
X8404970D01*
Y6822929D01*
X8405419D01*
Y6824278D01*
X8405869D01*
Y6825626D01*
X8406318D01*
Y6826525D01*
X8406768D01*
Y6827874D01*
X8407217D01*
Y6828773D01*
X8407667D01*
Y6830121D01*
X8408116D01*
Y6831020D01*
X8408566D01*
Y6832369D01*
X8409015D01*
Y6833268D01*
X8409465D01*
Y6834616D01*
X8409914D01*
Y6835515D01*
X8410364D01*
Y6836414D01*
X8410813D01*
Y6837313D01*
X8411263D01*
Y6838662D01*
X8411712D01*
Y6839561D01*
X8412162D01*
Y6840460D01*
X8412611D01*
Y6841359D01*
X8413061D01*
Y6842258D01*
X8413510D01*
Y6843157D01*
X8413960D01*
Y6844056D01*
X8414409D01*
Y6844955D01*
X8414859D01*
Y6846303D01*
X8415308D01*
Y6847202D01*
X8415758D01*
Y6848101D01*
X8416207D01*
Y6848551D01*
X8416657D01*
Y6849450D01*
X8417106D01*
Y6850349D01*
X8417556D01*
Y6851248D01*
X8418005D01*
Y6852147D01*
X8418455D01*
Y6853045D01*
X8418904D01*
Y6853945D01*
X8419353D01*
Y6854394D01*
X8419803D01*
Y6855293D01*
X8420253D01*
Y6856192D01*
X8420702D01*
Y6857091D01*
X8421152D01*
Y6857990D01*
X8421601D01*
Y6858439D01*
X8422050D01*
Y6859339D01*
X8422500D01*
Y6860237D01*
X8422950D01*
Y6860687D01*
X8423399D01*
Y6861586D01*
X8423849D01*
Y6862485D01*
X8424298D01*
Y6862934D01*
X8424747D01*
Y6863833D01*
X8425197D01*
Y6864283D01*
X8425647D01*
Y6865182D01*
X8426096D01*
Y6866081D01*
X8426546D01*
Y6866530D01*
X8426995D01*
Y6867429D01*
X8427444D01*
Y6867879D01*
X8427894D01*
Y6868778D01*
X8428344D01*
Y6869227D01*
X8428793D01*
Y6870126D01*
X8429242D01*
Y6870576D01*
X8429692D01*
Y6871475D01*
X8430141D01*
Y6871924D01*
X8430591D01*
Y6872823D01*
X8431041D01*
Y6873273D01*
X8431490D01*
Y6874172D01*
X8431939D01*
Y6874621D01*
X8432389D01*
Y6875071D01*
X8432838D01*
Y6875970D01*
X8433288D01*
Y6876419D01*
X8433738D01*
Y6877318D01*
X8434187D01*
Y6877768D01*
X8434636D01*
Y6878217D01*
X8435086D01*
Y6879116D01*
X8435535D01*
Y6879566D01*
X8435985D01*
Y6880015D01*
X8436434D01*
Y6880914D01*
X8436884D01*
Y6881364D01*
X8437333D01*
Y6881813D01*
X8437783D01*
Y6882712D01*
X8438232D01*
Y6883162D01*
X8438682D01*
Y6883611D01*
X8439131D01*
Y6884061D01*
X8439581D01*
Y6884960D01*
X8440030D01*
Y6885409D01*
X8440480D01*
Y6885859D01*
X8440929D01*
Y6886308D01*
X8441379D01*
Y6887207D01*
X8441828D01*
Y6887657D01*
X8442278D01*
Y6888106D01*
X8442727D01*
Y6888556D01*
X8443177D01*
Y6889005D01*
X8443626D01*
Y6889904D01*
X8444076D01*
Y6890354D01*
X8444525D01*
Y6890803D01*
X8444975D01*
Y6891253D01*
X8445424D01*
Y6891702D01*
X8445874D01*
Y6892152D01*
X8446323D01*
Y6892601D01*
X8446773D01*
Y6893500D01*
X8447222D01*
Y6893950D01*
X8447672D01*
Y6894399D01*
X8448121D01*
Y6894849D01*
X8448571D01*
Y6895298D01*
X8449020D01*
Y6895748D01*
X8449470D01*
Y6896197D01*
X8449919D01*
Y6896647D01*
X8450369D01*
Y6897096D01*
X8450818D01*
Y6897546D01*
X8451268D01*
Y6898444D01*
X8451717D01*
Y6898894D01*
X8452167D01*
Y6899344D01*
X8452616D01*
Y6899793D01*
X8453066D01*
Y6900242D01*
X8453515D01*
Y6900692D01*
X8453965D01*
Y6901141D01*
X8454414D01*
Y6901591D01*
X8454864D01*
Y6902041D01*
X8455313D01*
Y6902490D01*
X8455763D01*
Y6902939D01*
X8456212D01*
Y6903389D01*
X8456662D01*
Y6903838D01*
X8457111D01*
Y6904288D01*
X8457561D01*
Y6904738D01*
X8458010D01*
Y6905187D01*
X8458460D01*
Y6905636D01*
X8458909D01*
Y6906086D01*
X8459359D01*
Y6906535D01*
X8459808D01*
Y6906985D01*
X8460258D01*
Y6907434D01*
X8460707D01*
Y6907884D01*
X8461606D01*
Y6908333D01*
X8462055D01*
Y6908783D01*
X8462505D01*
Y6909232D01*
X8462955D01*
Y6909682D01*
X8463404D01*
Y6910131D01*
X8463854D01*
Y6910581D01*
X8464303D01*
Y6911030D01*
X8464752D01*
Y6911480D01*
X8465202D01*
Y6911929D01*
X8465652D01*
Y6912379D01*
X8466551D01*
Y6912828D01*
X8467000D01*
Y6913278D01*
X8467449D01*
Y6913727D01*
X8467899D01*
Y6914177D01*
X8468349D01*
Y6914626D01*
X8468798D01*
Y6915076D01*
X8469247D01*
Y6915525D01*
X8470146D01*
Y6915975D01*
X8470596D01*
Y6916424D01*
X8471046D01*
Y6916874D01*
X8471495D01*
Y6917323D01*
X8471944D01*
Y6917773D01*
X8472843D01*
Y6918222D01*
X8473293D01*
Y6918672D01*
X8473743D01*
Y6919121D01*
X8474192D01*
Y6919571D01*
X8475091D01*
Y6920020D01*
X8475540D01*
Y6920470D01*
X8475990D01*
Y6920919D01*
X8476889D01*
Y6921369D01*
X8477338D01*
Y6921818D01*
X8477788D01*
Y6922268D01*
X8478237D01*
Y6922717D01*
X8479136D01*
Y6923167D01*
X8479586D01*
Y6923616D01*
X8480035D01*
Y6924066D01*
X8480934D01*
Y6924515D01*
X8481384D01*
Y6924965D01*
X8481833D01*
Y6925414D01*
X8482732D01*
Y6925864D01*
X8483182D01*
Y6926313D01*
X8484081D01*
Y6926763D01*
X8484530D01*
Y6927212D01*
X8484980D01*
Y6927662D01*
X8485879D01*
Y6928111D01*
X8486328D01*
Y6928561D01*
X8487227D01*
Y6929010D01*
X8487677D01*
Y6929460D01*
X8488576D01*
Y6929909D01*
X8489025D01*
Y6930359D01*
X8489924D01*
Y6930808D01*
X8490374D01*
Y6931258D01*
X8491273D01*
Y6931707D01*
X8491722D01*
Y6932157D01*
X8492621D01*
Y6932606D01*
X8493071D01*
Y6933056D01*
X8493970D01*
Y6933505D01*
X8494869D01*
Y6933955D01*
X8495318D01*
Y6934404D01*
X8496217D01*
Y6934854D01*
X8496667D01*
Y6935303D01*
X8497566D01*
Y6935753D01*
X8498465D01*
Y6936202D01*
X8498914D01*
Y6936652D01*
X8499813D01*
Y6937101D01*
X8500712D01*
Y6937551D01*
X8501162D01*
Y6938000D01*
X8502061D01*
Y6938450D01*
X8502960D01*
Y6938899D01*
X8503859D01*
Y6939349D01*
X8504758D01*
Y6939798D01*
X8505207D01*
Y6940247D01*
X8506106D01*
Y6940697D01*
X8507005D01*
Y6941147D01*
X8507904D01*
Y6941596D01*
X8508803D01*
Y6942046D01*
X8509702D01*
Y6942495D01*
X8510601D01*
Y6942944D01*
X8511051D01*
Y6943394D01*
X8512399D01*
Y6943844D01*
X8512849D01*
Y6944293D01*
X8514197D01*
Y6944743D01*
X8515096D01*
Y6945192D01*
X8515995D01*
Y6945641D01*
X8516894D01*
Y6946091D01*
X8517793D01*
Y6946541D01*
X8518692D01*
Y6946990D01*
X8519591D01*
Y6947439D01*
X8520490D01*
Y6947889D01*
X8521838D01*
Y6948338D01*
X8522737D01*
Y6948788D01*
X8523636D01*
Y6949238D01*
X8524535D01*
Y6949687D01*
X8525884D01*
Y6950136D01*
X8526783D01*
Y6950586D01*
X8528131D01*
Y6951035D01*
X8529030D01*
Y6951485D01*
X8529929D01*
Y6951935D01*
X8531278D01*
Y6952384D01*
X8532626D01*
Y6952833D01*
X8533525D01*
Y6953283D01*
X8534874D01*
Y6953732D01*
X8536222D01*
Y6954182D01*
X8537571D01*
Y6954632D01*
X8538470D01*
Y6955081D01*
X8539818D01*
Y6955530D01*
X8541167D01*
Y6955980D01*
X8542515D01*
Y6956429D01*
X8543864D01*
Y6956879D01*
X8545662D01*
Y6957328D01*
X8547010D01*
Y6957778D01*
X8548359D01*
Y6958227D01*
X8550157D01*
Y6958677D01*
X8551505D01*
Y6959126D01*
X8553303D01*
Y6959576D01*
X8555101D01*
Y6960025D01*
X8556899D01*
Y6960475D01*
X8558697D01*
Y6960924D01*
X8560495D01*
Y6961374D01*
X8562293D01*
Y6961823D01*
X8564540D01*
Y6962273D01*
X8566338D01*
Y6962722D01*
X8569035D01*
Y6963172D01*
X8571283D01*
Y6963621D01*
X8573980D01*
Y6964071D01*
X8576677D01*
Y6964520D01*
X8579823D01*
Y6964970D01*
X8582970D01*
Y6965419D01*
X8587015D01*
Y6965869D01*
X8591960D01*
Y6966318D01*
X8598702D01*
Y6966768D01*
X8621177D01*
Y6966318D01*
D02*
G37*
%LPC*%
G36*
X8610839Y6958677D02*
X8609040D01*
Y6958227D01*
X8596005D01*
Y6957778D01*
X8590162D01*
Y6957328D01*
X8586116D01*
Y6956879D01*
X8582071D01*
Y6956429D01*
X8578924D01*
Y6955980D01*
X8576227D01*
Y6955530D01*
X8573530D01*
Y6955081D01*
X8570834D01*
Y6954632D01*
X8568586D01*
Y6954182D01*
X8566338D01*
Y6953732D01*
X8564540D01*
Y6953283D01*
X8562293D01*
Y6952833D01*
X8560495D01*
Y6952384D01*
X8558697D01*
Y6951935D01*
X8556899D01*
Y6951485D01*
X8555551D01*
Y6951035D01*
X8553753D01*
Y6950586D01*
X8551955D01*
Y6950136D01*
X8550606D01*
Y6949687D01*
X8548808D01*
Y6949238D01*
X8547460D01*
Y6948788D01*
X8546111D01*
Y6948338D01*
X8544763D01*
Y6947889D01*
X8543414D01*
Y6947439D01*
X8542066D01*
Y6946990D01*
X8540717D01*
Y6946541D01*
X8539369D01*
Y6946091D01*
X8538020D01*
Y6945641D01*
X8537121D01*
Y6945192D01*
X8535773D01*
Y6944743D01*
X8534874D01*
Y6944293D01*
X8533525D01*
Y6943844D01*
X8532177D01*
Y6943394D01*
X8531278D01*
Y6942944D01*
X8530379D01*
Y6942495D01*
X8529030D01*
Y6942046D01*
X8528131D01*
Y6941596D01*
X8526783D01*
Y6941147D01*
X8525884D01*
Y6940697D01*
X8524985D01*
Y6940247D01*
X8523636D01*
Y6939798D01*
X8522737D01*
Y6939349D01*
X8521838D01*
Y6938899D01*
X8520940D01*
Y6938450D01*
X8520040D01*
Y6938000D01*
X8519141D01*
Y6937551D01*
X8518243D01*
Y6937101D01*
X8517343D01*
Y6936652D01*
X8516444D01*
Y6936202D01*
X8515546D01*
Y6935753D01*
X8514646D01*
Y6935303D01*
X8513748D01*
Y6934854D01*
X8512849D01*
Y6934404D01*
X8511949D01*
Y6933955D01*
X8511051D01*
Y6933505D01*
X8510152D01*
Y6933056D01*
X8509252D01*
Y6932606D01*
X8508803D01*
Y6932157D01*
X8507904D01*
Y6931707D01*
X8507005D01*
Y6931258D01*
X8506106D01*
Y6930808D01*
X8505657D01*
Y6930359D01*
X8504758D01*
Y6929909D01*
X8503859D01*
Y6929460D01*
X8502960D01*
Y6929010D01*
X8502510D01*
Y6928561D01*
X8501611D01*
Y6928111D01*
X8500712D01*
Y6927662D01*
X8500263D01*
Y6927212D01*
X8499364D01*
Y6926763D01*
X8498914D01*
Y6926313D01*
X8498015D01*
Y6925864D01*
X8497116D01*
Y6925414D01*
X8496667D01*
Y6924965D01*
X8495768D01*
Y6924515D01*
X8495318D01*
Y6924066D01*
X8494419D01*
Y6923616D01*
X8493970D01*
Y6923167D01*
X8493071D01*
Y6922717D01*
X8492621D01*
Y6922268D01*
X8491722D01*
Y6921818D01*
X8491273D01*
Y6921369D01*
X8490823D01*
Y6920919D01*
X8489924D01*
Y6920470D01*
X8489475D01*
Y6920020D01*
X8488576D01*
Y6919571D01*
X8488126D01*
Y6919121D01*
X8487227D01*
Y6918672D01*
X8486778D01*
Y6918222D01*
X8486328D01*
Y6917773D01*
X8485429D01*
Y6917323D01*
X8484980D01*
Y6916874D01*
X8484530D01*
Y6916424D01*
X8483631D01*
Y6915975D01*
X8483182D01*
Y6915525D01*
X8482732D01*
Y6915076D01*
X8481833D01*
Y6914626D01*
X8481384D01*
Y6914177D01*
X8480934D01*
Y6913727D01*
X8480485D01*
Y6913278D01*
X8479586D01*
Y6912828D01*
X8479136D01*
Y6912379D01*
X8478687D01*
Y6911929D01*
X8478237D01*
Y6911480D01*
X8477338D01*
Y6911030D01*
X8476889D01*
Y6910581D01*
X8476439D01*
Y6910131D01*
X8475990D01*
Y6909682D01*
X8475540D01*
Y6909232D01*
X8474641D01*
Y6908783D01*
X8474192D01*
Y6908333D01*
X8473743D01*
Y6907884D01*
X8473293D01*
Y6907434D01*
X8472843D01*
Y6906985D01*
X8472394D01*
Y6906535D01*
X8471495D01*
Y6906086D01*
X8471046D01*
Y6905636D01*
X8470596D01*
Y6905187D01*
X8470146D01*
Y6904738D01*
X8469697D01*
Y6904288D01*
X8469247D01*
Y6903838D01*
X8468798D01*
Y6903389D01*
X8468349D01*
Y6902939D01*
X8467899D01*
Y6902490D01*
X8467000D01*
Y6902041D01*
X8466551D01*
Y6901591D01*
X8466101D01*
Y6901141D01*
X8465652D01*
Y6900692D01*
X8465202D01*
Y6900242D01*
X8464752D01*
Y6899793D01*
X8464303D01*
Y6899344D01*
X8463854D01*
Y6898894D01*
X8463404D01*
Y6898444D01*
X8462955D01*
Y6897995D01*
X8462505D01*
Y6897546D01*
X8462055D01*
Y6897096D01*
X8461606D01*
Y6896647D01*
X8461157D01*
Y6896197D01*
X8460707D01*
Y6895748D01*
X8460258D01*
Y6895298D01*
X8459808D01*
Y6894849D01*
X8459359D01*
Y6894399D01*
X8458909D01*
Y6893950D01*
X8458460D01*
Y6893500D01*
X8458010D01*
Y6893051D01*
X8457561D01*
Y6892601D01*
X8457111D01*
Y6891702D01*
X8456662D01*
Y6891253D01*
X8456212D01*
Y6890803D01*
X8455763D01*
Y6890354D01*
X8455313D01*
Y6889904D01*
X8454864D01*
Y6889455D01*
X8454414D01*
Y6889005D01*
X8453965D01*
Y6888556D01*
X8453515D01*
Y6888106D01*
X8453066D01*
Y6887657D01*
X8452616D01*
Y6886758D01*
X8452167D01*
Y6886308D01*
X8451717D01*
Y6885859D01*
X8451268D01*
Y6885409D01*
X8450818D01*
Y6884960D01*
X8450369D01*
Y6884510D01*
X8449919D01*
Y6883611D01*
X8449470D01*
Y6883162D01*
X8449020D01*
Y6882712D01*
X8448571D01*
Y6882263D01*
X8448121D01*
Y6881813D01*
X8447672D01*
Y6880914D01*
X8447222D01*
Y6880465D01*
X8446773D01*
Y6880015D01*
X8446323D01*
Y6879566D01*
X8445874D01*
Y6878667D01*
X8445424D01*
Y6878217D01*
X8444975D01*
Y6877768D01*
X8444525D01*
Y6877318D01*
X8444076D01*
Y6876419D01*
X8443626D01*
Y6875970D01*
X8443177D01*
Y6875520D01*
X8442727D01*
Y6874621D01*
X8442278D01*
Y6874172D01*
X8441828D01*
Y6873722D01*
X8441379D01*
Y6872823D01*
X8440929D01*
Y6872374D01*
X8440480D01*
Y6871924D01*
X8440030D01*
Y6871025D01*
X8439581D01*
Y6870576D01*
X8439131D01*
Y6869677D01*
X8438682D01*
Y6869227D01*
X8438232D01*
Y6868778D01*
X8437783D01*
Y6867879D01*
X8437333D01*
Y6867429D01*
X8436884D01*
Y6866530D01*
X8436434D01*
Y6866081D01*
X8435985D01*
Y6865182D01*
X8435535D01*
Y6864733D01*
X8435086D01*
Y6863833D01*
X8434636D01*
Y6863384D01*
X8434187D01*
Y6862485D01*
X8433738D01*
Y6862036D01*
X8433288D01*
Y6861136D01*
X8432838D01*
Y6860237D01*
X8432389D01*
Y6859788D01*
X8431939D01*
Y6858889D01*
X8431490D01*
Y6858439D01*
X8431041D01*
Y6857541D01*
X8430591D01*
Y6856642D01*
X8430141D01*
Y6856192D01*
X8429692D01*
Y6855293D01*
X8429242D01*
Y6854394D01*
X8428793D01*
Y6853495D01*
X8428344D01*
Y6853045D01*
X8427894D01*
Y6852147D01*
X8427444D01*
Y6851248D01*
X8426995D01*
Y6850349D01*
X8426546D01*
Y6849899D01*
X8426096D01*
Y6849000D01*
X8425647D01*
Y6848101D01*
X8425197D01*
Y6847202D01*
X8424747D01*
Y6846303D01*
X8424298D01*
Y6845404D01*
X8423849D01*
Y6844505D01*
X8423399D01*
Y6843606D01*
X8422950D01*
Y6842707D01*
X8422500D01*
Y6841808D01*
X8422050D01*
Y6840909D01*
X8421601D01*
Y6840010D01*
X8421152D01*
Y6839111D01*
X8420702D01*
Y6838212D01*
X8420253D01*
Y6837313D01*
X8419803D01*
Y6836414D01*
X8419353D01*
Y6835515D01*
X8418904D01*
Y6834167D01*
X8418455D01*
Y6833268D01*
X8418005D01*
Y6832369D01*
X8417556D01*
Y6831020D01*
X8417106D01*
Y6830121D01*
X8416657D01*
Y6829222D01*
X8416207D01*
Y6827874D01*
X8415758D01*
Y6826975D01*
X8415308D01*
Y6825626D01*
X8414859D01*
Y6824727D01*
X8414409D01*
Y6823379D01*
X8413960D01*
Y6822030D01*
X8413510D01*
Y6821131D01*
X8413061D01*
Y6819783D01*
X8412611D01*
Y6818434D01*
X8412162D01*
Y6817086D01*
X8411712D01*
Y6815737D01*
X8411263D01*
Y6814389D01*
X8410813D01*
Y6813040D01*
X8410364D01*
Y6811692D01*
X8409914D01*
Y6810344D01*
X8409465D01*
Y6808545D01*
X8409015D01*
Y6807197D01*
X8408566D01*
Y6805399D01*
X8408116D01*
Y6803601D01*
X8407667D01*
Y6802253D01*
X8407217D01*
Y6800455D01*
X8406768D01*
Y6798657D01*
X8406318D01*
Y6796859D01*
X8405869D01*
Y6794611D01*
X8405419D01*
Y6792364D01*
X8404970D01*
Y6790566D01*
X8404520D01*
Y6787869D01*
X8404071D01*
Y6785621D01*
X8403621D01*
Y6782924D01*
X8403172D01*
Y6779778D01*
X8402722D01*
Y6776631D01*
X8402273D01*
Y6773035D01*
X8401823D01*
Y6768540D01*
X8401374D01*
Y6762697D01*
X8400924D01*
Y6736177D01*
X8401374D01*
Y6730334D01*
X8401823D01*
Y6725838D01*
X8402273D01*
Y6721793D01*
X8402722D01*
Y6718646D01*
X8403172D01*
Y6715949D01*
X8403621D01*
Y6713253D01*
X8404071D01*
Y6710556D01*
X8404520D01*
Y6708308D01*
X8404970D01*
Y6706061D01*
X8405419D01*
Y6704263D01*
X8405869D01*
Y6702015D01*
X8406318D01*
Y6700217D01*
X8406768D01*
Y6698419D01*
X8407217D01*
Y6696621D01*
X8407667D01*
Y6694823D01*
X8408116D01*
Y6693025D01*
X8408566D01*
Y6691677D01*
X8409015D01*
Y6690328D01*
X8409465D01*
Y6688530D01*
X8409914D01*
Y6687182D01*
X8410364D01*
Y6685833D01*
X8410813D01*
Y6684485D01*
X8411263D01*
Y6683136D01*
X8411712D01*
Y6681788D01*
X8412162D01*
Y6680440D01*
X8412611D01*
Y6679091D01*
X8413061D01*
Y6677743D01*
X8413510D01*
Y6676394D01*
X8413960D01*
Y6675495D01*
X8414409D01*
Y6674146D01*
X8414859D01*
Y6673248D01*
X8415308D01*
Y6671899D01*
X8415758D01*
Y6671000D01*
X8416207D01*
Y6669652D01*
X8416657D01*
Y6668752D01*
X8417106D01*
Y6667404D01*
X8417556D01*
Y6666505D01*
X8418005D01*
Y6665606D01*
X8418455D01*
Y6664258D01*
X8418904D01*
Y6663359D01*
X8419353D01*
Y6662460D01*
X8419803D01*
Y6661561D01*
X8420253D01*
Y6660662D01*
X8420702D01*
Y6659763D01*
X8421152D01*
Y6658414D01*
X8421601D01*
Y6657515D01*
X8422050D01*
Y6656616D01*
X8422500D01*
Y6655717D01*
X8422950D01*
Y6654818D01*
X8423399D01*
Y6653919D01*
X8423849D01*
Y6653020D01*
X8424298D01*
Y6652571D01*
X8424747D01*
Y6651672D01*
X8425197D01*
Y6650773D01*
X8425647D01*
Y6649874D01*
X8426096D01*
Y6648975D01*
X8426546D01*
Y6648076D01*
X8426995D01*
Y6647626D01*
X8427444D01*
Y6646727D01*
X8427894D01*
Y6645828D01*
X8428344D01*
Y6644929D01*
X8428793D01*
Y6644030D01*
X8429242D01*
Y6643581D01*
X8429692D01*
Y6642682D01*
X8430141D01*
Y6641783D01*
X8430591D01*
Y6641333D01*
X8431041D01*
Y6640434D01*
X8431490D01*
Y6639535D01*
X8431939D01*
Y6639086D01*
X8432389D01*
Y6638187D01*
X8432838D01*
Y6637737D01*
X8433288D01*
Y6636838D01*
X8433738D01*
Y6636389D01*
X8434187D01*
Y6635490D01*
X8434636D01*
Y6634591D01*
X8435086D01*
Y6634141D01*
X8435535D01*
Y6633243D01*
X8435985D01*
Y6632793D01*
X8436434D01*
Y6631894D01*
X8436884D01*
Y6631444D01*
X8437333D01*
Y6630995D01*
X8437783D01*
Y6630096D01*
X8438232D01*
Y6629646D01*
X8438682D01*
Y6628747D01*
X8439131D01*
Y6628298D01*
X8439581D01*
Y6627399D01*
X8440030D01*
Y6626949D01*
X8440480D01*
Y6626500D01*
X8440929D01*
Y6625601D01*
X8441379D01*
Y6625152D01*
X8441828D01*
Y6624702D01*
X8442278D01*
Y6623803D01*
X8442727D01*
Y6623354D01*
X8443177D01*
Y6622904D01*
X8443626D01*
Y6622005D01*
X8444076D01*
Y6621555D01*
X8444525D01*
Y6621106D01*
X8444975D01*
Y6620207D01*
X8445424D01*
Y6619758D01*
X8445874D01*
Y6619308D01*
X8446323D01*
Y6618858D01*
X8446773D01*
Y6617960D01*
X8447222D01*
Y6617510D01*
X8447672D01*
Y6617061D01*
X8448121D01*
Y6616611D01*
X8448571D01*
Y6615712D01*
X8449020D01*
Y6615263D01*
X8449470D01*
Y6614813D01*
X8449919D01*
Y6614364D01*
X8450369D01*
Y6613914D01*
X8450818D01*
Y6613465D01*
X8451268D01*
Y6612566D01*
X8451717D01*
Y6612116D01*
X8452167D01*
Y6611667D01*
X8452616D01*
Y6611217D01*
X8453066D01*
Y6610768D01*
X8453515D01*
Y6610318D01*
X8453965D01*
Y6609869D01*
X8454414D01*
Y6608970D01*
X8454864D01*
Y6608520D01*
X8455313D01*
Y6608071D01*
X8455763D01*
Y6607621D01*
X8456212D01*
Y6607172D01*
X8456662D01*
Y6606722D01*
X8457111D01*
Y6606273D01*
X8457561D01*
Y6605823D01*
X8458010D01*
Y6605374D01*
X8458460D01*
Y6604924D01*
X8458909D01*
Y6604475D01*
X8459359D01*
Y6604025D01*
X8459808D01*
Y6603576D01*
X8460258D01*
Y6603126D01*
X8460707D01*
Y6602677D01*
X8461157D01*
Y6602227D01*
X8461606D01*
Y6601778D01*
X8462055D01*
Y6601328D01*
X8462505D01*
Y6600879D01*
X8462955D01*
Y6600429D01*
X8463404D01*
Y6599980D01*
X8463854D01*
Y6599530D01*
X8464303D01*
Y6599081D01*
X8464752D01*
Y6598631D01*
X8465202D01*
Y6598182D01*
X8465652D01*
Y6597732D01*
X8466101D01*
Y6597283D01*
X8466551D01*
Y6596833D01*
X8467000D01*
Y6596384D01*
X8467449D01*
Y6595934D01*
X8467899D01*
Y6595485D01*
X8468349D01*
Y6595035D01*
X8468798D01*
Y6594586D01*
X8469247D01*
Y6594136D01*
X8470146D01*
Y6593687D01*
X8470596D01*
Y6593238D01*
X8471046D01*
Y6592788D01*
X8471495D01*
Y6592338D01*
X8471944D01*
Y6591889D01*
X8472394D01*
Y6591439D01*
X8472843D01*
Y6590990D01*
X8473293D01*
Y6590541D01*
X8474192D01*
Y6590091D01*
X8474641D01*
Y6589641D01*
X8475091D01*
Y6589192D01*
X8475540D01*
Y6588742D01*
X8475990D01*
Y6588293D01*
X8476889D01*
Y6587844D01*
X8477338D01*
Y6587394D01*
X8477788D01*
Y6586944D01*
X8478237D01*
Y6586495D01*
X8479136D01*
Y6586046D01*
X8479586D01*
Y6585596D01*
X8480035D01*
Y6585147D01*
X8480485D01*
Y6584697D01*
X8481384D01*
Y6584247D01*
X8481833D01*
Y6583798D01*
X8482283D01*
Y6583349D01*
X8483182D01*
Y6582899D01*
X8483631D01*
Y6582450D01*
X8484081D01*
Y6582000D01*
X8484530D01*
Y6581550D01*
X8485429D01*
Y6581101D01*
X8485879D01*
Y6580652D01*
X8486778D01*
Y6580202D01*
X8487227D01*
Y6579753D01*
X8487677D01*
Y6579303D01*
X8488576D01*
Y6578853D01*
X8489025D01*
Y6578404D01*
X8489475D01*
Y6577955D01*
X8490374D01*
Y6577505D01*
X8490823D01*
Y6577056D01*
X8491722D01*
Y6576606D01*
X8492172D01*
Y6576157D01*
X8493071D01*
Y6575707D01*
X8493520D01*
Y6575258D01*
X8494419D01*
Y6574808D01*
X8494869D01*
Y6574359D01*
X8495768D01*
Y6573909D01*
X8496217D01*
Y6573460D01*
X8497116D01*
Y6573010D01*
X8497566D01*
Y6572561D01*
X8498465D01*
Y6572111D01*
X8499364D01*
Y6571662D01*
X8499813D01*
Y6571212D01*
X8500712D01*
Y6570763D01*
X8501162D01*
Y6570313D01*
X8502061D01*
Y6569864D01*
X8502960D01*
Y6569414D01*
X8503409D01*
Y6568965D01*
X8504308D01*
Y6568515D01*
X8505207D01*
Y6568066D01*
X8506106D01*
Y6567616D01*
X8506556D01*
Y6567167D01*
X8507455D01*
Y6566717D01*
X8508354D01*
Y6566268D01*
X8509252D01*
Y6565818D01*
X8509702D01*
Y6565369D01*
X8510601D01*
Y6564919D01*
X8511500D01*
Y6564470D01*
X8512399D01*
Y6564020D01*
X8513298D01*
Y6563571D01*
X8514197D01*
Y6563121D01*
X8515096D01*
Y6562672D01*
X8515995D01*
Y6562222D01*
X8516894D01*
Y6561773D01*
X8517793D01*
Y6561323D01*
X8518692D01*
Y6560874D01*
X8519591D01*
Y6560424D01*
X8520490D01*
Y6559975D01*
X8521389D01*
Y6559525D01*
X8522737D01*
Y6559076D01*
X8523636D01*
Y6558626D01*
X8524535D01*
Y6558177D01*
X8525434D01*
Y6557727D01*
X8526333D01*
Y6557278D01*
X8527682D01*
Y6556828D01*
X8528581D01*
Y6556379D01*
X8529480D01*
Y6555929D01*
X8530828D01*
Y6555480D01*
X8531727D01*
Y6555030D01*
X8533076D01*
Y6554581D01*
X8533975D01*
Y6554131D01*
X8535323D01*
Y6553682D01*
X8536672D01*
Y6553232D01*
X8537571D01*
Y6552783D01*
X8538919D01*
Y6552333D01*
X8540268D01*
Y6551884D01*
X8541616D01*
Y6551434D01*
X8542965D01*
Y6550985D01*
X8544313D01*
Y6550535D01*
X8545662D01*
Y6550086D01*
X8547010D01*
Y6549636D01*
X8548359D01*
Y6549187D01*
X8549707D01*
Y6548737D01*
X8551505D01*
Y6548288D01*
X8552854D01*
Y6547838D01*
X8554652D01*
Y6547389D01*
X8556449D01*
Y6546939D01*
X8557798D01*
Y6546490D01*
X8560046D01*
Y6546041D01*
X8561843D01*
Y6545591D01*
X8563641D01*
Y6545141D01*
X8565440D01*
Y6544692D01*
X8567687D01*
Y6544242D01*
X8569934D01*
Y6543793D01*
X8572182D01*
Y6543344D01*
X8574879D01*
Y6542894D01*
X8577576D01*
Y6542444D01*
X8581172D01*
Y6541995D01*
X8584318D01*
Y6541545D01*
X8588364D01*
Y6541096D01*
X8593308D01*
Y6540647D01*
X8600500D01*
Y6540197D01*
X8618929D01*
Y6540647D01*
X8626571D01*
Y6541096D01*
X8631515D01*
Y6541545D01*
X8635561D01*
Y6541995D01*
X8639157D01*
Y6542444D01*
X8641854D01*
Y6542894D01*
X8644551D01*
Y6543344D01*
X8647248D01*
Y6543793D01*
X8649495D01*
Y6544242D01*
X8652192D01*
Y6544692D01*
X8653990D01*
Y6545141D01*
X8656237D01*
Y6545591D01*
X8658036D01*
Y6546041D01*
X8659833D01*
Y6546490D01*
X8661631D01*
Y6546939D01*
X8663429D01*
Y6547389D01*
X8665227D01*
Y6547838D01*
X8666576D01*
Y6548288D01*
X8668374D01*
Y6548737D01*
X8669722D01*
Y6549187D01*
X8671520D01*
Y6549636D01*
X8672869D01*
Y6550086D01*
X8674217D01*
Y6550535D01*
X8675566D01*
Y6550985D01*
X8676914D01*
Y6551434D01*
X8678263D01*
Y6551884D01*
X8679611D01*
Y6552333D01*
X8680960D01*
Y6552783D01*
X8681859D01*
Y6553232D01*
X8683207D01*
Y6553682D01*
X8684556D01*
Y6554131D01*
X8685455D01*
Y6554581D01*
X8686803D01*
Y6555030D01*
X8687702D01*
Y6555480D01*
X8689051D01*
Y6555929D01*
X8689950D01*
Y6556379D01*
X8691298D01*
Y6556828D01*
X8692197D01*
Y6557278D01*
X8693096D01*
Y6557727D01*
X8694445D01*
Y6558177D01*
X8695344D01*
Y6558626D01*
X8696242D01*
Y6559076D01*
X8697142D01*
Y6559525D01*
X8698041D01*
Y6559975D01*
X8698939D01*
Y6560424D01*
X8700288D01*
Y6560874D01*
X8701187D01*
Y6561323D01*
X8702086D01*
Y6561773D01*
X8702985D01*
Y6562222D01*
X8703884D01*
Y6562672D01*
X8704783D01*
Y6563121D01*
X8705682D01*
Y6563571D01*
X8706581D01*
Y6564020D01*
X8707480D01*
Y6564470D01*
X8707929D01*
Y6564919D01*
X8708828D01*
Y6565369D01*
X8709727D01*
Y6565818D01*
X8710626D01*
Y6566268D01*
X8711525D01*
Y6566717D01*
X8712424D01*
Y6567167D01*
X8712874D01*
Y6567616D01*
X8713773D01*
Y6568066D01*
X8714672D01*
Y6568515D01*
X8715121D01*
Y6568965D01*
X8716020D01*
Y6569414D01*
X8716919D01*
Y6569864D01*
X8717818D01*
Y6570313D01*
X8718268D01*
Y6570763D01*
X8719167D01*
Y6571212D01*
X8719616D01*
Y6571662D01*
X8720515D01*
Y6572111D01*
X8721414D01*
Y6572561D01*
X8721864D01*
Y6573010D01*
X8722763D01*
Y6573460D01*
X8723212D01*
Y6573909D01*
X8724111D01*
Y6574359D01*
X8724561D01*
Y6574808D01*
X8725460D01*
Y6575258D01*
X8725909D01*
Y6575707D01*
X8726808D01*
Y6576157D01*
X8727258D01*
Y6576606D01*
X8728157D01*
Y6577056D01*
X8728606D01*
Y6577505D01*
X8729505D01*
Y6577955D01*
X8729955D01*
Y6578404D01*
X8730854D01*
Y6578853D01*
X8731303D01*
Y6579303D01*
X8731753D01*
Y6579753D01*
X8732652D01*
Y6580202D01*
X8733101D01*
Y6580652D01*
X8733551D01*
Y6581101D01*
X8734450D01*
Y6581550D01*
X8734899D01*
Y6582000D01*
X8735798D01*
Y6582450D01*
X8736248D01*
Y6582899D01*
X8736697D01*
Y6583349D01*
X8737147D01*
Y6583798D01*
X8738046D01*
Y6584247D01*
X8738495D01*
Y6584697D01*
X8738945D01*
Y6585147D01*
X8739844D01*
Y6585596D01*
X8740293D01*
Y6586046D01*
X8740742D01*
Y6586495D01*
X8741192D01*
Y6586944D01*
X8742091D01*
Y6587394D01*
X8742541D01*
Y6587844D01*
X8742990D01*
Y6588293D01*
X8743439D01*
Y6588742D01*
X8743889D01*
Y6589192D01*
X8744788D01*
Y6589641D01*
X8745238D01*
Y6590091D01*
X8745687D01*
Y6590541D01*
X8746136D01*
Y6590990D01*
X8746586D01*
Y6591439D01*
X8747036D01*
Y6591889D01*
X8747934D01*
Y6592338D01*
X8748384D01*
Y6592788D01*
X8748833D01*
Y6593238D01*
X8749283D01*
Y6593687D01*
X8749733D01*
Y6594136D01*
X8750182D01*
Y6594586D01*
X8750631D01*
Y6595035D01*
X8751081D01*
Y6595485D01*
X8751530D01*
Y6595934D01*
X8751980D01*
Y6596384D01*
X8752879D01*
Y6596833D01*
X8753328D01*
Y6597283D01*
X8753778D01*
Y6597732D01*
X8754227D01*
Y6598182D01*
X8754677D01*
Y6598631D01*
X8755127D01*
Y6599081D01*
X8755576D01*
Y6599530D01*
X8756025D01*
Y6599980D01*
X8756475D01*
Y6600429D01*
X8756924D01*
Y6600879D01*
X8757374D01*
Y6601328D01*
X8757823D01*
Y6601778D01*
X8758273D01*
Y6602227D01*
X8758722D01*
Y6602677D01*
X8759172D01*
Y6603126D01*
X8759621D01*
Y6603576D01*
X8760071D01*
Y6604025D01*
X8760520D01*
Y6604475D01*
X8760970D01*
Y6604924D01*
X8761419D01*
Y6605374D01*
X8761869D01*
Y6605823D01*
X8762318D01*
Y6606273D01*
X8762768D01*
Y6607172D01*
X8763217D01*
Y6607621D01*
X8763667D01*
Y6608071D01*
X8764116D01*
Y6608520D01*
X8764566D01*
Y6608970D01*
X8765015D01*
Y6609419D01*
X8765465D01*
Y6609869D01*
X8765914D01*
Y6610318D01*
X8766364D01*
Y6610768D01*
X8766813D01*
Y6611217D01*
X8767263D01*
Y6612116D01*
X8767712D01*
Y6612566D01*
X8768162D01*
Y6613015D01*
X8768611D01*
Y6613465D01*
X8769061D01*
Y6613914D01*
X8769510D01*
Y6614364D01*
X8769960D01*
Y6615263D01*
X8770409D01*
Y6615712D01*
X8770859D01*
Y6616162D01*
X8771308D01*
Y6616611D01*
X8771758D01*
Y6617061D01*
X8772207D01*
Y6617960D01*
X8772657D01*
Y6618409D01*
X8773106D01*
Y6618858D01*
X8773556D01*
Y6619308D01*
X8774005D01*
Y6620207D01*
X8774455D01*
Y6620657D01*
X8774904D01*
Y6621106D01*
X8775354D01*
Y6622005D01*
X8775803D01*
Y6622455D01*
X8776253D01*
Y6622904D01*
X8776702D01*
Y6623803D01*
X8777152D01*
Y6624252D01*
X8777601D01*
Y6624702D01*
X8778051D01*
Y6625601D01*
X8778500D01*
Y6626051D01*
X8778950D01*
Y6626500D01*
X8779399D01*
Y6627399D01*
X8779849D01*
Y6627849D01*
X8780298D01*
Y6628298D01*
X8780747D01*
Y6629197D01*
X8781197D01*
Y6629646D01*
X8781647D01*
Y6630546D01*
X8782096D01*
Y6630995D01*
X8782546D01*
Y6631894D01*
X8782995D01*
Y6632343D01*
X8783444D01*
Y6633243D01*
X8783894D01*
Y6633692D01*
X8784344D01*
Y6634591D01*
X8784793D01*
Y6635040D01*
X8785243D01*
Y6635939D01*
X8785692D01*
Y6636389D01*
X8786141D01*
Y6637288D01*
X8786591D01*
Y6637737D01*
X8787041D01*
Y6638636D01*
X8787490D01*
Y6639535D01*
X8787939D01*
Y6639985D01*
X8788389D01*
Y6640884D01*
X8788838D01*
Y6641333D01*
X8789288D01*
Y6642232D01*
X8789738D01*
Y6643131D01*
X8790187D01*
Y6644030D01*
X8790636D01*
Y6644480D01*
X8791086D01*
Y6645379D01*
X8791535D01*
Y6646278D01*
X8791985D01*
Y6647177D01*
X8792435D01*
Y6647626D01*
X8792884D01*
Y6648525D01*
X8793333D01*
Y6649424D01*
X8793783D01*
Y6650323D01*
X8794232D01*
Y6651222D01*
X8794682D01*
Y6652121D01*
X8795132D01*
Y6652571D01*
X8795581D01*
Y6653470D01*
X8796030D01*
Y6654369D01*
X8796480D01*
Y6655268D01*
X8796929D01*
Y6656167D01*
X8797379D01*
Y6657066D01*
X8797828D01*
Y6657965D01*
X8798278D01*
Y6658864D01*
X8798727D01*
Y6660212D01*
X8799177D01*
Y6661111D01*
X8799626D01*
Y6662010D01*
X8800076D01*
Y6662909D01*
X8800525D01*
Y6663808D01*
X8800975D01*
Y6664707D01*
X8801424D01*
Y6666056D01*
X8801874D01*
Y6666955D01*
X8802323D01*
Y6667854D01*
X8802773D01*
Y6669202D01*
X8803222D01*
Y6670101D01*
X8803672D01*
Y6671449D01*
X8804121D01*
Y6672349D01*
X8804571D01*
Y6673697D01*
X8805020D01*
Y6674596D01*
X8805470D01*
Y6675944D01*
X8805919D01*
Y6677293D01*
X8806369D01*
Y6678192D01*
X8806818D01*
Y6679540D01*
X8807268D01*
Y6679990D01*
Y6680440D01*
Y6680889D01*
X8807717D01*
Y6682237D01*
X8808167D01*
Y6683586D01*
X8808616D01*
Y6684934D01*
X8809066D01*
Y6686283D01*
X8809515D01*
Y6687631D01*
X8809965D01*
Y6689429D01*
X8810414D01*
Y6690778D01*
X8810864D01*
Y6692126D01*
X8811313D01*
Y6693924D01*
X8811763D01*
Y6695722D01*
X8812212D01*
Y6697520D01*
X8812662D01*
Y6699318D01*
X8813111D01*
Y6701116D01*
X8813561D01*
Y6702914D01*
X8814010D01*
Y6705162D01*
X8814460D01*
Y6706960D01*
X8814909D01*
Y6709207D01*
X8815359D01*
Y6711904D01*
X8815808D01*
Y6714152D01*
X8816258D01*
Y6716849D01*
X8816707D01*
Y6719995D01*
X8817157D01*
Y6723591D01*
X8817606D01*
Y6727637D01*
X8818056D01*
Y6732581D01*
X8818505D01*
Y6739323D01*
X8818955D01*
Y6759551D01*
X8818505D01*
Y6766293D01*
X8818056D01*
Y6771237D01*
X8817606D01*
Y6775283D01*
X8817157D01*
Y6778429D01*
X8816707D01*
Y6781576D01*
X8816258D01*
Y6784273D01*
X8815808D01*
Y6786970D01*
X8815359D01*
Y6789217D01*
X8814909D01*
Y6791465D01*
X8814460D01*
Y6793712D01*
X8814010D01*
Y6795960D01*
X8813561D01*
Y6797758D01*
X8813111D01*
Y6799556D01*
X8812662D01*
Y6801354D01*
X8812212D01*
Y6803151D01*
X8811763D01*
Y6804950D01*
X8811313D01*
Y6806298D01*
X8810864D01*
Y6808096D01*
X8810414D01*
Y6809445D01*
X8809965D01*
Y6810793D01*
X8809515D01*
Y6812591D01*
X8809066D01*
Y6813939D01*
X8808616D01*
Y6815288D01*
X8808167D01*
Y6816636D01*
X8807717D01*
Y6817985D01*
X8807268D01*
Y6819333D01*
X8806818D01*
Y6820232D01*
X8806369D01*
Y6821581D01*
X8805919D01*
Y6822929D01*
X8805470D01*
Y6823828D01*
X8805020D01*
Y6825177D01*
X8804571D01*
Y6826525D01*
X8804121D01*
Y6827424D01*
X8803672D01*
Y6828323D01*
X8803222D01*
Y6829672D01*
X8802773D01*
Y6830571D01*
X8802323D01*
Y6831919D01*
X8801874D01*
Y6832818D01*
X8801424D01*
Y6833717D01*
X8800975D01*
Y6835066D01*
X8800525D01*
Y6835965D01*
X8800076D01*
Y6836864D01*
X8799626D01*
Y6837763D01*
X8799177D01*
Y6838662D01*
X8798727D01*
Y6839561D01*
X8798278D01*
Y6840460D01*
X8797828D01*
Y6841359D01*
X8797379D01*
Y6842258D01*
X8796929D01*
Y6843157D01*
X8796480D01*
Y6844056D01*
X8796030D01*
Y6844955D01*
X8795581D01*
Y6845854D01*
X8795132D01*
Y6846753D01*
X8794682D01*
Y6847652D01*
X8794232D01*
Y6848551D01*
X8793783D01*
Y6849450D01*
X8793333D01*
Y6850349D01*
X8792884D01*
Y6850798D01*
X8792435D01*
Y6851697D01*
X8791985D01*
Y6852596D01*
X8791535D01*
Y6853495D01*
X8791086D01*
Y6853945D01*
X8790636D01*
Y6854844D01*
X8790187D01*
Y6855742D01*
X8789738D01*
Y6856192D01*
X8789288D01*
Y6857091D01*
X8788838D01*
Y6857990D01*
X8788389D01*
Y6858439D01*
X8787939D01*
Y6859339D01*
X8787490D01*
Y6860237D01*
X8787041D01*
Y6860687D01*
X8786591D01*
Y6861586D01*
X8786141D01*
Y6862036D01*
X8785692D01*
Y6862934D01*
X8785243D01*
Y6863384D01*
X8784793D01*
Y6864283D01*
X8784344D01*
Y6865182D01*
X8783894D01*
Y6865631D01*
X8783444D01*
Y6866530D01*
X8782995D01*
Y6866980D01*
X8782546D01*
Y6867429D01*
X8782096D01*
Y6868328D01*
X8781647D01*
Y6868778D01*
X8781197D01*
Y6869677D01*
X8780747D01*
Y6870126D01*
X8780298D01*
Y6871025D01*
X8779849D01*
Y6871475D01*
X8779399D01*
Y6871924D01*
X8778950D01*
Y6872823D01*
X8778500D01*
Y6873273D01*
X8778051D01*
Y6873722D01*
X8777601D01*
Y6874621D01*
X8777152D01*
Y6875071D01*
X8776702D01*
Y6875520D01*
X8776253D01*
Y6876419D01*
X8775803D01*
Y6876869D01*
X8775354D01*
Y6877318D01*
X8774904D01*
Y6878217D01*
X8774455D01*
Y6878667D01*
X8774005D01*
Y6879116D01*
X8773556D01*
Y6879566D01*
X8773106D01*
Y6880465D01*
X8772657D01*
Y6880914D01*
X8772207D01*
Y6881364D01*
X8771758D01*
Y6881813D01*
X8771308D01*
Y6882712D01*
X8770859D01*
Y6883162D01*
X8770409D01*
Y6883611D01*
X8769960D01*
Y6884061D01*
X8769510D01*
Y6884510D01*
X8769061D01*
Y6884960D01*
X8768611D01*
Y6885859D01*
X8768162D01*
Y6886308D01*
X8767712D01*
Y6886758D01*
X8767263D01*
Y6887207D01*
X8766813D01*
Y6887657D01*
X8766364D01*
Y6888106D01*
X8765914D01*
Y6889005D01*
X8765465D01*
Y6889455D01*
X8765015D01*
Y6889904D01*
X8764566D01*
Y6890354D01*
X8764116D01*
Y6890803D01*
X8763667D01*
Y6891253D01*
X8763217D01*
Y6891702D01*
X8762768D01*
Y6892152D01*
X8762318D01*
Y6892601D01*
X8761869D01*
Y6893051D01*
X8761419D01*
Y6893500D01*
X8760970D01*
Y6893950D01*
X8760520D01*
Y6894399D01*
X8760071D01*
Y6894849D01*
X8759621D01*
Y6895298D01*
X8759172D01*
Y6895748D01*
X8758722D01*
Y6896197D01*
X8758273D01*
Y6897096D01*
X8757823D01*
Y6897546D01*
X8757374D01*
Y6897995D01*
X8756475D01*
Y6898444D01*
X8756025D01*
Y6898894D01*
X8755576D01*
Y6899344D01*
X8755127D01*
Y6899793D01*
X8754677D01*
Y6900242D01*
X8754227D01*
Y6900692D01*
X8753778D01*
Y6901141D01*
X8753328D01*
Y6901591D01*
X8752879D01*
Y6902041D01*
X8752430D01*
Y6902490D01*
X8751980D01*
Y6902939D01*
X8751530D01*
Y6903389D01*
X8751081D01*
Y6903838D01*
X8750631D01*
Y6904288D01*
X8750182D01*
Y6904738D01*
X8749733D01*
Y6905187D01*
X8748833D01*
Y6905636D01*
X8748384D01*
Y6906086D01*
X8747934D01*
Y6906535D01*
X8747485D01*
Y6906985D01*
X8747036D01*
Y6907434D01*
X8746586D01*
Y6907884D01*
X8746136D01*
Y6908333D01*
X8745238D01*
Y6908783D01*
X8744788D01*
Y6909232D01*
X8744339D01*
Y6909682D01*
X8743889D01*
Y6910131D01*
X8743439D01*
Y6910581D01*
X8742541D01*
Y6911030D01*
X8742091D01*
Y6911480D01*
X8741642D01*
Y6911929D01*
X8741192D01*
Y6912379D01*
X8740742D01*
Y6912828D01*
X8739844D01*
Y6913278D01*
X8739394D01*
Y6913727D01*
X8738945D01*
Y6914177D01*
X8738046D01*
Y6914626D01*
X8737596D01*
Y6915076D01*
X8737147D01*
Y6915525D01*
X8736697D01*
Y6915975D01*
X8735798D01*
Y6916424D01*
X8735349D01*
Y6916874D01*
X8734899D01*
Y6917323D01*
X8734000D01*
Y6917773D01*
X8733551D01*
Y6918222D01*
X8732652D01*
Y6918672D01*
X8732202D01*
Y6919121D01*
X8731753D01*
Y6919571D01*
X8730854D01*
Y6920020D01*
X8730404D01*
Y6920470D01*
X8729955D01*
Y6920919D01*
X8729056D01*
Y6921369D01*
X8728606D01*
Y6921818D01*
X8727707D01*
Y6922268D01*
X8727258D01*
Y6922717D01*
X8726359D01*
Y6923167D01*
X8725909D01*
Y6923616D01*
X8725010D01*
Y6924066D01*
X8724561D01*
Y6924515D01*
X8723662D01*
Y6924965D01*
X8723212D01*
Y6925414D01*
X8722313D01*
Y6925864D01*
X8721864D01*
Y6926313D01*
X8720965D01*
Y6926763D01*
X8720066D01*
Y6927212D01*
X8719616D01*
Y6927662D01*
X8718717D01*
Y6928111D01*
X8717818D01*
Y6928561D01*
X8717369D01*
Y6929010D01*
X8716470D01*
Y6929460D01*
X8715571D01*
Y6929909D01*
X8715121D01*
Y6930359D01*
X8714222D01*
Y6930808D01*
X8713323D01*
Y6931258D01*
X8712874D01*
Y6931707D01*
X8711975D01*
Y6932157D01*
X8711076D01*
Y6932606D01*
X8710177D01*
Y6933056D01*
X8709278D01*
Y6933505D01*
X8708379D01*
Y6933955D01*
X8707929D01*
Y6934404D01*
X8707030D01*
Y6934854D01*
X8706131D01*
Y6935303D01*
X8705233D01*
Y6935753D01*
X8704333D01*
Y6936202D01*
X8703434D01*
Y6936652D01*
X8702536D01*
Y6937101D01*
X8701636D01*
Y6937551D01*
X8700737D01*
Y6938000D01*
X8699839D01*
Y6938450D01*
X8698939D01*
Y6938899D01*
X8698041D01*
Y6939349D01*
X8696692D01*
Y6939798D01*
X8695793D01*
Y6940247D01*
X8694894D01*
Y6940697D01*
X8693995D01*
Y6941147D01*
X8692647D01*
Y6941596D01*
X8691748D01*
Y6942046D01*
X8690849D01*
Y6942495D01*
X8689500D01*
Y6942944D01*
X8688601D01*
Y6943394D01*
X8687253D01*
Y6943844D01*
X8686354D01*
Y6944293D01*
X8685005D01*
Y6944743D01*
X8684106D01*
Y6945192D01*
X8682758D01*
Y6945641D01*
X8681409D01*
Y6946091D01*
X8680061D01*
Y6946541D01*
X8679162D01*
Y6946990D01*
X8677813D01*
Y6947439D01*
X8676465D01*
Y6947889D01*
X8675116D01*
Y6948338D01*
X8673768D01*
Y6948788D01*
X8671970D01*
Y6949238D01*
X8670621D01*
Y6949687D01*
X8669273D01*
Y6950136D01*
X8667475D01*
Y6950586D01*
X8666126D01*
Y6951035D01*
X8664328D01*
Y6951485D01*
X8662530D01*
Y6951935D01*
X8661182D01*
Y6952384D01*
X8659384D01*
Y6952833D01*
X8657136D01*
Y6953283D01*
X8655339D01*
Y6953732D01*
X8653091D01*
Y6954182D01*
X8651293D01*
Y6954632D01*
X8648596D01*
Y6955081D01*
X8646348D01*
Y6955530D01*
X8643651D01*
Y6955980D01*
X8640505D01*
Y6956429D01*
X8637359D01*
Y6956879D01*
X8633763D01*
Y6957328D01*
X8629268D01*
Y6957778D01*
X8623874D01*
Y6958227D01*
X8610839D01*
Y6958677D01*
D02*
G37*
%LPD*%
G36*
X8667924Y6866081D02*
X8669273D01*
Y6865631D01*
X8670172D01*
Y6865182D01*
X8670621D01*
Y6864733D01*
X8671071D01*
Y6863833D01*
X8671520D01*
Y6848551D01*
X8671071D01*
Y6847652D01*
X8670621D01*
Y6847202D01*
X8670172D01*
Y6846753D01*
X8669722D01*
Y6846303D01*
X8668823D01*
Y6845854D01*
X8665677D01*
Y6846303D01*
X8665227D01*
Y6846753D01*
X8664328D01*
Y6847652D01*
X8663879D01*
Y6848101D01*
X8663429D01*
Y6863833D01*
X8663879D01*
Y6864733D01*
X8664328D01*
Y6865182D01*
X8664778D01*
Y6865631D01*
X8665677D01*
Y6866081D01*
X8667025D01*
Y6866530D01*
X8667924D01*
Y6866081D01*
D02*
G37*
G36*
X8645000D02*
X8646348D01*
Y6865631D01*
X8647248D01*
Y6865182D01*
X8647697D01*
Y6864283D01*
X8648147D01*
Y6863384D01*
X8648596D01*
Y6848551D01*
X8648147D01*
Y6848101D01*
Y6847652D01*
X8647697D01*
Y6847202D01*
X8647248D01*
Y6846753D01*
X8646798D01*
Y6846303D01*
X8645899D01*
Y6845854D01*
X8642753D01*
Y6846303D01*
X8641854D01*
Y6846753D01*
X8641404D01*
Y6847202D01*
X8640955D01*
Y6848101D01*
X8640505D01*
Y6849450D01*
X8640056D01*
Y6862485D01*
X8640505D01*
Y6864283D01*
X8640955D01*
Y6864733D01*
X8641404D01*
Y6865182D01*
X8641854D01*
Y6865631D01*
X8642303D01*
Y6866081D01*
X8644101D01*
Y6866530D01*
X8645000D01*
Y6866081D01*
D02*
G37*
G36*
X8621626D02*
X8623424D01*
Y6865631D01*
X8623874D01*
Y6865182D01*
X8624323D01*
Y6864733D01*
X8624773D01*
Y6864283D01*
X8625222D01*
Y6862934D01*
X8625672D01*
Y6849000D01*
X8625222D01*
Y6847652D01*
X8624773D01*
Y6847202D01*
X8624323D01*
Y6846753D01*
X8623874D01*
Y6846303D01*
X8622975D01*
Y6845854D01*
X8619828D01*
Y6846303D01*
X8618929D01*
Y6846753D01*
X8618480D01*
Y6847202D01*
X8618030D01*
Y6847652D01*
X8617581D01*
Y6849000D01*
X8617131D01*
Y6851697D01*
Y6852147D01*
Y6863384D01*
X8617581D01*
Y6864283D01*
X8618030D01*
Y6864733D01*
X8618480D01*
Y6865182D01*
X8618929D01*
Y6865631D01*
X8619379D01*
Y6866081D01*
X8621177D01*
Y6866530D01*
X8621626D01*
Y6866081D01*
D02*
G37*
G36*
X8598702D02*
X8600051D01*
Y6865631D01*
X8600950D01*
Y6865182D01*
X8601399D01*
Y6864733D01*
X8601849D01*
Y6863833D01*
X8602298D01*
Y6848101D01*
X8601849D01*
Y6847202D01*
X8601399D01*
Y6846753D01*
X8600950D01*
Y6846303D01*
X8600051D01*
Y6845854D01*
X8596455D01*
Y6846303D01*
X8596005D01*
Y6846753D01*
X8595106D01*
Y6847652D01*
X8594657D01*
Y6848551D01*
X8594207D01*
Y6863833D01*
X8594657D01*
Y6864733D01*
X8595106D01*
Y6865182D01*
X8595556D01*
Y6865631D01*
X8596455D01*
Y6866081D01*
X8597803D01*
Y6866530D01*
X8598702D01*
Y6866081D01*
D02*
G37*
G36*
X8575778D02*
X8577126D01*
Y6865631D01*
X8578025D01*
Y6865182D01*
X8578475D01*
Y6864733D01*
X8578924D01*
Y6863833D01*
X8579374D01*
Y6848551D01*
X8578924D01*
Y6847652D01*
X8578475D01*
Y6847202D01*
X8578025D01*
Y6846753D01*
X8577576D01*
Y6846303D01*
X8577126D01*
Y6845854D01*
X8573530D01*
Y6846303D01*
X8572631D01*
Y6846753D01*
X8572182D01*
Y6847202D01*
X8571732D01*
Y6848101D01*
X8571283D01*
Y6863833D01*
X8571732D01*
Y6864733D01*
X8572182D01*
Y6865182D01*
X8572631D01*
Y6865631D01*
X8573530D01*
Y6866081D01*
X8574879D01*
Y6866530D01*
X8575778D01*
Y6866081D01*
D02*
G37*
G36*
X8552404D02*
X8554202D01*
Y6865631D01*
X8554652D01*
Y6865182D01*
X8555101D01*
Y6864733D01*
X8555551D01*
Y6864283D01*
X8556000D01*
Y6863384D01*
X8556449D01*
Y6848551D01*
X8556000D01*
Y6847652D01*
X8555551D01*
Y6847202D01*
X8555101D01*
Y6846753D01*
X8554652D01*
Y6846303D01*
X8553753D01*
Y6845854D01*
X8550606D01*
Y6846303D01*
X8549707D01*
Y6846753D01*
X8549258D01*
Y6847202D01*
X8548808D01*
Y6848101D01*
X8548359D01*
Y6849000D01*
X8547909D01*
Y6862934D01*
X8548359D01*
Y6863384D01*
Y6864283D01*
X8548808D01*
Y6864733D01*
X8549258D01*
Y6865182D01*
X8549707D01*
Y6865631D01*
X8550157D01*
Y6866081D01*
X8551955D01*
Y6866530D01*
X8552404D01*
Y6866081D01*
D02*
G37*
G36*
X8723662Y6810793D02*
X8724561D01*
Y6810344D01*
X8725460D01*
Y6809894D01*
X8725909D01*
Y6808995D01*
X8726359D01*
Y6808096D01*
X8726808D01*
Y6805848D01*
X8726359D01*
Y6804950D01*
X8725909D01*
Y6804051D01*
X8725460D01*
Y6803601D01*
X8724561D01*
Y6803151D01*
X8723662D01*
Y6802702D01*
X8709278D01*
Y6803151D01*
X8708379D01*
Y6803601D01*
X8707480D01*
Y6804051D01*
X8707030D01*
Y6804950D01*
X8706581D01*
Y6805848D01*
X8706131D01*
Y6808096D01*
X8706581D01*
Y6808995D01*
X8707030D01*
Y6809894D01*
X8707480D01*
Y6810344D01*
X8708379D01*
Y6810793D01*
X8709278D01*
Y6811242D01*
X8723662D01*
Y6810793D01*
D02*
G37*
G36*
X8510152D02*
X8511500D01*
Y6810344D01*
X8511949D01*
Y6809894D01*
X8512399D01*
Y6809445D01*
X8512849D01*
Y6808995D01*
X8513298D01*
Y6804950D01*
X8512849D01*
Y6804500D01*
X8512399D01*
Y6804051D01*
X8511949D01*
Y6803601D01*
X8511500D01*
Y6803151D01*
X8510601D01*
Y6802702D01*
X8495768D01*
Y6803151D01*
X8494869D01*
Y6803601D01*
X8494419D01*
Y6804051D01*
X8493970D01*
Y6804500D01*
X8493520D01*
Y6805399D01*
X8493071D01*
Y6808545D01*
X8493520D01*
Y6809445D01*
X8493970D01*
Y6809894D01*
X8494419D01*
Y6810344D01*
X8494869D01*
Y6810793D01*
X8496217D01*
Y6811242D01*
X8510152D01*
Y6810793D01*
D02*
G37*
G36*
X8724561Y6787419D02*
X8725010D01*
Y6786970D01*
X8725909D01*
Y6786071D01*
X8726359D01*
Y6785172D01*
X8726808D01*
Y6782475D01*
X8726359D01*
Y6781576D01*
X8725909D01*
Y6781126D01*
X8725460D01*
Y6780677D01*
X8725010D01*
Y6780227D01*
X8724111D01*
Y6779778D01*
X8708828D01*
Y6780227D01*
X8707929D01*
Y6780677D01*
X8707480D01*
Y6781126D01*
X8707030D01*
Y6782025D01*
X8706581D01*
Y6782924D01*
X8706131D01*
Y6785172D01*
X8706581D01*
Y6786071D01*
X8707030D01*
Y6786520D01*
X8707480D01*
Y6786970D01*
X8707929D01*
Y6787419D01*
X8708379D01*
Y6787869D01*
X8724561D01*
Y6787419D01*
D02*
G37*
G36*
X8511051D02*
X8511949D01*
Y6786970D01*
X8512399D01*
Y6786520D01*
X8512849D01*
Y6785621D01*
X8513298D01*
Y6782025D01*
X8512849D01*
Y6781126D01*
X8512399D01*
Y6780677D01*
X8511500D01*
Y6780227D01*
X8510601D01*
Y6779778D01*
X8495768D01*
Y6780227D01*
X8494869D01*
Y6780677D01*
X8494419D01*
Y6781126D01*
X8493970D01*
Y6781576D01*
X8493520D01*
Y6782025D01*
X8493071D01*
Y6785621D01*
X8493520D01*
Y6786520D01*
X8493970D01*
Y6786970D01*
X8494419D01*
Y6787419D01*
X8495318D01*
Y6787869D01*
X8511051D01*
Y6787419D01*
D02*
G37*
G36*
X8724111Y6764495D02*
X8725010D01*
Y6764045D01*
X8725460D01*
Y6763596D01*
X8725909D01*
Y6763146D01*
X8726359D01*
Y6762248D01*
X8726808D01*
Y6759551D01*
X8726359D01*
Y6758651D01*
X8725909D01*
Y6758202D01*
X8725460D01*
Y6757753D01*
X8725010D01*
Y6757303D01*
X8724561D01*
Y6756854D01*
X8708828D01*
Y6757303D01*
X8707929D01*
Y6757753D01*
X8707480D01*
Y6758202D01*
X8707030D01*
Y6758651D01*
X8706581D01*
Y6760000D01*
X8706131D01*
Y6761798D01*
X8706581D01*
Y6763146D01*
X8707030D01*
Y6763596D01*
X8707480D01*
Y6764045D01*
X8707929D01*
Y6764495D01*
X8708828D01*
Y6764945D01*
X8724111D01*
Y6764495D01*
D02*
G37*
G36*
X8511051D02*
X8511949D01*
Y6764045D01*
X8512399D01*
Y6763596D01*
X8512849D01*
Y6762697D01*
X8513298D01*
Y6759101D01*
X8512849D01*
Y6758202D01*
X8512399D01*
Y6757753D01*
X8511949D01*
Y6757303D01*
X8511051D01*
Y6756854D01*
X8495318D01*
Y6757303D01*
X8494869D01*
Y6757753D01*
X8493970D01*
Y6758651D01*
X8493520D01*
Y6759101D01*
X8493071D01*
Y6762697D01*
X8493520D01*
Y6763146D01*
X8493970D01*
Y6764045D01*
X8494869D01*
Y6764495D01*
X8495318D01*
Y6764945D01*
X8511051D01*
Y6764495D01*
D02*
G37*
G36*
X8723662Y6741571D02*
X8725010D01*
Y6741121D01*
X8725460D01*
Y6740672D01*
X8725909D01*
Y6740222D01*
X8726359D01*
Y6739323D01*
X8726808D01*
Y6736626D01*
X8726359D01*
Y6735727D01*
X8725909D01*
Y6734828D01*
X8725460D01*
Y6734379D01*
X8724561D01*
Y6733929D01*
X8723662D01*
Y6733480D01*
X8709727D01*
Y6733929D01*
X8708379D01*
Y6734379D01*
X8707929D01*
Y6734828D01*
X8707480D01*
Y6735278D01*
X8707030D01*
Y6735727D01*
X8706581D01*
Y6737076D01*
X8706131D01*
Y6738424D01*
X8706581D01*
Y6739773D01*
X8707030D01*
Y6740672D01*
X8707480D01*
Y6741121D01*
X8708379D01*
Y6741571D01*
X8709278D01*
Y6742020D01*
X8723662D01*
Y6741571D01*
D02*
G37*
G36*
X8510601D02*
X8511500D01*
Y6741121D01*
X8511949D01*
Y6740672D01*
X8512399D01*
Y6740222D01*
X8512849D01*
Y6739773D01*
X8513298D01*
Y6737975D01*
Y6737525D01*
Y6735727D01*
X8512849D01*
Y6735278D01*
X8512399D01*
Y6734828D01*
X8511949D01*
Y6734379D01*
X8511500D01*
Y6733929D01*
X8510152D01*
Y6733480D01*
X8496217D01*
Y6733929D01*
X8495318D01*
Y6734379D01*
X8494419D01*
Y6734828D01*
X8493970D01*
Y6735278D01*
X8493520D01*
Y6736177D01*
X8493071D01*
Y6739323D01*
X8493520D01*
Y6740222D01*
X8493970D01*
Y6740672D01*
X8494419D01*
Y6741121D01*
X8494869D01*
Y6741571D01*
X8495768D01*
Y6742020D01*
X8510601D01*
Y6741571D01*
D02*
G37*
G36*
X8723212Y6718646D02*
X8724561D01*
Y6718197D01*
X8725460D01*
Y6717748D01*
X8725909D01*
Y6717298D01*
X8726359D01*
Y6716399D01*
X8726808D01*
Y6713253D01*
X8726359D01*
Y6712354D01*
X8725909D01*
Y6711904D01*
X8725460D01*
Y6711455D01*
X8725010D01*
Y6711005D01*
X8723662D01*
Y6710556D01*
X8709278D01*
Y6711005D01*
X8708379D01*
Y6711455D01*
X8707480D01*
Y6711904D01*
X8707030D01*
Y6712803D01*
X8706581D01*
Y6713702D01*
X8706131D01*
Y6715949D01*
X8706581D01*
Y6716849D01*
X8707030D01*
Y6717298D01*
X8707480D01*
Y6717748D01*
X8707929D01*
Y6718197D01*
X8708379D01*
Y6718646D01*
X8709727D01*
Y6719096D01*
X8723212D01*
Y6718646D01*
D02*
G37*
G36*
X8510152D02*
X8511500D01*
Y6718197D01*
X8511949D01*
Y6717748D01*
X8512399D01*
Y6717298D01*
X8512849D01*
Y6716849D01*
X8513298D01*
Y6712803D01*
X8512849D01*
Y6712354D01*
X8512399D01*
Y6711904D01*
X8511949D01*
Y6711455D01*
X8511500D01*
Y6711005D01*
X8510601D01*
Y6710556D01*
X8495768D01*
Y6711005D01*
X8494869D01*
Y6711455D01*
X8494419D01*
Y6711904D01*
X8493970D01*
Y6712354D01*
X8493520D01*
Y6713253D01*
X8493071D01*
Y6716399D01*
X8493520D01*
Y6717298D01*
X8493970D01*
Y6717748D01*
X8494419D01*
Y6718197D01*
X8494869D01*
Y6718646D01*
X8496217D01*
Y6719096D01*
X8510152D01*
Y6718646D01*
D02*
G37*
G36*
X8724561Y6695273D02*
X8725010D01*
Y6694823D01*
X8725909D01*
Y6693924D01*
X8726359D01*
Y6693025D01*
X8726808D01*
Y6690328D01*
X8726359D01*
Y6689879D01*
Y6689429D01*
X8725909D01*
Y6688980D01*
X8725460D01*
Y6688530D01*
X8725010D01*
Y6688081D01*
X8724111D01*
Y6687631D01*
X8708828D01*
Y6688081D01*
X8707929D01*
Y6688530D01*
X8707480D01*
Y6688980D01*
X8707030D01*
Y6689429D01*
X8706581D01*
Y6690778D01*
X8706131D01*
Y6692576D01*
X8706581D01*
Y6693924D01*
X8707030D01*
Y6694374D01*
X8707480D01*
Y6694823D01*
X8707929D01*
Y6695273D01*
X8708379D01*
Y6695722D01*
X8724561D01*
Y6695273D01*
D02*
G37*
G36*
X8511051D02*
X8511949D01*
Y6694823D01*
X8512399D01*
Y6694374D01*
X8512849D01*
Y6693475D01*
X8513298D01*
Y6689879D01*
X8512849D01*
Y6688980D01*
X8512399D01*
Y6688530D01*
X8511500D01*
Y6688081D01*
X8511051D01*
Y6687631D01*
X8495318D01*
Y6688081D01*
X8494869D01*
Y6688530D01*
X8493970D01*
Y6689429D01*
X8493520D01*
Y6689879D01*
X8493071D01*
Y6693475D01*
X8493520D01*
Y6694374D01*
X8493970D01*
Y6694823D01*
X8494419D01*
Y6695273D01*
X8495318D01*
Y6695722D01*
X8511051D01*
Y6695273D01*
D02*
G37*
G36*
X8682308Y6839561D02*
X8684556D01*
Y6839111D01*
X8686354D01*
Y6838662D01*
X8687702D01*
Y6838212D01*
X8688601D01*
Y6837763D01*
X8689500D01*
Y6837313D01*
X8690399D01*
Y6836864D01*
X8690849D01*
Y6836414D01*
X8691748D01*
Y6835965D01*
X8692197D01*
Y6835515D01*
X8693096D01*
Y6835066D01*
X8693545D01*
Y6834616D01*
X8693995D01*
Y6834167D01*
X8694445D01*
Y6833717D01*
X8694894D01*
Y6833268D01*
X8695344D01*
Y6832818D01*
X8695793D01*
Y6831919D01*
X8696242D01*
Y6831470D01*
X8696692D01*
Y6831020D01*
X8697142D01*
Y6830121D01*
X8697591D01*
Y6829222D01*
X8698041D01*
Y6828773D01*
X8698490D01*
Y6827424D01*
X8698939D01*
Y6826525D01*
X8699389D01*
Y6825177D01*
X8699839D01*
Y6823379D01*
X8700288D01*
Y6808995D01*
Y6808545D01*
Y6675495D01*
X8699839D01*
Y6673697D01*
X8699389D01*
Y6672349D01*
X8698939D01*
Y6671000D01*
X8698490D01*
Y6670101D01*
X8698041D01*
Y6669202D01*
X8697591D01*
Y6668752D01*
X8697142D01*
Y6667854D01*
X8696692D01*
Y6667404D01*
X8696242D01*
Y6666505D01*
X8695793D01*
Y6666056D01*
X8695344D01*
Y6665606D01*
X8694894D01*
Y6665157D01*
X8694445D01*
Y6664707D01*
X8693995D01*
Y6664258D01*
X8693545D01*
Y6663808D01*
X8693096D01*
Y6663359D01*
X8692647D01*
Y6662909D01*
X8691748D01*
Y6662460D01*
X8691298D01*
Y6662010D01*
X8690399D01*
Y6661561D01*
X8689950D01*
Y6661111D01*
X8689051D01*
Y6660662D01*
X8688152D01*
Y6660212D01*
X8686803D01*
Y6659763D01*
X8685455D01*
Y6659313D01*
X8683657D01*
Y6658864D01*
X8535773D01*
Y6659313D01*
X8533975D01*
Y6659763D01*
X8533076D01*
Y6660212D01*
X8531727D01*
Y6660662D01*
X8530828D01*
Y6661111D01*
X8529929D01*
Y6661561D01*
X8529030D01*
Y6662010D01*
X8528131D01*
Y6662460D01*
X8527682D01*
Y6662909D01*
X8527232D01*
Y6663359D01*
X8526783D01*
Y6663808D01*
X8525884D01*
Y6664258D01*
X8525434D01*
Y6664707D01*
X8524985D01*
Y6665157D01*
X8524535D01*
Y6665606D01*
X8524086D01*
Y6666505D01*
X8523636D01*
Y6666955D01*
X8523187D01*
Y6667404D01*
X8522737D01*
Y6668303D01*
X8522288D01*
Y6668752D01*
X8521838D01*
Y6669652D01*
X8521389D01*
Y6670551D01*
X8520940D01*
Y6671899D01*
X8520490D01*
Y6672798D01*
X8520040D01*
Y6674596D01*
X8519591D01*
Y6676843D01*
X8519141D01*
Y6821581D01*
X8519591D01*
Y6824278D01*
X8520040D01*
Y6825626D01*
X8520490D01*
Y6826975D01*
X8520940D01*
Y6827874D01*
X8521389D01*
Y6828773D01*
X8521838D01*
Y6829672D01*
X8522288D01*
Y6830571D01*
X8522737D01*
Y6831020D01*
X8523187D01*
Y6831919D01*
X8523636D01*
Y6832369D01*
X8524086D01*
Y6832818D01*
X8524535D01*
Y6833268D01*
X8524985D01*
Y6833717D01*
X8525434D01*
Y6834167D01*
X8525884D01*
Y6834616D01*
X8526333D01*
Y6835066D01*
X8526783D01*
Y6835515D01*
X8527232D01*
Y6835965D01*
X8528131D01*
Y6836414D01*
X8528581D01*
Y6836864D01*
X8529480D01*
Y6837313D01*
X8530379D01*
Y6837763D01*
X8531278D01*
Y6838212D01*
X8532177D01*
Y6838662D01*
X8533525D01*
Y6839111D01*
X8534874D01*
Y6839561D01*
X8537121D01*
Y6840010D01*
X8682308D01*
Y6839561D01*
D02*
G37*
G36*
X8668823Y6652571D02*
X8669722D01*
Y6652121D01*
X8670172D01*
Y6651672D01*
X8670621D01*
Y6651222D01*
X8671071D01*
Y6650323D01*
X8671520D01*
Y6635040D01*
X8671071D01*
Y6634141D01*
X8670621D01*
Y6633692D01*
X8670172D01*
Y6633243D01*
X8669722D01*
Y6632793D01*
X8668374D01*
Y6632343D01*
X8666576D01*
Y6632793D01*
X8665227D01*
Y6633243D01*
X8664778D01*
Y6633692D01*
X8664328D01*
Y6634141D01*
X8663879D01*
Y6635040D01*
X8663429D01*
Y6650773D01*
X8663879D01*
Y6651222D01*
X8664328D01*
Y6651672D01*
X8664778D01*
Y6652121D01*
X8665227D01*
Y6652571D01*
X8666126D01*
Y6653020D01*
X8668823D01*
Y6652571D01*
D02*
G37*
G36*
X8645899D02*
X8646798D01*
Y6652121D01*
X8647248D01*
Y6651672D01*
X8647697D01*
Y6651222D01*
X8648147D01*
Y6650323D01*
X8648596D01*
Y6635490D01*
X8648147D01*
Y6634141D01*
X8647697D01*
Y6633692D01*
X8647248D01*
Y6633243D01*
X8646798D01*
Y6632793D01*
X8645450D01*
Y6632343D01*
X8643202D01*
Y6632793D01*
X8642303D01*
Y6633243D01*
X8641854D01*
Y6633692D01*
X8641404D01*
Y6634141D01*
X8640955D01*
Y6634591D01*
X8640505D01*
Y6636389D01*
X8640056D01*
Y6643581D01*
Y6644030D01*
Y6649424D01*
X8640505D01*
Y6650773D01*
X8640955D01*
Y6651672D01*
X8641404D01*
Y6652121D01*
X8642303D01*
Y6652571D01*
X8643202D01*
Y6653020D01*
X8645899D01*
Y6652571D01*
D02*
G37*
G36*
X8622525D02*
X8623874D01*
Y6652121D01*
X8624323D01*
Y6651672D01*
X8624773D01*
Y6650773D01*
X8625222D01*
Y6649874D01*
X8625672D01*
Y6635490D01*
X8625222D01*
Y6634591D01*
X8624773D01*
Y6633692D01*
X8624323D01*
Y6633243D01*
X8623424D01*
Y6632793D01*
X8622525D01*
Y6632343D01*
X8620278D01*
Y6632793D01*
X8619379D01*
Y6633243D01*
X8618480D01*
Y6633692D01*
X8618030D01*
Y6634591D01*
X8617581D01*
Y6635490D01*
X8617131D01*
Y6649874D01*
X8617581D01*
Y6650773D01*
X8618030D01*
Y6651672D01*
X8618480D01*
Y6652121D01*
X8618929D01*
Y6652571D01*
X8620278D01*
Y6653020D01*
X8622525D01*
Y6652571D01*
D02*
G37*
G36*
X8599601D02*
X8600500D01*
Y6652121D01*
X8600950D01*
Y6651672D01*
X8601399D01*
Y6651222D01*
X8601849D01*
Y6650773D01*
X8602298D01*
Y6635040D01*
X8601849D01*
Y6634141D01*
X8601399D01*
Y6633692D01*
X8600950D01*
Y6633243D01*
X8600500D01*
Y6632793D01*
X8599601D01*
Y6632343D01*
X8597354D01*
Y6632793D01*
X8596005D01*
Y6633243D01*
X8595556D01*
Y6633692D01*
X8595106D01*
Y6634141D01*
X8594657D01*
Y6635040D01*
X8594207D01*
Y6635490D01*
Y6635939D01*
Y6650323D01*
X8594657D01*
Y6651222D01*
X8595106D01*
Y6651672D01*
X8595556D01*
Y6652121D01*
X8596005D01*
Y6652571D01*
X8596904D01*
Y6653020D01*
X8599601D01*
Y6652571D01*
D02*
G37*
G36*
X8576677D02*
X8577576D01*
Y6652121D01*
X8578025D01*
Y6651672D01*
X8578475D01*
Y6651222D01*
X8578924D01*
Y6650323D01*
X8579374D01*
Y6635040D01*
X8578924D01*
Y6634141D01*
X8578475D01*
Y6633692D01*
X8578025D01*
Y6633243D01*
X8577576D01*
Y6632793D01*
X8576227D01*
Y6632343D01*
X8573980D01*
Y6632793D01*
X8573081D01*
Y6633243D01*
X8572631D01*
Y6633692D01*
X8572182D01*
Y6634141D01*
X8571732D01*
Y6634591D01*
X8571283D01*
Y6650773D01*
X8571732D01*
Y6651222D01*
X8572182D01*
Y6651672D01*
X8572631D01*
Y6652121D01*
X8573081D01*
Y6652571D01*
X8573980D01*
Y6653020D01*
X8576677D01*
Y6652571D01*
D02*
G37*
G36*
X8553753D02*
X8554652D01*
Y6652121D01*
X8555101D01*
Y6651672D01*
X8555551D01*
Y6651222D01*
X8556000D01*
Y6650773D01*
Y6650323D01*
Y6649874D01*
X8556449D01*
Y6635490D01*
X8556000D01*
Y6634591D01*
X8555551D01*
Y6633692D01*
X8555101D01*
Y6633243D01*
X8554202D01*
Y6632793D01*
X8553303D01*
Y6632343D01*
X8551056D01*
Y6632793D01*
X8550157D01*
Y6633243D01*
X8549258D01*
Y6634141D01*
X8548808D01*
Y6634591D01*
X8548359D01*
Y6635939D01*
X8547909D01*
Y6649424D01*
X8548359D01*
Y6650773D01*
X8548808D01*
Y6651672D01*
X8549258D01*
Y6652121D01*
X8550157D01*
Y6652571D01*
X8551056D01*
Y6653020D01*
X8553753D01*
Y6652571D01*
D02*
G37*
%LPC*%
G36*
X8682758Y6831470D02*
X8537121D01*
Y6831020D01*
X8535773D01*
Y6830571D01*
X8534424D01*
Y6830121D01*
X8533525D01*
Y6829672D01*
X8533076D01*
Y6829222D01*
X8532177D01*
Y6828773D01*
X8531727D01*
Y6828323D01*
X8531278D01*
Y6827874D01*
X8530828D01*
Y6827424D01*
X8530379D01*
Y6826975D01*
X8529929D01*
Y6826076D01*
X8529480D01*
Y6825626D01*
X8529030D01*
Y6824727D01*
X8528581D01*
Y6823379D01*
X8528131D01*
Y6822030D01*
X8527682D01*
Y6676843D01*
X8528131D01*
Y6675046D01*
X8528581D01*
Y6674146D01*
X8529030D01*
Y6673248D01*
X8529480D01*
Y6672349D01*
X8529929D01*
Y6671899D01*
X8530379D01*
Y6671449D01*
X8530828D01*
Y6671000D01*
X8531278D01*
Y6670551D01*
X8531727D01*
Y6670101D01*
X8532177D01*
Y6669652D01*
X8532626D01*
Y6669202D01*
X8533525D01*
Y6668752D01*
X8533975D01*
Y6668303D01*
X8534874D01*
Y6667854D01*
X8536222D01*
Y6667404D01*
X8538470D01*
Y6666955D01*
X8681409D01*
Y6667404D01*
X8683207D01*
Y6667854D01*
X8684556D01*
Y6668303D01*
X8685455D01*
Y6668752D01*
X8686354D01*
Y6669202D01*
X8686803D01*
Y6669652D01*
X8687702D01*
Y6670101D01*
X8688152D01*
Y6670551D01*
X8688601D01*
Y6671000D01*
X8689051D01*
Y6671449D01*
X8689500D01*
Y6672349D01*
X8689950D01*
Y6672798D01*
X8690399D01*
Y6673697D01*
X8690849D01*
Y6674596D01*
X8691298D01*
Y6675495D01*
X8691748D01*
Y6677743D01*
X8692197D01*
Y6691227D01*
Y6691677D01*
Y6821131D01*
X8691748D01*
Y6822929D01*
X8691298D01*
Y6824278D01*
X8690849D01*
Y6825177D01*
X8690399D01*
Y6826076D01*
X8689950D01*
Y6826525D01*
X8689500D01*
Y6826975D01*
X8689051D01*
Y6827424D01*
X8688601D01*
Y6827874D01*
X8688152D01*
Y6828323D01*
X8687702D01*
Y6828773D01*
X8687253D01*
Y6829222D01*
X8686803D01*
Y6829672D01*
X8685904D01*
Y6830121D01*
X8685005D01*
Y6830571D01*
X8684106D01*
Y6831020D01*
X8682758D01*
Y6831470D01*
D02*
G37*
%LPD*%
G36*
X8600950Y6767642D02*
X8602298D01*
Y6767192D01*
X8603646D01*
Y6766742D01*
X8604546D01*
Y6766293D01*
X8604995D01*
Y6765843D01*
X8605445D01*
Y6765394D01*
X8606343D01*
Y6764945D01*
X8606793D01*
Y6764045D01*
X8607243D01*
Y6763596D01*
X8607692D01*
Y6763146D01*
X8608142D01*
Y6762248D01*
X8608591D01*
Y6761348D01*
X8609040D01*
Y6760000D01*
X8609490D01*
Y6758202D01*
X8609940D01*
Y6753707D01*
X8609490D01*
Y6751460D01*
X8609040D01*
Y6750561D01*
X8608591D01*
Y6749662D01*
X8608142D01*
Y6748763D01*
X8607692D01*
Y6747864D01*
X8607243D01*
Y6747414D01*
X8606793D01*
Y6746965D01*
X8606343D01*
Y6746515D01*
X8605445D01*
Y6746066D01*
X8604995D01*
Y6745616D01*
X8604096D01*
Y6745167D01*
X8603197D01*
Y6744717D01*
X8602298D01*
Y6744268D01*
X8600950D01*
Y6743818D01*
X8598702D01*
Y6743369D01*
X8591960D01*
Y6747864D01*
X8596904D01*
Y6748313D01*
X8599601D01*
Y6748763D01*
X8600500D01*
Y6749212D01*
X8601399D01*
Y6749662D01*
X8601849D01*
Y6750111D01*
X8602298D01*
Y6750561D01*
X8602748D01*
Y6751010D01*
X8603197D01*
Y6751460D01*
X8603646D01*
Y6752359D01*
X8604096D01*
Y6753707D01*
X8604546D01*
Y6758202D01*
X8604096D01*
Y6759551D01*
X8603646D01*
Y6760450D01*
X8603197D01*
Y6760899D01*
X8602748D01*
Y6761798D01*
X8601849D01*
Y6762248D01*
X8601399D01*
Y6762697D01*
X8600500D01*
Y6763146D01*
X8599152D01*
Y6763596D01*
X8594657D01*
Y6763146D01*
X8593758D01*
Y6762697D01*
X8592859D01*
Y6762248D01*
X8592409D01*
Y6761798D01*
X8591510D01*
Y6760899D01*
X8591061D01*
Y6760450D01*
X8590611D01*
Y6759551D01*
X8590162D01*
Y6758651D01*
X8589712D01*
Y6756854D01*
X8589263D01*
Y6737076D01*
Y6736626D01*
Y6729434D01*
X8584318D01*
Y6757753D01*
X8584768D01*
Y6760000D01*
X8585217D01*
Y6760899D01*
X8585667D01*
Y6762248D01*
X8586116D01*
Y6762697D01*
X8586566D01*
Y6763596D01*
X8587015D01*
Y6764045D01*
X8587465D01*
Y6764495D01*
X8587914D01*
Y6764945D01*
X8588364D01*
Y6765394D01*
X8588813D01*
Y6765843D01*
X8589263D01*
Y6766293D01*
X8590162D01*
Y6766742D01*
X8591061D01*
Y6767192D01*
X8591960D01*
Y6767642D01*
X8593308D01*
Y6768091D01*
X8600950D01*
Y6767642D01*
D02*
G37*
G36*
X8661182D02*
X8662530D01*
Y6767192D01*
X8663879D01*
Y6766742D01*
X8664778D01*
Y6766293D01*
X8665227D01*
Y6765843D01*
X8665677D01*
Y6765394D01*
X8666126D01*
Y6764945D01*
X8666576D01*
Y6764495D01*
X8667025D01*
Y6764045D01*
X8667475D01*
Y6763146D01*
X8667924D01*
Y6762248D01*
X8668374D01*
Y6760899D01*
X8668823D01*
Y6755056D01*
X8668374D01*
Y6754157D01*
X8667924D01*
Y6753258D01*
X8667475D01*
Y6752808D01*
X8667025D01*
Y6751909D01*
X8666126D01*
Y6751460D01*
X8665677D01*
Y6751010D01*
X8665227D01*
Y6750561D01*
X8664328D01*
Y6750111D01*
X8663879D01*
Y6749662D01*
X8664778D01*
Y6749212D01*
X8665677D01*
Y6748763D01*
X8666576D01*
Y6748313D01*
X8667475D01*
Y6747864D01*
X8667924D01*
Y6747414D01*
X8668374D01*
Y6746965D01*
X8668823D01*
Y6746515D01*
X8669273D01*
Y6746066D01*
X8669722D01*
Y6745167D01*
X8670172D01*
Y6743818D01*
X8670621D01*
Y6741571D01*
X8671071D01*
Y6738424D01*
X8670621D01*
Y6736177D01*
X8670172D01*
Y6734828D01*
X8669722D01*
Y6733929D01*
X8669273D01*
Y6733480D01*
X8668823D01*
Y6732581D01*
X8668374D01*
Y6732131D01*
X8667924D01*
Y6731682D01*
X8667025D01*
Y6731232D01*
X8666576D01*
Y6730783D01*
X8665677D01*
Y6730334D01*
X8664328D01*
Y6729884D01*
X8662530D01*
Y6729434D01*
X8651742D01*
Y6733929D01*
X8660283D01*
Y6734379D01*
X8662081D01*
Y6734828D01*
X8663429D01*
Y6735278D01*
X8663879D01*
Y6735727D01*
X8664328D01*
Y6736177D01*
X8664778D01*
Y6737076D01*
X8665227D01*
Y6737975D01*
X8665677D01*
Y6742919D01*
X8665227D01*
Y6743818D01*
X8664778D01*
Y6744268D01*
Y6744717D01*
X8664328D01*
Y6745167D01*
X8663879D01*
Y6745616D01*
X8662980D01*
Y6746066D01*
X8662081D01*
Y6746515D01*
X8660283D01*
Y6746965D01*
X8653540D01*
Y6747414D01*
X8653091D01*
Y6751010D01*
X8653540D01*
Y6751460D01*
X8659384D01*
Y6751909D01*
X8660732D01*
Y6752359D01*
X8661182D01*
Y6752808D01*
X8662081D01*
Y6753258D01*
X8662530D01*
Y6753707D01*
X8662980D01*
Y6754606D01*
X8663429D01*
Y6755056D01*
X8663879D01*
Y6759551D01*
X8663429D01*
Y6760899D01*
X8662980D01*
Y6761348D01*
X8662530D01*
Y6761798D01*
X8662081D01*
Y6762248D01*
X8661631D01*
Y6762697D01*
X8660732D01*
Y6763146D01*
X8659384D01*
Y6763596D01*
X8654889D01*
Y6763146D01*
X8653540D01*
Y6762697D01*
X8652642D01*
Y6762248D01*
X8652192D01*
Y6761798D01*
X8651742D01*
Y6761348D01*
X8651293D01*
Y6760899D01*
X8650844D01*
Y6760450D01*
X8650394D01*
Y6759551D01*
X8649945D01*
Y6758202D01*
X8649495D01*
Y6729434D01*
X8644551D01*
Y6758202D01*
X8645000D01*
Y6760000D01*
X8645450D01*
Y6761348D01*
X8645899D01*
Y6762248D01*
X8646348D01*
Y6762697D01*
X8646798D01*
Y6763596D01*
X8647248D01*
Y6764045D01*
X8647697D01*
Y6764495D01*
X8648147D01*
Y6764945D01*
X8648596D01*
Y6765394D01*
X8649045D01*
Y6765843D01*
X8649945D01*
Y6766293D01*
X8650394D01*
Y6766742D01*
X8651293D01*
Y6767192D01*
X8652192D01*
Y6767642D01*
X8653540D01*
Y6768091D01*
X8661182D01*
Y6767642D01*
D02*
G37*
G36*
X8637808Y6763146D02*
X8631515D01*
Y6762697D01*
X8629268D01*
Y6762248D01*
X8627919D01*
Y6761798D01*
X8627020D01*
Y6761348D01*
X8626571D01*
Y6760899D01*
X8625672D01*
Y6760450D01*
X8625222D01*
Y6760000D01*
X8624773D01*
Y6759551D01*
X8624323D01*
Y6759101D01*
X8623874D01*
Y6758202D01*
X8623424D01*
Y6757753D01*
X8622975D01*
Y6756854D01*
X8622525D01*
Y6755954D01*
X8622076D01*
Y6755056D01*
X8621626D01*
Y6753707D01*
X8621177D01*
Y6751909D01*
X8620727D01*
Y6745616D01*
X8621177D01*
Y6743369D01*
X8621626D01*
Y6742020D01*
X8622076D01*
Y6741121D01*
X8622525D01*
Y6740222D01*
X8622975D01*
Y6739323D01*
X8623424D01*
Y6738874D01*
X8623874D01*
Y6737975D01*
X8624323D01*
Y6737525D01*
X8624773D01*
Y6737076D01*
X8625222D01*
Y6736626D01*
X8625672D01*
Y6736177D01*
X8626571D01*
Y6735727D01*
X8627020D01*
Y6735278D01*
X8627919D01*
Y6734828D01*
X8629268D01*
Y6734379D01*
X8631515D01*
Y6733929D01*
X8637808D01*
Y6729434D01*
X8630167D01*
Y6729884D01*
X8627919D01*
Y6730334D01*
X8626571D01*
Y6730783D01*
X8625222D01*
Y6731232D01*
X8624323D01*
Y6731682D01*
X8623424D01*
Y6732131D01*
X8622975D01*
Y6732581D01*
X8622076D01*
Y6733030D01*
X8621626D01*
Y6733480D01*
X8621177D01*
Y6733929D01*
X8620727D01*
Y6734379D01*
X8620278D01*
Y6734828D01*
X8619828D01*
Y6735278D01*
X8619379D01*
Y6735727D01*
X8618929D01*
Y6736177D01*
X8618480D01*
Y6737076D01*
X8618030D01*
Y6737975D01*
X8617581D01*
Y6738424D01*
X8617131D01*
Y6739773D01*
X8616682D01*
Y6740672D01*
X8616232D01*
Y6742470D01*
X8615783D01*
Y6744717D01*
X8615333D01*
Y6752359D01*
X8615783D01*
Y6754606D01*
X8616232D01*
Y6756404D01*
X8616682D01*
Y6757303D01*
X8617131D01*
Y6758651D01*
X8617581D01*
Y6759551D01*
X8618030D01*
Y6760000D01*
X8618480D01*
Y6760899D01*
X8618929D01*
Y6761348D01*
X8619379D01*
Y6761798D01*
X8619828D01*
Y6762248D01*
X8620278D01*
Y6762697D01*
X8620727D01*
Y6763146D01*
X8621177D01*
Y6763596D01*
X8621626D01*
Y6764045D01*
X8622076D01*
Y6764495D01*
X8622975D01*
Y6764945D01*
X8623424D01*
Y6765394D01*
X8624323D01*
Y6765843D01*
X8625222D01*
Y6766293D01*
X8626571D01*
Y6766742D01*
X8627919D01*
Y6767192D01*
X8629717D01*
Y6767642D01*
X8637808D01*
Y6763146D01*
D02*
G37*
G36*
X8577576D02*
X8571283D01*
Y6762697D01*
X8569035D01*
Y6762248D01*
X8567687D01*
Y6761798D01*
X8566788D01*
Y6761348D01*
X8566338D01*
Y6760899D01*
X8565440D01*
Y6760450D01*
X8564990D01*
Y6760000D01*
X8564540D01*
Y6759551D01*
X8564091D01*
Y6759101D01*
X8563641D01*
Y6758202D01*
X8563192D01*
Y6757753D01*
X8562743D01*
Y6756854D01*
X8562293D01*
Y6755954D01*
X8561843D01*
Y6755056D01*
X8561394D01*
Y6753707D01*
X8560945D01*
Y6751460D01*
X8560495D01*
Y6745616D01*
X8560945D01*
Y6743369D01*
X8561394D01*
Y6742020D01*
X8561843D01*
Y6741121D01*
X8562293D01*
Y6740222D01*
X8562743D01*
Y6739323D01*
X8563192D01*
Y6738874D01*
X8563641D01*
Y6737975D01*
X8564091D01*
Y6737525D01*
X8564540D01*
Y6737076D01*
X8564990D01*
Y6736626D01*
X8565440D01*
Y6736177D01*
X8566338D01*
Y6735727D01*
X8566788D01*
Y6735278D01*
X8567687D01*
Y6734828D01*
X8569035D01*
Y6734379D01*
X8571283D01*
Y6733929D01*
X8577576D01*
Y6729434D01*
X8569934D01*
Y6729884D01*
X8567687D01*
Y6730334D01*
X8566338D01*
Y6730783D01*
X8564990D01*
Y6731232D01*
X8564091D01*
Y6731682D01*
X8563192D01*
Y6732131D01*
X8562743D01*
Y6732581D01*
X8561843D01*
Y6733030D01*
X8561394D01*
Y6733480D01*
X8560945D01*
Y6733929D01*
X8560495D01*
Y6734379D01*
X8560046D01*
Y6734828D01*
X8559596D01*
Y6735278D01*
X8559146D01*
Y6735727D01*
X8558697D01*
Y6736626D01*
X8558248D01*
Y6737076D01*
X8557798D01*
Y6737975D01*
X8557349D01*
Y6738874D01*
X8556899D01*
Y6739773D01*
X8556449D01*
Y6741121D01*
X8556000D01*
Y6742470D01*
X8555551D01*
Y6745167D01*
X8555101D01*
Y6751909D01*
X8555551D01*
Y6754606D01*
X8556000D01*
Y6756404D01*
X8556449D01*
Y6757303D01*
X8556899D01*
Y6758651D01*
X8557349D01*
Y6759101D01*
X8557798D01*
Y6760000D01*
X8558248D01*
Y6760899D01*
X8558697D01*
Y6761348D01*
X8559146D01*
Y6761798D01*
X8559596D01*
Y6762248D01*
X8560046D01*
Y6762697D01*
X8560495D01*
Y6763146D01*
X8560945D01*
Y6763596D01*
X8561394D01*
Y6764045D01*
X8561843D01*
Y6764495D01*
X8562743D01*
Y6764945D01*
X8563192D01*
Y6765394D01*
X8564091D01*
Y6765843D01*
X8564990D01*
Y6766293D01*
X8566338D01*
Y6766742D01*
X8567687D01*
Y6767192D01*
X8569485D01*
Y6767642D01*
X8577576D01*
Y6763146D01*
D02*
G37*
D46*
X8966788Y6541328D02*
G03*
X8966788Y6541328I-10270J0D01*
G01*
D47*
X10942500Y6799500D02*
G03*
X10942500Y6799500I-12500J0D01*
G01*
X9227500Y7855000D02*
G03*
X9227500Y7855000I-12500J0D01*
G01*
X10867500Y7497500D02*
G03*
X10867500Y7497500I-12500J0D01*
G01*
X9079180Y8434820D02*
G03*
X9079180Y8434820I-12500J0D01*
G01*
D48*
X8760000Y6135000D02*
Y6510000D01*
X8885000Y6635000D01*
X9835000D01*
X9960000Y6510000D01*
Y6135000D02*
Y6510000D01*
D49*
X10254750Y6645250D02*
X10905250D01*
X10254750Y6294750D02*
Y6645250D01*
Y6294750D02*
X10905250D01*
Y6645250D01*
X9280000Y7130000D02*
X9322500D01*
X9280000D02*
Y7172500D01*
X9977500Y7130000D02*
X10020000D01*
Y7172500D01*
Y7827500D02*
Y7870000D01*
X9977500D02*
X10020000D01*
X9280000D02*
X9322500D01*
X9280000Y7827500D02*
Y7870000D01*
X10905000Y7225500D02*
X11172500D01*
X10905000Y8034500D02*
X11172500D01*
X10905000Y7987500D02*
Y8034500D01*
Y7225500D02*
Y7272500D01*
X9156680Y7924820D02*
Y7957320D01*
X9124180Y7924820D02*
X9156680D01*
X8726680D02*
X8759180D01*
X8726680D02*
Y7957320D01*
Y8322320D02*
Y8354820D01*
X8759180D01*
X9156680Y8322320D02*
Y8354820D01*
X9124180D02*
X9156680D01*
X8616927Y7020715D02*
Y7110000D01*
Y7020715D02*
X8740000D01*
D50*
X11165285Y6414715D02*
Y6540000D01*
X11294715D01*
Y6414715D02*
Y6540000D01*
X10033000Y7916500D02*
Y8296500D01*
Y7916500D02*
X10613000D01*
X10733000Y8036500D01*
Y8176500D01*
X10613000Y8296500D02*
X10733000Y8176500D01*
X10033000Y8296500D02*
X10613000D01*
X10144715Y7205285D02*
X10270000D01*
Y7334715D01*
X10144715D02*
X10270000D01*
%TF.MD5,63bc698b20589a770bab9c82e763bf2a*%
M02*
